<svg width="32" height="32" viewBox="0 0 32 32" fill="none" xmlns="http://www.w3.org/2000/svg">
<g clip-path="url(#clip0_4350_3993)">
<path d="M4.80505 8.74581C4.60443 8.46493 4.66955 8.07462 4.95043 7.874L15.0138 0.687247C15.1196 0.611671 15.2463 0.57097 15.3763 0.570813C15.5063 0.570656 15.6331 0.611052 15.7391 0.686372L20.0205 3.729L23.7767 1.35843L22.5689 1.24737C22.2252 1.21575 21.9721 0.911497 22.0037 0.567747C22.0354 0.224059 22.3393 -0.0286905 22.6834 0.00262199L25.7137 0.281309C25.8053 0.289713 25.894 0.318238 25.9733 0.364847C26.0526 0.411456 26.1206 0.474999 26.1725 0.55094C26.2244 0.626881 26.2589 0.713346 26.2736 0.804163C26.2882 0.894979 26.2826 0.987906 26.2572 1.07631L25.4034 4.04687C25.3081 4.37868 24.962 4.57 24.6301 4.47493C24.2983 4.37956 24.1067 4.03337 24.202 3.70156L24.6 2.31693L20.3334 5.00962C20.2286 5.07572 20.1065 5.10919 19.9826 5.10579C19.8588 5.10238 19.7387 5.06226 19.6377 4.9905L15.3779 1.96318L5.67687 8.89118C5.57112 8.96696 5.44427 9.00768 5.31418 9.00762C5.21458 9.00778 5.11639 8.98409 5.02782 8.93854C4.93925 8.89299 4.86287 8.82691 4.80505 8.74581ZM29.5086 24.9167C29.5086 28.8224 26.3311 32 22.4254 32C18.7004 32 15.6378 29.1097 15.3624 25.454H9.13743C7.97362 25.454 7.02674 24.5072 7.02674 23.3434V14.9332L6.05112 15.6328L6.05087 15.633C5.67 15.9064 5.21286 16.0533 4.74399 16.0529C4.04255 16.0529 3.35099 15.7267 2.9123 15.1142C2.18999 14.1059 2.42268 12.6979 3.43105 11.9756L14.0669 4.34862C14.8672 3.77531 15.9329 3.78543 16.7211 4.37293L27.3234 11.9758C28.3314 12.698 28.5641 14.1059 27.8419 15.1142C27.1196 16.1226 25.7116 16.3552 24.7032 15.633L23.7274 14.9332V17.9539C27.0133 18.5671 29.5086 21.4557 29.5086 24.9167ZM15.0129 7.66806C15.1217 7.59 15.2494 7.551 15.3771 7.551C15.5047 7.551 15.6324 7.59 15.7412 7.66806L25.4314 14.6169C25.8792 14.9377 26.5047 14.8343 26.8257 14.3864C27.1466 13.9384 27.0431 13.3127 26.5952 12.9918L15.9876 5.38512C15.9839 5.3825 15.9804 5.37981 15.9767 5.37712C15.6265 5.11431 15.1516 5.10931 14.7951 5.36462L4.15924 12.9917C3.71099 13.3128 3.60762 13.9383 3.92855 14.3863C4.24943 14.8342 4.87512 14.9376 5.32305 14.6167L15.0129 7.66806ZM9.13743 24.204H12.3182V18.3433C12.3182 16.9207 13.4756 15.7634 14.8981 15.7634H15.8561C17.2786 15.7634 18.4359 16.9208 18.4359 18.3433V19.067C19.5729 18.2892 20.9468 17.8336 22.4253 17.8336C22.4427 17.8336 22.46 17.8341 22.4774 17.8342V14.0368L15.3771 8.94512L8.2768 14.0367V23.3434C8.2768 23.8179 8.66287 24.204 9.13743 24.204ZM17.186 18.3432C17.186 17.61 16.5894 17.0134 15.8561 17.0134H14.8981C14.1649 17.0134 13.5682 17.61 13.5682 18.3432V24.2039H15.3778C15.5335 22.6532 16.1913 21.2483 17.186 20.1549V18.3432ZM28.2586 24.9167C28.2586 21.7003 25.6418 19.0836 22.4254 19.0836C19.2089 19.0836 16.5921 21.7003 16.5921 24.9167C16.5921 28.1332 19.2089 30.75 22.4254 30.75C25.6418 30.75 28.2586 28.1332 28.2586 24.9167ZM22.4254 24.3203C21.8126 24.3203 21.3141 23.9051 21.3141 23.3948C21.3141 22.8845 21.8127 22.4693 22.4253 22.4692C22.7486 22.4693 23.3349 22.7388 23.4434 22.9039C23.6329 23.1923 24.0204 23.2725 24.309 23.0829C24.5974 22.8934 24.6776 22.5059 24.488 22.2174C24.2012 21.7811 23.5847 21.4635 23.0401 21.3144L23.0296 20.8734C23.0214 20.5334 22.7433 20.2634 22.4051 20.2634C22.4 20.2634 22.3949 20.2634 22.3898 20.2636C22.0447 20.2718 21.7717 20.5582 21.7799 20.9033L21.7894 21.2994C20.7954 21.5559 20.0641 22.3981 20.0641 23.3946C20.0641 24.5942 21.1233 25.5702 22.4254 25.5702C23.0381 25.5702 23.5366 25.9854 23.5366 26.4957C23.5366 27.006 23.0381 27.4212 22.4254 27.4212C21.9993 27.4212 21.7961 27.2974 21.4016 26.9251C21.1504 26.6882 20.7549 26.6999 20.518 26.9509C20.2812 27.202 20.2927 27.5976 20.5437 27.8344C20.8949 28.1657 21.262 28.4715 21.8125 28.6031L21.8211 28.9601C21.8293 29.3 22.1074 29.57 22.4456 29.57L22.461 29.5698C22.8061 29.5615 23.0791 29.275 23.0707 28.9299L23.0626 28.5907C24.0561 28.3339 24.7866 27.4919 24.7866 26.4957C24.7866 25.2962 23.7274 24.3203 22.4254 24.3203Z" fill="#9945FF"/>
</g>
<defs>
<clipPath id="clip0_4350_3993">
<rect width="32" height="32" fill="white"/>
</clipPath>
</defs>
</svg>
