<svg width="992" height="162" viewBox="0 0 1050 162" fill="none" xmlns="http://www.w3.org/2000/svg">
<path opacity="0.12" d="M51 67H1022" stroke="#01060F" stroke-width="1.5"/>
<path opacity="0.1" d="M51 67H771" stroke="#01060F" stroke-width="1.5"/>
<circle cx="226" cy="67" r="5" fill="#BEBFC6"/>
<g filter="url(#filter0_dddd_4450_1561)">
<path d="M175.336 42.144C174.768 42.144 174.248 42.04 173.776 41.832C173.304 41.616 172.904 41.324 172.576 40.956C172.248 40.588 172.012 40.176 171.868 39.72L172.888 39.3C173.104 39.876 173.424 40.32 173.848 40.632C174.28 40.936 174.784 41.088 175.36 41.088C175.712 41.088 176.02 41.032 176.284 40.92C176.548 40.808 176.752 40.652 176.896 40.452C177.048 40.244 177.124 40.004 177.124 39.732C177.124 39.356 177.016 39.06 176.8 38.844C176.592 38.62 176.284 38.452 175.876 38.34L174.232 37.836C173.584 37.636 173.088 37.32 172.744 36.888C172.4 36.456 172.228 35.96 172.228 35.4C172.228 34.912 172.344 34.484 172.576 34.116C172.816 33.74 173.144 33.448 173.56 33.24C173.984 33.024 174.464 32.916 175 32.916C175.536 32.916 176.02 33.012 176.452 33.204C176.892 33.396 177.264 33.656 177.568 33.984C177.872 34.304 178.096 34.672 178.24 35.088L177.232 35.508C177.04 35.004 176.752 34.624 176.368 34.368C175.984 34.104 175.532 33.972 175.012 33.972C174.692 33.972 174.408 34.028 174.16 34.14C173.92 34.244 173.732 34.4 173.596 34.608C173.468 34.808 173.404 35.048 173.404 35.328C173.404 35.656 173.508 35.948 173.716 36.204C173.924 36.46 174.24 36.656 174.664 36.792L176.164 37.236C176.868 37.452 177.4 37.76 177.76 38.16C178.12 38.56 178.3 39.056 178.3 39.648C178.3 40.136 178.172 40.568 177.916 40.944C177.668 41.32 177.32 41.616 176.872 41.832C176.432 42.04 175.92 42.144 175.336 42.144ZM181.581 42V34.14H179.157V33.06H185.157V34.14H182.769V42H181.581ZM184.829 42L188.033 33.06H189.425L192.629 42H191.369L190.637 39.9H186.821L186.089 42H184.829ZM187.193 38.82H190.265L188.561 33.912H188.897L187.193 38.82ZM193.756 42V33.06H196.912C197.504 33.06 198.024 33.172 198.472 33.396C198.92 33.62 199.268 33.94 199.516 34.356C199.772 34.772 199.9 35.26 199.9 35.82C199.9 36.452 199.74 36.988 199.42 37.428C199.1 37.868 198.668 38.184 198.124 38.376L200.2 42H198.832L196.648 38.124L197.428 38.58H194.932V42H193.756ZM194.932 37.5H196.948C197.3 37.5 197.608 37.432 197.872 37.296C198.136 37.16 198.34 36.964 198.484 36.708C198.636 36.452 198.712 36.156 198.712 35.82C198.712 35.476 198.636 35.18 198.484 34.932C198.34 34.676 198.136 34.48 197.872 34.344C197.608 34.208 197.3 34.14 196.948 34.14H194.932V37.5ZM202.863 42V34.14H200.439V33.06H206.439V34.14H204.051V42H202.863ZM211.206 42V34.14H208.782V33.06H214.782V34.14H212.394V42H211.206ZM219.825 42.144C219.193 42.144 218.601 42.032 218.049 41.808C217.497 41.576 217.013 41.252 216.597 40.836C216.189 40.42 215.869 39.932 215.637 39.372C215.405 38.804 215.289 38.188 215.289 37.524C215.289 36.852 215.405 36.236 215.637 35.676C215.869 35.116 216.189 34.628 216.597 34.212C217.013 33.796 217.493 33.476 218.037 33.252C218.589 33.028 219.185 32.916 219.825 32.916C220.465 32.916 221.057 33.032 221.601 33.264C222.153 33.488 222.633 33.808 223.041 34.224C223.457 34.632 223.781 35.116 224.013 35.676C224.253 36.236 224.373 36.852 224.373 37.524C224.373 38.188 224.253 38.804 224.013 39.372C223.781 39.932 223.457 40.42 223.041 40.836C222.633 41.252 222.153 41.576 221.601 41.808C221.057 42.032 220.465 42.144 219.825 42.144ZM219.825 41.052C220.321 41.052 220.773 40.964 221.181 40.788C221.589 40.604 221.941 40.352 222.237 40.032C222.541 39.704 222.773 39.328 222.933 38.904C223.101 38.472 223.185 38.012 223.185 37.524C223.185 37.036 223.101 36.58 222.933 36.156C222.773 35.732 222.541 35.36 222.237 35.04C221.941 34.712 221.589 34.46 221.181 34.284C220.773 34.1 220.321 34.008 219.825 34.008C219.337 34.008 218.889 34.1 218.481 34.284C218.073 34.46 217.717 34.712 217.413 35.04C217.117 35.36 216.885 35.732 216.717 36.156C216.549 36.58 216.465 37.036 216.465 37.524C216.465 38.012 216.549 38.472 216.717 38.904C216.885 39.328 217.117 39.704 217.413 40.032C217.717 40.352 218.073 40.604 218.481 40.788C218.889 40.964 219.337 41.052 219.825 41.052ZM226.088 42V33.06H227.264V38.088L226.976 37.968L231.248 33.06H232.724L229.136 37.2L229.196 36.36L232.904 42H231.5L228.668 37.752L227.264 39.36V42H226.088ZM234.033 42V33.06H239.853V34.14H235.209V36.972H239.613V38.052H235.209V40.92H239.853V42H234.033ZM241.31 42V33.06H242.294L247.43 40.284L246.986 40.332V33.06H248.174V42H247.19L242.078 34.728L242.486 34.68V42H241.31ZM255.316 42.144C254.748 42.144 254.228 42.04 253.756 41.832C253.284 41.616 252.884 41.324 252.556 40.956C252.228 40.588 251.992 40.176 251.848 39.72L252.868 39.3C253.084 39.876 253.404 40.32 253.828 40.632C254.26 40.936 254.764 41.088 255.34 41.088C255.692 41.088 256 41.032 256.264 40.92C256.528 40.808 256.732 40.652 256.876 40.452C257.028 40.244 257.104 40.004 257.104 39.732C257.104 39.356 256.996 39.06 256.78 38.844C256.572 38.62 256.264 38.452 255.856 38.34L254.212 37.836C253.564 37.636 253.068 37.32 252.724 36.888C252.38 36.456 252.208 35.96 252.208 35.4C252.208 34.912 252.324 34.484 252.556 34.116C252.796 33.74 253.124 33.448 253.54 33.24C253.964 33.024 254.444 32.916 254.98 32.916C255.516 32.916 256 33.012 256.432 33.204C256.872 33.396 257.244 33.656 257.548 33.984C257.852 34.304 258.076 34.672 258.22 35.088L257.212 35.508C257.02 35.004 256.732 34.624 256.348 34.368C255.964 34.104 255.512 33.972 254.992 33.972C254.672 33.972 254.388 34.028 254.14 34.14C253.9 34.244 253.712 34.4 253.576 34.608C253.448 34.808 253.384 35.048 253.384 35.328C253.384 35.656 253.488 35.948 253.696 36.204C253.904 36.46 254.22 36.656 254.644 36.792L256.144 37.236C256.848 37.452 257.38 37.76 257.74 38.16C258.1 38.56 258.28 39.056 258.28 39.648C258.28 40.136 258.152 40.568 257.896 40.944C257.648 41.32 257.3 41.616 256.852 41.832C256.412 42.04 255.9 42.144 255.316 42.144ZM259.103 42L262.307 33.06H263.699L266.903 42H265.643L264.911 39.9H261.095L260.363 42H259.103ZM261.467 38.82H264.539L262.835 33.912H263.171L261.467 38.82ZM268.029 42V33.06H269.205V40.92H273.129V42H268.029ZM274.451 42V33.06H280.271V34.14H275.627V36.972H280.031V38.052H275.627V40.92H280.271V42H274.451Z" fill="#01060F"/>
</g>
<circle cx="1022" cy="67" r="5" fill="#7F8798"/>
<g filter="url(#filter1_dddd_4450_1561)">
<path d="M1000.81 42V40.764L1003.23 38.232C1003.71 37.728 1004.08 37.328 1004.34 37.032C1004.6 36.728 1004.78 36.468 1004.89 36.252C1004.99 36.036 1005.04 35.816 1005.04 35.592C1005.04 35.216 1004.92 34.92 1004.68 34.704C1004.45 34.488 1004.15 34.38 1003.78 34.38C1003.4 34.38 1003.07 34.492 1002.79 34.716C1002.51 34.932 1002.3 35.252 1002.18 35.676L1000.75 35.232C1000.84 34.76 1001.04 34.352 1001.34 34.008C1001.63 33.656 1001.99 33.388 1002.42 33.204C1002.85 33.012 1003.3 32.916 1003.78 32.916C1004.36 32.916 1004.86 33.02 1005.3 33.228C1005.74 33.436 1006.08 33.728 1006.32 34.104C1006.56 34.48 1006.69 34.92 1006.69 35.424C1006.69 35.744 1006.63 36.06 1006.51 36.372C1006.39 36.684 1006.21 37.004 1005.97 37.332C1005.73 37.652 1005.42 38.012 1005.03 38.412L1002.93 40.62H1006.81V42H1000.81ZM1009.49 42V34.452H1007.76V33.06H1011.12V42H1009.49ZM1014.86 42V40.5H1015.37C1015.76 40.5 1016.06 40.392 1016.28 40.176C1016.52 39.952 1016.63 39.656 1016.63 39.288V33.06H1018.28V39.228C1018.28 39.78 1018.16 40.264 1017.92 40.68C1017.68 41.096 1017.35 41.42 1016.91 41.652C1016.48 41.884 1015.96 42 1015.37 42H1014.86ZM1023.41 42.144C1022.72 42.144 1022.11 42 1021.57 41.712C1021.04 41.424 1020.63 41.028 1020.32 40.524C1020.02 40.02 1019.87 39.448 1019.87 38.808V33.06H1021.5V38.724C1021.5 39.092 1021.58 39.424 1021.74 39.72C1021.91 40.016 1022.14 40.248 1022.42 40.416C1022.71 40.576 1023.04 40.656 1023.41 40.656C1023.78 40.656 1024.11 40.576 1024.39 40.416C1024.68 40.248 1024.9 40.016 1025.06 39.72C1025.23 39.424 1025.32 39.092 1025.32 38.724V33.06H1026.95V38.808C1026.95 39.448 1026.8 40.02 1026.49 40.524C1026.19 41.028 1025.77 41.424 1025.23 41.712C1024.7 42 1024.1 42.144 1023.41 42.144ZM1028.58 42V33.06H1029.85L1034.77 39.684L1034.11 39.816V33.06H1035.74V42H1034.46L1029.61 35.328L1030.21 35.196V42H1028.58ZM1037.47 42V33.06H1043.41V34.5H1039.1V36.792H1043.17V38.232H1039.1V40.56H1043.41V42H1037.47Z" fill="#01060F"/>
</g>
<circle cx="477" cy="67" r="5" fill="#BEBFC6"/>
<g filter="url(#filter2_dddd_4450_1561)">
<path d="M422.043 111.24C421.097 111.24 420.217 111.067 419.403 110.72C418.603 110.373 417.91 109.893 417.323 109.28C416.75 108.653 416.33 107.927 416.063 107.1L418.323 106.12C418.683 106.973 419.203 107.647 419.883 108.14C420.563 108.62 421.33 108.86 422.183 108.86C422.663 108.86 423.077 108.787 423.423 108.64C423.783 108.48 424.057 108.267 424.243 108C424.443 107.733 424.543 107.413 424.543 107.04C424.543 106.6 424.41 106.24 424.143 105.96C423.89 105.667 423.503 105.44 422.983 105.28L420.123 104.36C418.963 104 418.09 103.46 417.503 102.74C416.917 102.02 416.623 101.173 416.623 100.2C416.623 99.3467 416.83 98.5933 417.243 97.94C417.67 97.2867 418.257 96.78 419.003 96.42C419.763 96.0467 420.63 95.86 421.603 95.86C422.497 95.86 423.317 96.02 424.063 96.34C424.81 96.6467 425.45 97.08 425.983 97.64C426.53 98.1867 426.937 98.8333 427.203 99.58L424.963 100.58C424.67 99.8333 424.23 99.26 423.643 98.86C423.057 98.4467 422.377 98.24 421.603 98.24C421.15 98.24 420.75 98.32 420.403 98.48C420.057 98.6267 419.783 98.84 419.583 99.12C419.397 99.3867 419.303 99.7067 419.303 100.08C419.303 100.493 419.437 100.86 419.703 101.18C419.97 101.487 420.377 101.727 420.923 101.9L423.663 102.76C424.85 103.147 425.737 103.68 426.323 104.36C426.923 105.04 427.223 105.88 427.223 106.88C427.223 107.733 427.003 108.487 426.563 109.14C426.123 109.793 425.517 110.307 424.743 110.68C423.97 111.053 423.07 111.24 422.043 111.24ZM421.083 113V94.1H422.783V113H421.083ZM434.092 111.24C433.279 111.24 432.506 111.093 431.772 110.8C431.052 110.493 430.432 110.067 429.912 109.52C429.406 108.96 429.059 108.3 428.872 107.54L431.252 106.7C431.492 107.38 431.859 107.9 432.352 108.26C432.846 108.607 433.426 108.78 434.092 108.78C434.626 108.78 435.086 108.68 435.472 108.48C435.872 108.28 436.186 107.993 436.412 107.62C436.639 107.233 436.752 106.78 436.752 106.26C436.752 105.74 436.639 105.3 436.412 104.94C436.199 104.567 435.892 104.28 435.492 104.08C435.092 103.88 434.619 103.78 434.072 103.78C433.819 103.78 433.552 103.807 433.272 103.86C433.006 103.913 432.766 103.993 432.552 104.1L431.932 102.8L435.792 98.4H429.712V96.1H438.852V98.24L434.972 102.78L435.012 101.76C435.906 101.773 436.686 101.967 437.352 102.34C438.019 102.713 438.539 103.227 438.912 103.88C439.286 104.533 439.472 105.3 439.472 106.18C439.472 107.14 439.239 108.007 438.772 108.78C438.306 109.54 437.666 110.14 436.852 110.58C436.039 111.02 435.119 111.24 434.092 111.24ZM442.519 114.12V112.82C442.959 112.713 443.312 112.507 443.579 112.2C443.859 111.907 444.032 111.507 444.099 111H442.919V108.2H445.559V109.92C445.559 111.093 445.299 112.033 444.779 112.74C444.272 113.447 443.519 113.907 442.519 114.12ZM454.687 111.24C453.501 111.24 452.461 110.92 451.567 110.28C450.674 109.64 449.974 108.74 449.467 107.58C448.974 106.42 448.727 105.073 448.727 103.54C448.727 101.993 448.974 100.647 449.467 99.5C449.961 98.3533 450.654 97.46 451.547 96.82C452.441 96.18 453.481 95.86 454.667 95.86C455.881 95.86 456.927 96.18 457.807 96.82C458.701 97.46 459.401 98.36 459.907 99.52C460.414 100.667 460.667 102.007 460.667 103.54C460.667 105.073 460.414 106.42 459.907 107.58C459.414 108.727 458.721 109.627 457.827 110.28C456.934 110.92 455.887 111.24 454.687 111.24ZM454.707 108.76C455.387 108.76 455.967 108.553 456.447 108.14C456.927 107.713 457.294 107.113 457.547 106.34C457.814 105.553 457.947 104.62 457.947 103.54C457.947 102.46 457.814 101.533 457.547 100.76C457.294 99.9733 456.921 99.3733 456.427 98.96C455.947 98.5467 455.361 98.34 454.667 98.34C454.001 98.34 453.427 98.5467 452.947 98.96C452.467 99.3733 452.094 99.9733 451.827 100.76C451.574 101.533 451.447 102.46 451.447 103.54C451.447 104.607 451.574 105.533 451.827 106.32C452.094 107.093 452.467 107.693 452.947 108.12C453.441 108.547 454.027 108.76 454.707 108.76ZM468.848 111.24C467.661 111.24 466.621 110.92 465.728 110.28C464.834 109.64 464.134 108.74 463.628 107.58C463.134 106.42 462.888 105.073 462.888 103.54C462.888 101.993 463.134 100.647 463.628 99.5C464.121 98.3533 464.814 97.46 465.708 96.82C466.601 96.18 467.641 95.86 468.828 95.86C470.041 95.86 471.088 96.18 471.968 96.82C472.861 97.46 473.561 98.36 474.068 99.52C474.574 100.667 474.828 102.007 474.828 103.54C474.828 105.073 474.574 106.42 474.068 107.58C473.574 108.727 472.881 109.627 471.988 110.28C471.094 110.92 470.048 111.24 468.848 111.24ZM468.868 108.76C469.548 108.76 470.128 108.553 470.608 108.14C471.088 107.713 471.454 107.113 471.708 106.34C471.974 105.553 472.108 104.62 472.108 103.54C472.108 102.46 471.974 101.533 471.708 100.76C471.454 99.9733 471.081 99.3733 470.588 98.96C470.108 98.5467 469.521 98.34 468.828 98.34C468.161 98.34 467.588 98.5467 467.108 98.96C466.628 99.3733 466.254 99.9733 465.988 100.76C465.734 101.533 465.608 102.46 465.608 103.54C465.608 104.607 465.734 105.533 465.988 106.32C466.254 107.093 466.628 107.693 467.108 108.12C467.601 108.547 468.188 108.76 468.868 108.76ZM483.008 111.24C481.821 111.24 480.781 110.92 479.888 110.28C478.994 109.64 478.294 108.74 477.788 107.58C477.294 106.42 477.048 105.073 477.048 103.54C477.048 101.993 477.294 100.647 477.788 99.5C478.281 98.3533 478.974 97.46 479.868 96.82C480.761 96.18 481.801 95.86 482.988 95.86C484.201 95.86 485.248 96.18 486.128 96.82C487.021 97.46 487.721 98.36 488.228 99.52C488.734 100.667 488.988 102.007 488.988 103.54C488.988 105.073 488.734 106.42 488.228 107.58C487.734 108.727 487.041 109.627 486.148 110.28C485.254 110.92 484.208 111.24 483.008 111.24ZM483.028 108.76C483.708 108.76 484.288 108.553 484.768 108.14C485.248 107.713 485.614 107.113 485.868 106.34C486.134 105.553 486.268 104.62 486.268 103.54C486.268 102.46 486.134 101.533 485.868 100.76C485.614 99.9733 485.241 99.3733 484.748 98.96C484.268 98.5467 483.681 98.34 482.988 98.34C482.321 98.34 481.748 98.5467 481.268 98.96C480.788 99.3733 480.414 99.9733 480.148 100.76C479.894 101.533 479.768 102.46 479.768 103.54C479.768 104.607 479.894 105.533 480.148 106.32C480.414 107.093 480.788 107.693 481.268 108.12C481.761 108.547 482.348 108.76 483.028 108.76ZM492.148 114.12V112.82C492.588 112.713 492.941 112.507 493.208 112.2C493.488 111.907 493.661 111.507 493.728 111H492.548V108.2H495.188V109.92C495.188 111.093 494.928 112.033 494.408 112.74C493.901 113.447 493.148 113.907 492.148 114.12ZM504.316 111.24C503.13 111.24 502.09 110.92 501.196 110.28C500.303 109.64 499.603 108.74 499.096 107.58C498.603 106.42 498.356 105.073 498.356 103.54C498.356 101.993 498.603 100.647 499.096 99.5C499.59 98.3533 500.283 97.46 501.176 96.82C502.07 96.18 503.11 95.86 504.296 95.86C505.51 95.86 506.556 96.18 507.436 96.82C508.33 97.46 509.03 98.36 509.536 99.52C510.043 100.667 510.296 102.007 510.296 103.54C510.296 105.073 510.043 106.42 509.536 107.58C509.043 108.727 508.35 109.627 507.456 110.28C506.563 110.92 505.516 111.24 504.316 111.24ZM504.336 108.76C505.016 108.76 505.596 108.553 506.076 108.14C506.556 107.713 506.923 107.113 507.176 106.34C507.443 105.553 507.576 104.62 507.576 103.54C507.576 102.46 507.443 101.533 507.176 100.76C506.923 99.9733 506.55 99.3733 506.056 98.96C505.576 98.5467 504.99 98.34 504.296 98.34C503.63 98.34 503.056 98.5467 502.576 98.96C502.096 99.3733 501.723 99.9733 501.456 100.76C501.203 101.533 501.076 102.46 501.076 103.54C501.076 104.607 501.203 105.533 501.456 106.32C501.723 107.093 502.096 107.693 502.576 108.12C503.07 108.547 503.656 108.76 504.336 108.76ZM518.476 111.24C517.29 111.24 516.25 110.92 515.356 110.28C514.463 109.64 513.763 108.74 513.256 107.58C512.763 106.42 512.516 105.073 512.516 103.54C512.516 101.993 512.763 100.647 513.256 99.5C513.75 98.3533 514.443 97.46 515.336 96.82C516.23 96.18 517.27 95.86 518.456 95.86C519.67 95.86 520.716 96.18 521.596 96.82C522.49 97.46 523.19 98.36 523.696 99.52C524.203 100.667 524.456 102.007 524.456 103.54C524.456 105.073 524.203 106.42 523.696 107.58C523.203 108.727 522.51 109.627 521.616 110.28C520.723 110.92 519.676 111.24 518.476 111.24ZM518.496 108.76C519.176 108.76 519.756 108.553 520.236 108.14C520.716 107.713 521.083 107.113 521.336 106.34C521.603 105.553 521.736 104.62 521.736 103.54C521.736 102.46 521.603 101.533 521.336 100.76C521.083 99.9733 520.71 99.3733 520.216 98.96C519.736 98.5467 519.15 98.34 518.456 98.34C517.79 98.34 517.216 98.5467 516.736 98.96C516.256 99.3733 515.883 99.9733 515.616 100.76C515.363 101.533 515.236 102.46 515.236 103.54C515.236 104.607 515.363 105.533 515.616 106.32C515.883 107.093 516.256 107.693 516.736 108.12C517.23 108.547 517.816 108.76 518.496 108.76ZM532.637 111.24C531.45 111.24 530.41 110.92 529.517 110.28C528.623 109.64 527.923 108.74 527.417 107.58C526.923 106.42 526.677 105.073 526.677 103.54C526.677 101.993 526.923 100.647 527.417 99.5C527.91 98.3533 528.603 97.46 529.497 96.82C530.39 96.18 531.43 95.86 532.617 95.86C533.83 95.86 534.877 96.18 535.757 96.82C536.65 97.46 537.35 98.36 537.857 99.52C538.363 100.667 538.617 102.007 538.617 103.54C538.617 105.073 538.363 106.42 537.857 107.58C537.363 108.727 536.67 109.627 535.777 110.28C534.883 110.92 533.837 111.24 532.637 111.24ZM532.657 108.76C533.337 108.76 533.917 108.553 534.397 108.14C534.877 107.713 535.243 107.113 535.497 106.34C535.763 105.553 535.897 104.62 535.897 103.54C535.897 102.46 535.763 101.533 535.497 100.76C535.243 99.9733 534.87 99.3733 534.377 98.96C533.897 98.5467 533.31 98.34 532.617 98.34C531.95 98.34 531.377 98.5467 530.897 98.96C530.417 99.3733 530.043 99.9733 529.777 100.76C529.523 101.533 529.397 102.46 529.397 103.54C529.397 104.607 529.523 105.533 529.777 106.32C530.043 107.093 530.417 107.693 530.897 108.12C531.39 108.547 531.977 108.76 532.657 108.76Z" fill="#01060F"/>
</g>
<g filter="url(#filter3_dddd_4450_1561)">
<path d="M420.001 138.168C419.338 138.168 418.732 138.047 418.181 137.804C417.63 137.552 417.164 137.211 416.781 136.782C416.398 136.353 416.123 135.872 415.955 135.34L417.145 134.85C417.397 135.522 417.77 136.04 418.265 136.404C418.769 136.759 419.357 136.936 420.029 136.936C420.44 136.936 420.799 136.871 421.107 136.74C421.415 136.609 421.653 136.427 421.821 136.194C421.998 135.951 422.087 135.671 422.087 135.354C422.087 134.915 421.961 134.57 421.709 134.318C421.466 134.057 421.107 133.861 420.631 133.73L418.713 133.142C417.957 132.909 417.378 132.54 416.977 132.036C416.576 131.532 416.375 130.953 416.375 130.3C416.375 129.731 416.51 129.231 416.781 128.802C417.061 128.363 417.444 128.023 417.929 127.78C418.424 127.528 418.984 127.402 419.609 127.402C420.234 127.402 420.799 127.514 421.303 127.738C421.816 127.962 422.25 128.265 422.605 128.648C422.96 129.021 423.221 129.451 423.389 129.936L422.213 130.426C421.989 129.838 421.653 129.395 421.205 129.096C420.757 128.788 420.23 128.634 419.623 128.634C419.25 128.634 418.918 128.699 418.629 128.83C418.349 128.951 418.13 129.133 417.971 129.376C417.822 129.609 417.747 129.889 417.747 130.216C417.747 130.599 417.868 130.939 418.111 131.238C418.354 131.537 418.722 131.765 419.217 131.924L420.967 132.442C421.788 132.694 422.409 133.053 422.829 133.52C423.249 133.987 423.459 134.565 423.459 135.256C423.459 135.825 423.31 136.329 423.011 136.768C422.722 137.207 422.316 137.552 421.793 137.804C421.28 138.047 420.682 138.168 420.001 138.168ZM428.898 138.168C428.17 138.168 427.512 138 426.924 137.664C426.336 137.319 425.869 136.847 425.524 136.25C425.178 135.653 425.006 134.976 425.006 134.22C425.006 133.464 425.174 132.792 425.51 132.204C425.855 131.616 426.322 131.149 426.91 130.804C427.498 130.459 428.16 130.286 428.898 130.286C429.626 130.286 430.284 130.459 430.872 130.804C431.46 131.14 431.922 131.602 432.258 132.19C432.603 132.778 432.776 133.455 432.776 134.22C432.776 134.985 432.598 135.667 432.244 136.264C431.889 136.852 431.418 137.319 430.83 137.664C430.251 138 429.607 138.168 428.898 138.168ZM428.898 136.908C429.364 136.908 429.784 136.791 430.158 136.558C430.54 136.325 430.839 136.003 431.054 135.592C431.278 135.181 431.39 134.724 431.39 134.22C431.39 133.707 431.278 133.254 431.054 132.862C430.839 132.461 430.54 132.143 430.158 131.91C429.784 131.667 429.364 131.546 428.898 131.546C428.422 131.546 427.992 131.667 427.61 131.91C427.236 132.143 426.938 132.461 426.714 132.862C426.49 133.254 426.378 133.707 426.378 134.22C426.378 134.724 426.49 135.181 426.714 135.592C426.938 136.003 427.236 136.325 427.61 136.558C427.992 136.791 428.422 136.908 428.898 136.908ZM435.039 138V131.7H433.597V130.454H435.039V129.922C435.039 129.381 435.156 128.923 435.389 128.55C435.632 128.177 435.949 127.892 436.341 127.696C436.743 127.5 437.186 127.402 437.671 127.402C437.774 127.402 437.886 127.411 438.007 127.43C438.138 127.439 438.245 127.453 438.329 127.472V128.634C438.255 128.615 438.166 128.606 438.063 128.606C437.961 128.597 437.881 128.592 437.825 128.592C437.396 128.592 437.041 128.695 436.761 128.9C436.491 129.105 436.355 129.446 436.355 129.922V130.454H438.147V131.7H436.355V138H435.039ZM443.077 138.084C442.34 138.084 441.77 137.874 441.369 137.454C440.977 137.034 440.781 136.441 440.781 135.676V131.7H439.409V130.454H439.689C440.025 130.454 440.291 130.351 440.487 130.146C440.683 129.941 440.781 129.67 440.781 129.334V128.718H442.083V130.454H443.777V131.7H442.083V135.634C442.083 135.886 442.12 136.105 442.195 136.292C442.279 136.479 442.414 136.628 442.601 136.74C442.788 136.843 443.035 136.894 443.343 136.894C443.408 136.894 443.488 136.889 443.581 136.88C443.684 136.871 443.777 136.861 443.861 136.852V138C443.74 138.028 443.604 138.047 443.455 138.056C443.306 138.075 443.18 138.084 443.077 138.084ZM450.518 138.168C449.78 138.168 449.099 138.037 448.474 137.776C447.858 137.505 447.316 137.127 446.85 136.642C446.392 136.157 446.038 135.587 445.786 134.934C445.534 134.281 445.408 133.567 445.408 132.792C445.408 132.008 445.534 131.289 445.786 130.636C446.038 129.983 446.392 129.413 446.85 128.928C447.307 128.443 447.848 128.069 448.474 127.808C449.099 127.537 449.78 127.402 450.518 127.402C451.236 127.402 451.88 127.528 452.45 127.78C453.028 128.032 453.514 128.359 453.906 128.76C454.307 129.161 454.592 129.591 454.76 130.048L453.5 130.622C453.257 130.043 452.879 129.577 452.366 129.222C451.852 128.858 451.236 128.676 450.518 128.676C449.79 128.676 449.141 128.849 448.572 129.194C448.012 129.539 447.573 130.02 447.256 130.636C446.938 131.252 446.78 131.971 446.78 132.792C446.78 133.604 446.938 134.318 447.256 134.934C447.573 135.55 448.012 136.031 448.572 136.376C449.141 136.721 449.79 136.894 450.518 136.894C451.236 136.894 451.852 136.717 452.366 136.362C452.879 135.998 453.257 135.527 453.5 134.948L454.76 135.522C454.592 135.979 454.307 136.409 453.906 136.81C453.514 137.211 453.028 137.538 452.45 137.79C451.88 138.042 451.236 138.168 450.518 138.168ZM458.547 138.168C458.052 138.168 457.614 138.079 457.231 137.902C456.858 137.715 456.564 137.463 456.349 137.146C456.134 136.819 456.027 136.446 456.027 136.026C456.027 135.625 456.111 135.265 456.279 134.948C456.456 134.621 456.727 134.346 457.091 134.122C457.464 133.898 457.931 133.739 458.491 133.646L461.291 133.184V134.276L458.785 134.696C458.3 134.78 457.945 134.934 457.721 135.158C457.506 135.382 457.399 135.657 457.399 135.984C457.399 136.292 457.52 136.549 457.763 136.754C458.015 136.959 458.328 137.062 458.701 137.062C459.177 137.062 459.588 136.964 459.933 136.768C460.288 136.563 460.563 136.287 460.759 135.942C460.964 135.597 461.067 135.214 461.067 134.794V132.876C461.067 132.465 460.913 132.134 460.605 131.882C460.306 131.621 459.91 131.49 459.415 131.49C458.986 131.49 458.603 131.602 458.267 131.826C457.94 132.041 457.698 132.33 457.539 132.694L456.405 132.106C456.545 131.761 456.769 131.453 457.077 131.182C457.385 130.902 457.744 130.683 458.155 130.524C458.566 130.365 458.995 130.286 459.443 130.286C460.022 130.286 460.53 130.398 460.969 130.622C461.408 130.837 461.748 131.14 461.991 131.532C462.243 131.915 462.369 132.363 462.369 132.876V138H461.095V136.572L461.333 136.656C461.174 136.955 460.96 137.216 460.689 137.44C460.418 137.664 460.101 137.841 459.737 137.972C459.373 138.103 458.976 138.168 458.547 138.168ZM464.388 140.8V130.454H465.662V132.078L465.494 131.756C465.774 131.308 466.157 130.953 466.642 130.692C467.127 130.421 467.683 130.286 468.308 130.286C469.017 130.286 469.652 130.459 470.212 130.804C470.781 131.149 471.229 131.621 471.556 132.218C471.883 132.806 472.046 133.478 472.046 134.234C472.046 134.971 471.883 135.639 471.556 136.236C471.229 136.833 470.781 137.305 470.212 137.65C469.652 137.995 469.013 138.168 468.294 138.168C467.687 138.168 467.132 138.033 466.628 137.762C466.133 137.491 465.751 137.109 465.48 136.614L465.69 136.39V140.8H464.388ZM468.196 136.908C468.672 136.908 469.097 136.791 469.47 136.558C469.843 136.325 470.133 136.007 470.338 135.606C470.553 135.195 470.66 134.738 470.66 134.234C470.66 133.711 470.553 133.254 470.338 132.862C470.133 132.461 469.843 132.143 469.47 131.91C469.097 131.667 468.672 131.546 468.196 131.546C467.72 131.546 467.291 131.663 466.908 131.896C466.535 132.129 466.236 132.451 466.012 132.862C465.797 133.263 465.69 133.721 465.69 134.234C465.69 134.738 465.797 135.195 466.012 135.606C466.236 136.007 466.535 136.325 466.908 136.558C467.291 136.791 467.72 136.908 468.196 136.908Z" fill="#01060F"/>
</g>
<circle cx="769" cy="67" r="7.5" fill="#F0F1F8" stroke="#20E19F" stroke-width="3"/>
<g filter="url(#filter4_dddd_4450_1561)">
<path d="M679.102 110.216C678.25 110.216 677.47 110.06 676.762 109.748C676.054 109.424 675.454 108.986 674.962 108.434C674.47 107.882 674.116 107.264 673.9 106.58L675.43 105.95C675.754 106.814 676.234 107.48 676.87 107.948C677.518 108.404 678.274 108.632 679.138 108.632C679.666 108.632 680.128 108.548 680.524 108.38C680.92 108.212 681.226 107.978 681.442 107.678C681.67 107.366 681.784 107.006 681.784 106.598C681.784 106.034 681.622 105.59 681.298 105.266C680.986 104.93 680.524 104.678 679.912 104.51L677.446 103.754C676.474 103.454 675.73 102.98 675.214 102.332C674.698 101.684 674.44 100.94 674.44 100.1C674.44 99.368 674.614 98.726 674.962 98.174C675.322 97.61 675.814 97.172 676.438 96.86C677.074 96.536 677.794 96.374 678.598 96.374C679.402 96.374 680.128 96.518 680.776 96.806C681.436 97.094 681.994 97.484 682.45 97.976C682.906 98.456 683.242 99.008 683.458 99.632L681.946 100.262C681.658 99.506 681.226 98.936 680.65 98.552C680.074 98.156 679.396 97.958 678.616 97.958C678.136 97.958 677.71 98.042 677.338 98.21C676.978 98.366 676.696 98.6 676.492 98.912C676.3 99.212 676.204 99.572 676.204 99.992C676.204 100.484 676.36 100.922 676.672 101.306C676.984 101.69 677.458 101.984 678.094 102.188L680.344 102.854C681.4 103.178 682.198 103.64 682.738 104.24C683.278 104.84 683.548 105.584 683.548 106.472C683.548 107.204 683.356 107.852 682.972 108.416C682.6 108.98 682.078 109.424 681.406 109.748C680.746 110.06 679.978 110.216 679.102 110.216ZM690.541 110.216C689.605 110.216 688.759 110 688.003 109.568C687.247 109.124 686.647 108.518 686.203 107.75C685.759 106.982 685.537 106.112 685.537 105.14C685.537 104.168 685.753 103.304 686.185 102.548C686.629 101.792 687.229 101.192 687.985 100.748C688.741 100.304 689.593 100.082 690.541 100.082C691.477 100.082 692.323 100.304 693.079 100.748C693.835 101.18 694.429 101.774 694.861 102.53C695.305 103.286 695.527 104.156 695.527 105.14C695.527 106.124 695.299 107 694.843 107.768C694.387 108.524 693.781 109.124 693.025 109.568C692.281 110 691.453 110.216 690.541 110.216ZM690.541 108.596C691.141 108.596 691.681 108.446 692.161 108.146C692.653 107.846 693.037 107.432 693.313 106.904C693.601 106.376 693.745 105.788 693.745 105.14C693.745 104.48 693.601 103.898 693.313 103.394C693.037 102.878 692.653 102.47 692.161 102.17C691.681 101.858 691.141 101.702 690.541 101.702C689.929 101.702 689.377 101.858 688.885 102.17C688.405 102.47 688.021 102.878 687.733 103.394C687.445 103.898 687.301 104.48 687.301 105.14C687.301 105.788 687.445 106.376 687.733 106.904C688.021 107.432 688.405 107.846 688.885 108.146C689.377 108.446 689.929 108.596 690.541 108.596ZM697.71 110V96.374H699.384V110H697.71ZM706.392 110.216C705.48 110.216 704.658 109.994 703.926 109.55C703.206 109.106 702.636 108.5 702.216 107.732C701.796 106.964 701.586 106.106 701.586 105.158C701.586 104.186 701.796 103.322 702.216 102.566C702.636 101.798 703.206 101.192 703.926 100.748C704.658 100.304 705.48 100.082 706.392 100.082C707.196 100.082 707.91 100.256 708.534 100.604C709.158 100.94 709.65 101.396 710.01 101.972L709.74 102.386V96.374H711.432V110H709.794V107.93L710.01 108.218C709.674 108.854 709.182 109.346 708.534 109.694C707.898 110.042 707.184 110.216 706.392 110.216ZM706.536 108.596C707.148 108.596 707.694 108.446 708.174 108.146C708.654 107.846 709.032 107.438 709.308 106.922C709.596 106.394 709.74 105.806 709.74 105.158C709.74 104.498 709.596 103.91 709.308 103.394C709.032 102.866 708.654 102.452 708.174 102.152C707.694 101.852 707.148 101.702 706.536 101.702C705.936 101.702 705.39 101.858 704.898 102.17C704.418 102.47 704.04 102.878 703.764 103.394C703.488 103.898 703.35 104.486 703.35 105.158C703.35 105.806 703.488 106.394 703.764 106.922C704.04 107.438 704.418 107.846 704.898 108.146C705.378 108.446 705.924 108.596 706.536 108.596ZM719.672 110V98.21H716.036V96.59H725.036V98.21H721.454V110H719.672ZM729.881 110.216C728.945 110.216 728.099 110 727.343 109.568C726.587 109.124 725.987 108.518 725.543 107.75C725.099 106.982 724.877 106.112 724.877 105.14C724.877 104.168 725.093 103.304 725.525 102.548C725.969 101.792 726.569 101.192 727.325 100.748C728.081 100.304 728.933 100.082 729.881 100.082C730.817 100.082 731.663 100.304 732.419 100.748C733.175 101.18 733.769 101.774 734.201 102.53C734.645 103.286 734.867 104.156 734.867 105.14C734.867 106.124 734.639 107 734.183 107.768C733.727 108.524 733.121 109.124 732.365 109.568C731.621 110 730.793 110.216 729.881 110.216ZM729.881 108.596C730.481 108.596 731.021 108.446 731.501 108.146C731.993 107.846 732.377 107.432 732.653 106.904C732.941 106.376 733.085 105.788 733.085 105.14C733.085 104.48 732.941 103.898 732.653 103.394C732.377 102.878 731.993 102.47 731.501 102.17C731.021 101.858 730.481 101.702 729.881 101.702C729.269 101.702 728.717 101.858 728.225 102.17C727.745 102.47 727.361 102.878 727.073 103.394C726.785 103.898 726.641 104.48 726.641 105.14C726.641 105.788 726.785 106.376 727.073 106.904C727.361 107.432 727.745 107.846 728.225 108.146C728.717 108.446 729.269 108.596 729.881 108.596ZM737.05 110V96.374H738.724V105.716L738.04 105.554L743.188 100.298H745.33L741.604 104.204L745.582 110H743.602L739.966 104.744L741.01 104.69L738.184 107.642L738.724 106.418V110H737.05ZM751.375 110.216C750.439 110.216 749.605 109.994 748.873 109.55C748.141 109.106 747.565 108.5 747.145 107.732C746.725 106.952 746.515 106.082 746.515 105.122C746.515 104.15 746.719 103.286 747.127 102.53C747.547 101.774 748.111 101.18 748.819 100.748C749.539 100.304 750.343 100.082 751.231 100.082C751.951 100.082 752.587 100.214 753.139 100.478C753.703 100.73 754.177 101.078 754.561 101.522C754.957 101.954 755.257 102.452 755.461 103.016C755.677 103.568 755.785 104.144 755.785 104.744C755.785 104.876 755.773 105.026 755.749 105.194C755.737 105.35 755.719 105.5 755.695 105.644H747.739V104.204H754.723L753.931 104.852C754.039 104.228 753.979 103.67 753.751 103.178C753.523 102.686 753.187 102.296 752.743 102.008C752.299 101.72 751.795 101.576 751.231 101.576C750.667 101.576 750.151 101.72 749.683 102.008C749.215 102.296 748.849 102.71 748.585 103.25C748.333 103.778 748.231 104.408 748.279 105.14C748.231 105.848 748.339 106.472 748.603 107.012C748.879 107.54 749.263 107.954 749.755 108.254C750.259 108.542 750.805 108.686 751.393 108.686C752.041 108.686 752.587 108.536 753.031 108.236C753.475 107.936 753.835 107.552 754.111 107.084L755.515 107.804C755.323 108.248 755.023 108.656 754.615 109.028C754.219 109.388 753.745 109.676 753.193 109.892C752.653 110.108 752.047 110.216 751.375 110.216ZM757.968 110V100.298H759.606V102.188L759.336 102.026C759.576 101.414 759.96 100.94 760.488 100.604C761.028 100.256 761.658 100.082 762.378 100.082C763.074 100.082 763.692 100.238 764.232 100.55C764.784 100.862 765.216 101.294 765.528 101.846C765.852 102.398 766.014 103.022 766.014 103.718V110H764.322V104.258C764.322 103.718 764.226 103.262 764.034 102.89C763.842 102.518 763.566 102.23 763.206 102.026C762.858 101.81 762.456 101.702 762 101.702C761.544 101.702 761.136 101.81 760.776 102.026C760.428 102.23 760.152 102.524 759.948 102.908C759.744 103.28 759.642 103.73 759.642 104.258V110H757.968ZM777.911 110.216C776.963 110.216 776.087 110.048 775.283 109.712C774.479 109.364 773.783 108.878 773.195 108.254C772.607 107.63 772.145 106.898 771.809 106.058C771.485 105.218 771.323 104.3 771.323 103.304C771.323 102.296 771.485 101.372 771.809 100.532C772.133 99.692 772.589 98.96 773.177 98.336C773.765 97.712 774.461 97.232 775.265 96.896C776.069 96.548 776.945 96.374 777.893 96.374C778.817 96.374 779.645 96.536 780.377 96.86C781.121 97.184 781.745 97.604 782.249 98.12C782.765 98.636 783.131 99.188 783.347 99.776L781.763 100.55C781.451 99.77 780.965 99.152 780.305 98.696C779.645 98.24 778.841 98.012 777.893 98.012C776.957 98.012 776.123 98.234 775.391 98.678C774.671 99.122 774.107 99.74 773.699 100.532C773.291 101.324 773.087 102.248 773.087 103.304C773.087 104.348 773.291 105.266 773.699 106.058C774.119 106.85 774.689 107.468 775.409 107.912C776.141 108.356 776.975 108.578 777.911 108.578C778.727 108.578 779.465 108.404 780.125 108.056C780.785 107.708 781.307 107.228 781.691 106.616C782.075 106.004 782.267 105.296 782.267 104.492V103.664L783.077 104.42H777.893V102.89H784.049V104.078C784.049 105.014 783.887 105.86 783.563 106.616C783.239 107.372 782.795 108.02 782.231 108.56C781.667 109.088 781.013 109.496 780.269 109.784C779.525 110.072 778.739 110.216 777.911 110.216ZM786.432 110V96.59H795.162V98.21H788.196V102.458H794.802V104.078H788.196V108.38H795.162V110H786.432ZM801.956 110.216C801.104 110.216 800.324 110.06 799.616 109.748C798.908 109.424 798.308 108.986 797.816 108.434C797.324 107.882 796.97 107.264 796.754 106.58L798.284 105.95C798.608 106.814 799.088 107.48 799.724 107.948C800.372 108.404 801.128 108.632 801.992 108.632C802.52 108.632 802.982 108.548 803.378 108.38C803.774 108.212 804.08 107.978 804.296 107.678C804.524 107.366 804.638 107.006 804.638 106.598C804.638 106.034 804.476 105.59 804.152 105.266C803.84 104.93 803.378 104.678 802.766 104.51L800.3 103.754C799.328 103.454 798.584 102.98 798.068 102.332C797.552 101.684 797.294 100.94 797.294 100.1C797.294 99.368 797.468 98.726 797.816 98.174C798.176 97.61 798.668 97.172 799.292 96.86C799.928 96.536 800.648 96.374 801.452 96.374C802.256 96.374 802.982 96.518 803.63 96.806C804.29 97.094 804.848 97.484 805.304 97.976C805.76 98.456 806.096 99.008 806.312 99.632L804.8 100.262C804.512 99.506 804.08 98.936 803.504 98.552C802.928 98.156 802.25 97.958 801.47 97.958C800.99 97.958 800.564 98.042 800.192 98.21C799.832 98.366 799.55 98.6 799.346 98.912C799.154 99.212 799.058 99.572 799.058 99.992C799.058 100.484 799.214 100.922 799.526 101.306C799.838 101.69 800.312 101.984 800.948 102.188L803.198 102.854C804.254 103.178 805.052 103.64 805.592 104.24C806.132 104.84 806.402 105.584 806.402 106.472C806.402 107.204 806.21 107.852 805.826 108.416C805.454 108.98 804.932 109.424 804.26 109.748C803.6 110.06 802.832 110.216 801.956 110.216Z" fill="#01060F"/>
</g>
<g filter="url(#filter5_dddd_4450_1561)">
<path d="M683.91 158.384C682.416 158.384 681.03 158.107 679.75 157.552C678.47 156.976 677.382 156.197 676.486 155.216C675.59 154.235 674.928 153.104 674.502 151.824L677.702 150.48C678.278 151.952 679.12 153.083 680.23 153.872C681.339 154.661 682.619 155.056 684.07 155.056C684.923 155.056 685.67 154.928 686.31 154.672C686.95 154.395 687.44 154.011 687.782 153.52C688.144 153.029 688.326 152.464 688.326 151.824C688.326 150.949 688.08 150.256 687.59 149.744C687.099 149.232 686.374 148.827 685.414 148.528L680.934 147.12C679.142 146.565 677.776 145.723 676.838 144.592C675.899 143.44 675.43 142.096 675.43 140.56C675.43 139.216 675.76 138.043 676.422 137.04C677.083 136.016 677.99 135.216 679.142 134.64C680.315 134.064 681.648 133.776 683.142 133.776C684.571 133.776 685.872 134.032 687.046 134.544C688.219 135.035 689.222 135.717 690.054 136.592C690.907 137.467 691.526 138.48 691.91 139.632L688.774 141.008C688.304 139.749 687.568 138.779 686.566 138.096C685.584 137.413 684.443 137.072 683.142 137.072C682.352 137.072 681.659 137.211 681.062 137.488C680.464 137.744 679.995 138.128 679.654 138.64C679.334 139.131 679.174 139.707 679.174 140.368C679.174 141.136 679.419 141.819 679.91 142.416C680.4 143.013 681.147 143.461 682.15 143.76L686.31 145.072C688.208 145.648 689.638 146.48 690.598 147.568C691.558 148.635 692.038 149.968 692.038 151.568C692.038 152.891 691.686 154.064 690.982 155.088C690.299 156.112 689.35 156.923 688.134 157.52C686.918 158.096 685.51 158.384 683.91 158.384ZM682.438 161.2V130.96H684.998V161.2H682.438ZM703.189 158.384C701.909 158.384 700.703 158.149 699.573 157.68C698.463 157.211 697.503 156.549 696.693 155.696C695.903 154.843 695.338 153.84 694.997 152.688L698.197 151.472C698.623 152.603 699.274 153.477 700.149 154.096C701.023 154.715 702.037 155.024 703.189 155.024C704.127 155.024 704.938 154.843 705.621 154.48C706.325 154.117 706.869 153.605 707.253 152.944C707.658 152.283 707.861 151.483 707.861 150.544C707.861 149.627 707.658 148.837 707.253 148.176C706.869 147.515 706.325 147.013 705.621 146.672C704.938 146.331 704.127 146.16 703.189 146.16C702.805 146.16 702.41 146.192 702.005 146.256C701.621 146.32 701.279 146.405 700.981 146.512L700.149 144.752L706.421 137.36H696.277V134.16H710.645V137.2L704.501 144.56L704.405 143.344C705.834 143.365 707.093 143.685 708.181 144.304C709.269 144.901 710.111 145.733 710.708 146.8C711.327 147.845 711.637 149.061 711.637 150.448C711.637 151.941 711.274 153.296 710.549 154.512C709.823 155.707 708.821 156.656 707.541 157.36C706.282 158.043 704.831 158.384 703.189 158.384ZM716.415 162.704V160.944C717.119 160.773 717.663 160.443 718.047 159.952C718.431 159.483 718.666 158.832 718.751 158H717.055V153.84H720.735V156.56C720.735 158.267 720.372 159.643 719.647 160.688C718.922 161.733 717.844 162.405 716.415 162.704ZM736.483 158V152.624H725.123V149.488L736.323 134.16H740.067V149.488H743.363V152.624H740.067V158H736.483ZM727.907 150.864L727.299 149.488H736.483V137.168L737.507 137.488L727.907 150.864ZM756.051 158.384C754.152 158.384 752.488 157.872 751.059 156.848C749.629 155.803 748.509 154.363 747.699 152.528C746.909 150.672 746.515 148.517 746.515 146.064C746.515 143.589 746.909 141.435 747.699 139.6C748.509 137.765 749.619 136.336 751.027 135.312C752.456 134.288 754.12 133.776 756.019 133.776C757.917 133.776 759.571 134.288 760.979 135.312C762.408 136.336 763.517 137.776 764.307 139.632C765.117 141.467 765.523 143.611 765.523 146.064C765.523 148.517 765.128 150.672 764.339 152.528C763.549 154.363 762.44 155.803 761.01 156.848C759.603 157.872 757.949 158.384 756.051 158.384ZM756.051 154.928C757.224 154.928 758.237 154.565 759.091 153.84C759.944 153.115 760.605 152.091 761.075 150.768C761.544 149.445 761.779 147.877 761.779 146.064C761.779 144.251 761.544 142.683 761.075 141.36C760.605 140.037 759.944 139.013 759.091 138.288C758.237 137.563 757.213 137.2 756.019 137.2C754.845 137.2 753.832 137.563 752.979 138.288C752.125 139.013 751.464 140.037 750.995 141.36C750.525 142.683 750.291 144.251 750.291 146.064C750.291 147.856 750.525 149.424 750.995 150.768C751.464 152.091 752.125 153.115 752.979 153.84C753.853 154.565 754.877 154.928 756.051 154.928ZM777.101 158.384C775.543 158.384 774.157 158.043 772.941 157.36C771.725 156.677 770.765 155.739 770.061 154.544C769.378 153.349 769.037 151.995 769.037 150.48C769.037 149.691 769.122 148.901 769.293 148.112C769.463 147.323 769.762 146.501 770.189 145.648C770.637 144.795 771.234 143.877 771.981 142.896L778.637 134.16H783.149L774.989 144.72L774.349 144.304C774.647 143.963 774.967 143.696 775.309 143.504C775.671 143.312 776.045 143.173 776.429 143.088C776.834 143.003 777.261 142.96 777.709 142.96C779.138 142.96 780.418 143.291 781.549 143.952C782.679 144.613 783.565 145.509 784.205 146.64C784.866 147.771 785.197 149.072 785.197 150.544C785.197 152.037 784.845 153.381 784.141 154.576C783.437 155.749 782.477 156.677 781.261 157.36C780.066 158.043 778.679 158.384 777.101 158.384ZM777.101 155.024C777.933 155.024 778.669 154.832 779.309 154.448C779.949 154.064 780.461 153.541 780.845 152.88C781.229 152.197 781.421 151.429 781.421 150.576C781.421 149.701 781.229 148.933 780.845 148.272C780.482 147.611 779.97 147.099 779.309 146.736C778.669 146.352 777.933 146.16 777.101 146.16C776.29 146.16 775.554 146.352 774.893 146.736C774.253 147.099 773.741 147.611 773.357 148.272C772.973 148.933 772.781 149.701 772.781 150.576C772.781 151.429 772.973 152.197 773.357 152.88C773.741 153.541 774.253 154.064 774.893 154.448C775.554 154.832 776.29 155.024 777.101 155.024ZM789.728 162.704V160.944C790.432 160.773 790.976 160.443 791.36 159.952C791.744 159.483 791.978 158.832 792.064 158H790.368V153.84H794.048V156.56C794.048 158.267 793.685 159.643 792.96 160.688C792.234 161.733 791.157 162.405 789.728 162.704ZM808.676 158.384C806.777 158.384 805.113 157.872 803.684 156.848C802.254 155.803 801.134 154.363 800.324 152.528C799.534 150.672 799.14 148.517 799.14 146.064C799.14 143.589 799.534 141.435 800.324 139.6C801.134 137.765 802.244 136.336 803.652 135.312C805.081 134.288 806.745 133.776 808.644 133.776C810.542 133.776 812.196 134.288 813.604 135.312C815.033 136.336 816.142 137.776 816.932 139.632C817.742 141.467 818.148 143.611 818.148 146.064C818.148 148.517 817.753 150.672 816.964 152.528C816.174 154.363 815.065 155.803 813.635 156.848C812.228 157.872 810.574 158.384 808.676 158.384ZM808.676 154.928C809.849 154.928 810.862 154.565 811.716 153.84C812.569 153.115 813.23 152.091 813.7 150.768C814.169 149.445 814.404 147.877 814.404 146.064C814.404 144.251 814.169 142.683 813.7 141.36C813.23 140.037 812.569 139.013 811.716 138.288C810.862 137.563 809.838 137.2 808.644 137.2C807.47 137.2 806.457 137.563 805.604 138.288C804.75 139.013 804.089 140.037 803.62 141.36C803.15 142.683 802.916 144.251 802.916 146.064C802.916 147.856 803.15 149.424 803.62 150.768C804.089 152.091 804.75 153.115 805.604 153.84C806.478 154.565 807.502 154.928 808.676 154.928ZM831.582 158.384C829.683 158.384 828.019 157.872 826.59 156.848C825.16 155.803 824.04 154.363 823.23 152.528C822.44 150.672 822.046 148.517 822.046 146.064C822.046 143.589 822.44 141.435 823.23 139.6C824.04 137.765 825.15 136.336 826.558 135.312C827.987 134.288 829.651 133.776 831.55 133.776C833.448 133.776 835.102 134.288 836.51 135.312C837.939 136.336 839.048 137.776 839.838 139.632C840.648 141.467 841.054 143.611 841.054 146.064C841.054 148.517 840.659 150.672 839.87 152.528C839.08 154.363 837.971 155.803 836.542 156.848C835.134 157.872 833.48 158.384 831.582 158.384ZM831.582 154.928C832.755 154.928 833.768 154.565 834.622 153.84C835.475 153.115 836.136 152.091 836.606 150.768C837.075 149.445 837.31 147.877 837.31 146.064C837.31 144.251 837.075 142.683 836.606 141.36C836.136 140.037 835.475 139.013 834.622 138.288C833.768 137.563 832.744 137.2 831.55 137.2C830.376 137.2 829.363 137.563 828.51 138.288C827.656 139.013 826.995 140.037 826.526 141.36C826.056 142.683 825.822 144.251 825.822 146.064C825.822 147.856 826.056 149.424 826.526 150.768C826.995 152.091 827.656 153.115 828.51 153.84C829.384 154.565 830.408 154.928 831.582 154.928ZM854.488 158.384C852.589 158.384 850.925 157.872 849.496 156.848C848.067 155.803 846.947 154.363 846.136 152.528C845.347 150.672 844.952 148.517 844.952 146.064C844.952 143.589 845.347 141.435 846.136 139.6C846.947 137.765 848.056 136.336 849.464 135.312C850.893 134.288 852.557 133.776 854.456 133.776C856.355 133.776 858.008 134.288 859.416 135.312C860.845 136.336 861.955 137.776 862.744 139.632C863.555 141.467 863.96 143.611 863.96 146.064C863.96 148.517 863.565 150.672 862.776 152.528C861.987 154.363 860.877 155.803 859.448 156.848C858.04 157.872 856.387 158.384 854.488 158.384ZM854.488 154.928C855.661 154.928 856.675 154.565 857.528 153.84C858.381 153.115 859.043 152.091 859.512 150.768C859.981 149.445 860.216 147.877 860.216 146.064C860.216 144.251 859.981 142.683 859.512 141.36C859.043 140.037 858.381 139.013 857.528 138.288C856.675 137.563 855.651 137.2 854.456 137.2C853.283 137.2 852.269 137.563 851.416 138.288C850.563 139.013 849.901 140.037 849.432 141.36C848.963 142.683 848.728 144.251 848.728 146.064C848.728 147.856 848.963 149.424 849.432 150.768C849.901 152.091 850.563 153.115 851.416 153.84C852.291 154.565 853.315 154.928 854.488 154.928Z" fill="#01060F"/>
</g>
<defs>
<filter id="filter0_dddd_4450_1561" x="0.867554" y="0.916016" width="450.404" height="640.229" filterUnits="userSpaceOnUse" color-interpolation-filters="sRGB">
<feFlood flood-opacity="0" result="BackgroundImageFix"/>
<feColorMatrix in="SourceAlpha" type="matrix" values="0 0 0 0 0 0 0 0 0 0 0 0 0 0 0 0 0 0 127 0" result="hardAlpha"/>
<feOffset dy="27"/>
<feGaussianBlur stdDeviation="29.5"/>
<feColorMatrix type="matrix" values="0 0 0 0 0 0 0 0 0 0 0 0 0 0 0 0 0 0 0.1 0"/>
<feBlend mode="normal" in2="BackgroundImageFix" result="effect1_dropShadow_4450_1561"/>
<feColorMatrix in="SourceAlpha" type="matrix" values="0 0 0 0 0 0 0 0 0 0 0 0 0 0 0 0 0 0 127 0" result="hardAlpha"/>
<feOffset dy="107"/>
<feGaussianBlur stdDeviation="53.5"/>
<feColorMatrix type="matrix" values="0 0 0 0 0 0 0 0 0 0 0 0 0 0 0 0 0 0 0.09 0"/>
<feBlend mode="normal" in2="effect1_dropShadow_4450_1561" result="effect2_dropShadow_4450_1561"/>
<feColorMatrix in="SourceAlpha" type="matrix" values="0 0 0 0 0 0 0 0 0 0 0 0 0 0 0 0 0 0 127 0" result="hardAlpha"/>
<feOffset dy="241"/>
<feGaussianBlur stdDeviation="72"/>
<feColorMatrix type="matrix" values="0 0 0 0 0 0 0 0 0 0 0 0 0 0 0 0 0 0 0.05 0"/>
<feBlend mode="normal" in2="effect2_dropShadow_4450_1561" result="effect3_dropShadow_4450_1561"/>
<feColorMatrix in="SourceAlpha" type="matrix" values="0 0 0 0 0 0 0 0 0 0 0 0 0 0 0 0 0 0 127 0" result="hardAlpha"/>
<feOffset dy="428"/>
<feGaussianBlur stdDeviation="85.5"/>
<feColorMatrix type="matrix" values="0 0 0 0 0 0 0 0 0 0 0 0 0 0 0 0 0 0 0.01 0"/>
<feBlend mode="normal" in2="effect3_dropShadow_4450_1561" result="effect4_dropShadow_4450_1561"/>
<feBlend mode="normal" in="SourceGraphic" in2="effect4_dropShadow_4450_1561" result="shape"/>
</filter>
<filter id="filter1_dddd_4450_1561" x="829.748" y="0.916016" width="384.664" height="640.229" filterUnits="userSpaceOnUse" color-interpolation-filters="sRGB">
<feFlood flood-opacity="0" result="BackgroundImageFix"/>
<feColorMatrix in="SourceAlpha" type="matrix" values="0 0 0 0 0 0 0 0 0 0 0 0 0 0 0 0 0 0 127 0" result="hardAlpha"/>
<feOffset dy="27"/>
<feGaussianBlur stdDeviation="29.5"/>
<feColorMatrix type="matrix" values="0 0 0 0 0 0 0 0 0 0 0 0 0 0 0 0 0 0 0.1 0"/>
<feBlend mode="normal" in2="BackgroundImageFix" result="effect1_dropShadow_4450_1561"/>
<feColorMatrix in="SourceAlpha" type="matrix" values="0 0 0 0 0 0 0 0 0 0 0 0 0 0 0 0 0 0 127 0" result="hardAlpha"/>
<feOffset dy="107"/>
<feGaussianBlur stdDeviation="53.5"/>
<feColorMatrix type="matrix" values="0 0 0 0 0 0 0 0 0 0 0 0 0 0 0 0 0 0 0.09 0"/>
<feBlend mode="normal" in2="effect1_dropShadow_4450_1561" result="effect2_dropShadow_4450_1561"/>
<feColorMatrix in="SourceAlpha" type="matrix" values="0 0 0 0 0 0 0 0 0 0 0 0 0 0 0 0 0 0 127 0" result="hardAlpha"/>
<feOffset dy="241"/>
<feGaussianBlur stdDeviation="72"/>
<feColorMatrix type="matrix" values="0 0 0 0 0 0 0 0 0 0 0 0 0 0 0 0 0 0 0.05 0"/>
<feBlend mode="normal" in2="effect2_dropShadow_4450_1561" result="effect3_dropShadow_4450_1561"/>
<feColorMatrix in="SourceAlpha" type="matrix" values="0 0 0 0 0 0 0 0 0 0 0 0 0 0 0 0 0 0 127 0" result="hardAlpha"/>
<feOffset dy="428"/>
<feGaussianBlur stdDeviation="85.5"/>
<feColorMatrix type="matrix" values="0 0 0 0 0 0 0 0 0 0 0 0 0 0 0 0 0 0 0.01 0"/>
<feBlend mode="normal" in2="effect3_dropShadow_4450_1561" result="effect4_dropShadow_4450_1561"/>
<feBlend mode="normal" in="SourceGraphic" in2="effect4_dropShadow_4450_1561" result="shape"/>
</filter>
<filter id="filter2_dddd_4450_1561" x="245.063" y="62.0996" width="464.553" height="651.02" filterUnits="userSpaceOnUse" color-interpolation-filters="sRGB">
<feFlood flood-opacity="0" result="BackgroundImageFix"/>
<feColorMatrix in="SourceAlpha" type="matrix" values="0 0 0 0 0 0 0 0 0 0 0 0 0 0 0 0 0 0 127 0" result="hardAlpha"/>
<feOffset dy="27"/>
<feGaussianBlur stdDeviation="29.5"/>
<feColorMatrix type="matrix" values="0 0 0 0 0 0 0 0 0 0 0 0 0 0 0 0 0 0 0.1 0"/>
<feBlend mode="normal" in2="BackgroundImageFix" result="effect1_dropShadow_4450_1561"/>
<feColorMatrix in="SourceAlpha" type="matrix" values="0 0 0 0 0 0 0 0 0 0 0 0 0 0 0 0 0 0 127 0" result="hardAlpha"/>
<feOffset dy="107"/>
<feGaussianBlur stdDeviation="53.5"/>
<feColorMatrix type="matrix" values="0 0 0 0 0 0 0 0 0 0 0 0 0 0 0 0 0 0 0.09 0"/>
<feBlend mode="normal" in2="effect1_dropShadow_4450_1561" result="effect2_dropShadow_4450_1561"/>
<feColorMatrix in="SourceAlpha" type="matrix" values="0 0 0 0 0 0 0 0 0 0 0 0 0 0 0 0 0 0 127 0" result="hardAlpha"/>
<feOffset dy="241"/>
<feGaussianBlur stdDeviation="72"/>
<feColorMatrix type="matrix" values="0 0 0 0 0 0 0 0 0 0 0 0 0 0 0 0 0 0 0.05 0"/>
<feBlend mode="normal" in2="effect2_dropShadow_4450_1561" result="effect3_dropShadow_4450_1561"/>
<feColorMatrix in="SourceAlpha" type="matrix" values="0 0 0 0 0 0 0 0 0 0 0 0 0 0 0 0 0 0 127 0" result="hardAlpha"/>
<feOffset dy="428"/>
<feGaussianBlur stdDeviation="85.5"/>
<feColorMatrix type="matrix" values="0 0 0 0 0 0 0 0 0 0 0 0 0 0 0 0 0 0 0.01 0"/>
<feBlend mode="normal" in2="effect3_dropShadow_4450_1561" result="effect4_dropShadow_4450_1561"/>
<feBlend mode="normal" in="SourceGraphic" in2="effect4_dropShadow_4450_1561" result="shape"/>
</filter>
<filter id="filter3_dddd_4450_1561" x="244.955" y="95.4023" width="398.091" height="644.398" filterUnits="userSpaceOnUse" color-interpolation-filters="sRGB">
<feFlood flood-opacity="0" result="BackgroundImageFix"/>
<feColorMatrix in="SourceAlpha" type="matrix" values="0 0 0 0 0 0 0 0 0 0 0 0 0 0 0 0 0 0 127 0" result="hardAlpha"/>
<feOffset dy="27"/>
<feGaussianBlur stdDeviation="29.5"/>
<feColorMatrix type="matrix" values="0 0 0 0 0 0 0 0 0 0 0 0 0 0 0 0 0 0 0.1 0"/>
<feBlend mode="normal" in2="BackgroundImageFix" result="effect1_dropShadow_4450_1561"/>
<feColorMatrix in="SourceAlpha" type="matrix" values="0 0 0 0 0 0 0 0 0 0 0 0 0 0 0 0 0 0 127 0" result="hardAlpha"/>
<feOffset dy="107"/>
<feGaussianBlur stdDeviation="53.5"/>
<feColorMatrix type="matrix" values="0 0 0 0 0 0 0 0 0 0 0 0 0 0 0 0 0 0 0.09 0"/>
<feBlend mode="normal" in2="effect1_dropShadow_4450_1561" result="effect2_dropShadow_4450_1561"/>
<feColorMatrix in="SourceAlpha" type="matrix" values="0 0 0 0 0 0 0 0 0 0 0 0 0 0 0 0 0 0 127 0" result="hardAlpha"/>
<feOffset dy="241"/>
<feGaussianBlur stdDeviation="72"/>
<feColorMatrix type="matrix" values="0 0 0 0 0 0 0 0 0 0 0 0 0 0 0 0 0 0 0.05 0"/>
<feBlend mode="normal" in2="effect2_dropShadow_4450_1561" result="effect3_dropShadow_4450_1561"/>
<feColorMatrix in="SourceAlpha" type="matrix" values="0 0 0 0 0 0 0 0 0 0 0 0 0 0 0 0 0 0 127 0" result="hardAlpha"/>
<feOffset dy="428"/>
<feGaussianBlur stdDeviation="85.5"/>
<feColorMatrix type="matrix" values="0 0 0 0 0 0 0 0 0 0 0 0 0 0 0 0 0 0 0.01 0"/>
<feBlend mode="normal" in2="effect3_dropShadow_4450_1561" result="effect4_dropShadow_4450_1561"/>
<feBlend mode="normal" in="SourceGraphic" in2="effect4_dropShadow_4450_1561" result="shape"/>
</filter>
<filter id="filter4_dddd_4450_1561" x="502.9" y="64.373" width="474.501" height="644.844" filterUnits="userSpaceOnUse" color-interpolation-filters="sRGB">
<feFlood flood-opacity="0" result="BackgroundImageFix"/>
<feColorMatrix in="SourceAlpha" type="matrix" values="0 0 0 0 0 0 0 0 0 0 0 0 0 0 0 0 0 0 127 0" result="hardAlpha"/>
<feOffset dy="27"/>
<feGaussianBlur stdDeviation="29.5"/>
<feColorMatrix type="matrix" values="0 0 0 0 0 0 0 0 0 0 0 0 0 0 0 0 0 0 0.1 0"/>
<feBlend mode="normal" in2="BackgroundImageFix" result="effect1_dropShadow_4450_1561"/>
<feColorMatrix in="SourceAlpha" type="matrix" values="0 0 0 0 0 0 0 0 0 0 0 0 0 0 0 0 0 0 127 0" result="hardAlpha"/>
<feOffset dy="107"/>
<feGaussianBlur stdDeviation="53.5"/>
<feColorMatrix type="matrix" values="0 0 0 0 0 0 0 0 0 0 0 0 0 0 0 0 0 0 0.09 0"/>
<feBlend mode="normal" in2="effect1_dropShadow_4450_1561" result="effect2_dropShadow_4450_1561"/>
<feColorMatrix in="SourceAlpha" type="matrix" values="0 0 0 0 0 0 0 0 0 0 0 0 0 0 0 0 0 0 127 0" result="hardAlpha"/>
<feOffset dy="241"/>
<feGaussianBlur stdDeviation="72"/>
<feColorMatrix type="matrix" values="0 0 0 0 0 0 0 0 0 0 0 0 0 0 0 0 0 0 0.05 0"/>
<feBlend mode="normal" in2="effect2_dropShadow_4450_1561" result="effect3_dropShadow_4450_1561"/>
<feColorMatrix in="SourceAlpha" type="matrix" values="0 0 0 0 0 0 0 0 0 0 0 0 0 0 0 0 0 0 127 0" result="hardAlpha"/>
<feOffset dy="428"/>
<feGaussianBlur stdDeviation="85.5"/>
<feColorMatrix type="matrix" values="0 0 0 0 0 0 0 0 0 0 0 0 0 0 0 0 0 0 0.01 0"/>
<feBlend mode="normal" in2="effect3_dropShadow_4450_1561" result="effect4_dropShadow_4450_1561"/>
<feBlend mode="normal" in="SourceGraphic" in2="effect4_dropShadow_4450_1561" result="shape"/>
</filter>
<filter id="filter5_dddd_4450_1561" x="503.502" y="98.9609" width="531.458" height="662.742" filterUnits="userSpaceOnUse" color-interpolation-filters="sRGB">
<feFlood flood-opacity="0" result="BackgroundImageFix"/>
<feColorMatrix in="SourceAlpha" type="matrix" values="0 0 0 0 0 0 0 0 0 0 0 0 0 0 0 0 0 0 127 0" result="hardAlpha"/>
<feOffset dy="27"/>
<feGaussianBlur stdDeviation="29.5"/>
<feColorMatrix type="matrix" values="0 0 0 0 0 0 0 0 0 0 0 0 0 0 0 0 0 0 0.1 0"/>
<feBlend mode="normal" in2="BackgroundImageFix" result="effect1_dropShadow_4450_1561"/>
<feColorMatrix in="SourceAlpha" type="matrix" values="0 0 0 0 0 0 0 0 0 0 0 0 0 0 0 0 0 0 127 0" result="hardAlpha"/>
<feOffset dy="107"/>
<feGaussianBlur stdDeviation="53.5"/>
<feColorMatrix type="matrix" values="0 0 0 0 0 0 0 0 0 0 0 0 0 0 0 0 0 0 0.09 0"/>
<feBlend mode="normal" in2="effect1_dropShadow_4450_1561" result="effect2_dropShadow_4450_1561"/>
<feColorMatrix in="SourceAlpha" type="matrix" values="0 0 0 0 0 0 0 0 0 0 0 0 0 0 0 0 0 0 127 0" result="hardAlpha"/>
<feOffset dy="241"/>
<feGaussianBlur stdDeviation="72"/>
<feColorMatrix type="matrix" values="0 0 0 0 0 0 0 0 0 0 0 0 0 0 0 0 0 0 0.05 0"/>
<feBlend mode="normal" in2="effect2_dropShadow_4450_1561" result="effect3_dropShadow_4450_1561"/>
<feColorMatrix in="SourceAlpha" type="matrix" values="0 0 0 0 0 0 0 0 0 0 0 0 0 0 0 0 0 0 127 0" result="hardAlpha"/>
<feOffset dy="428"/>
<feGaussianBlur stdDeviation="85.5"/>
<feColorMatrix type="matrix" values="0 0 0 0 0 0 0 0 0 0 0 0 0 0 0 0 0 0 0.01 0"/>
<feBlend mode="normal" in2="effect3_dropShadow_4450_1561" result="effect4_dropShadow_4450_1561"/>
<feBlend mode="normal" in="SourceGraphic" in2="effect4_dropShadow_4450_1561" result="shape"/>
</filter>
</defs>
</svg>
