<svg width="159" height="35" viewBox="0 0 159 35" fill="none" xmlns="http://www.w3.org/2000/svg">
<g clip-path="url(#clip0_4307_2488)">
<path d="M16.36 -0.03125V15.735L6.11451 -0.03125H0V25.4086H6.11451V9.72338L16.36 25.4086H22.4909V-0.03125H16.36Z" fill="#01060F"/>
<path d="M27.6382 -0.03125V25.4086H33.7691V15.1192H41.4245V10.2905H33.7691V4.94329H43.9982V-0.03125H27.6382Z" fill="#01060F"/>
<path d="M46.7851 11.1654C46.7851 18.5867 57.6699 16.2371 57.6699 19.4941C57.6699 20.4015 56.8339 21.1306 55.2602 21.1306C53.5881 21.1306 52.3259 20.1908 52.1947 18.7811H46.1294C46.4245 22.6862 49.9981 25.7001 55.3421 25.7001C60.3419 25.7001 63.4238 23.0427 63.4238 19.5427C63.3254 12.008 52.5062 14.2765 52.5062 11.0519C52.5062 10.0797 53.293 9.49638 54.7356 9.49638C56.4405 9.49638 57.4896 10.4038 57.6699 11.7811H63.3254C62.932 7.79499 60.0633 4.89453 54.9159 4.89453C49.6866 4.89453 46.7851 7.73018 46.7851 11.1654Z" fill="#01060F"/>
<path d="M66.5383 -0.03125V4.94329H73.2102V25.4086H79.3247V4.94329H85.9802V-0.03125H66.5383Z" fill="#01060F"/>
<path fill-rule="evenodd" clip-rule="evenodd" d="M97.373 4.89453C100.34 4.89453 102.455 6.27185 103.537 8.05425V5.1862H109.651V25.4084H103.537V22.5404C102.422 24.3228 100.307 25.7001 97.3402 25.7001C92.4716 25.7001 88.5701 21.633 88.5701 15.2649C88.5701 8.88064 92.4716 4.89453 97.373 4.89453ZM99.1598 20.2881C101.488 20.2881 103.537 18.5218 103.537 15.2973C103.537 12.0728 101.488 10.2904 99.1598 10.2904C96.8648 10.2904 94.7993 12.0404 94.7993 15.2649C94.7993 18.4894 96.8648 20.2881 99.1598 20.2881Z" fill="#01060F"/>
<path d="M127.864 5.18555L123.274 17.8244L118.651 5.18555H111.815L119.946 24.711L115.372 35.0004H121.946L134.486 5.18555H127.864Z" fill="#01060F"/>
<path d="M132.241 25.6523C132.241 26.2194 132.683 26.6731 133.355 26.6731C134.011 26.6731 134.47 26.2194 134.47 25.6523C134.47 25.0689 134.011 24.6152 133.355 24.6152C132.683 24.6152 132.241 25.0689 132.241 25.6523Z" fill="#01060F"/>
<path d="M134.978 23.4962C134.978 25.4569 136.241 26.6722 138.044 26.6722C139.568 26.6722 140.65 25.7648 140.978 24.3388H138.978C138.814 24.7925 138.519 25.0518 138.011 25.0518C137.339 25.0518 136.88 24.5171 136.88 23.4962C136.88 22.4592 137.339 21.9245 138.011 21.9245C138.519 21.9245 138.831 22.1999 138.978 22.6374H140.978C140.65 21.1629 139.568 20.3203 138.044 20.3203C136.241 20.3203 134.978 21.5356 134.978 23.4962Z" fill="#01060F"/>
<path fill-rule="evenodd" clip-rule="evenodd" d="M144.552 20.3203C146.338 20.3203 147.732 21.5356 147.732 23.4962C147.732 25.4569 146.322 26.6722 144.535 26.6722C142.732 26.6722 141.371 25.4569 141.371 23.4962C141.371 21.5356 142.765 20.3203 144.552 20.3203ZM144.535 25.0356C145.191 25.0356 145.814 24.5333 145.814 23.4962C145.814 22.443 145.207 21.9569 144.552 21.9569C143.88 21.9569 143.289 22.443 143.289 23.4962C143.289 24.5333 143.847 25.0356 144.535 25.0356Z" fill="#01060F"/>
<path d="M154.24 21.4864C153.814 20.741 153.076 20.3359 152.158 20.3359C151.355 20.3359 150.732 20.6762 150.371 21.1785V20.4008H148.502V26.5744H150.371V23.2202C150.371 22.41 150.83 21.9725 151.551 21.9725C152.256 21.9725 152.715 22.41 152.715 23.2202V26.5744H154.568V23.2202C154.568 22.41 155.027 21.9725 155.748 21.9725C156.453 21.9725 156.912 22.41 156.912 23.2202V26.5744H158.781V22.9771C158.781 21.3082 157.797 20.3359 156.289 20.3359C155.404 20.3359 154.633 20.8383 154.24 21.4864Z" fill="#01060F"/>
</g>
<defs>
<clipPath id="clip0_4307_2488">
<rect width="158.846" height="35" fill="white"/>
</clipPath>
</defs>
</svg>
