<svg width="32" height="32" viewBox="0 0 32 32" fill="none" xmlns="http://www.w3.org/2000/svg">
<g clip-path="url(#clip0_4350_3985)">
<path d="M6.76513 21.1262H4.46838C4.12326 21.1262 3.84338 21.4061 3.84338 21.7512V24.0479C3.84338 24.3931 4.12326 24.6729 4.46838 24.6729H6.76513C7.11026 24.6729 7.39013 24.3931 7.39013 24.0479V21.7512C7.39013 21.406 7.11032 21.1262 6.76513 21.1262ZM6.14013 23.4229H5.09338V22.3762H6.14013V23.4229ZM11.8563 21.1262H9.55951C9.21438 21.1262 8.93451 21.4061 8.93451 21.7512V24.0479C8.93451 24.3931 9.21438 24.6729 9.55951 24.6729H11.8563C12.2014 24.6729 12.4813 24.3931 12.4813 24.0479V21.7512C12.4813 21.406 12.2014 21.1262 11.8563 21.1262ZM11.2313 23.4229H10.1845V22.3762H11.2313V23.4229ZM6.76513 25.9494H4.46838C4.12326 25.9494 3.84338 26.2292 3.84338 26.5744V28.8711C3.84338 29.2162 4.12326 29.4961 4.46838 29.4961H6.76513C7.11026 29.4961 7.39013 29.2162 7.39013 28.8711V26.5744C7.39013 26.2292 7.11032 25.9494 6.76513 25.9494ZM6.14013 28.2461H5.09338V27.1994H6.14013V28.2461ZM11.8563 25.9494H9.55951C9.21438 25.9494 8.93451 26.2292 8.93451 26.5744V28.8711C8.93451 29.2162 9.21438 29.4961 9.55951 29.4961H11.8563C12.2014 29.4961 12.4813 29.2162 12.4813 28.8711V26.5744C12.4813 26.2292 12.2014 25.9494 11.8563 25.9494ZM11.2313 28.2461H10.1845V27.1994H11.2313V28.2461ZM9.50001 16.1519C9.38247 16.0352 9.22375 15.9694 9.05813 15.9688C8.89313 15.9688 8.73251 16.0356 8.61626 16.1519C8.49945 16.2681 8.43313 16.4294 8.43313 16.5938C8.43313 16.7581 8.49945 16.9194 8.61626 17.0356C8.73251 17.1518 8.89376 17.2188 9.05813 17.2188C9.22251 17.2188 9.38313 17.1519 9.50001 17.0356C9.6162 16.9194 9.68313 16.7581 9.68313 16.5938C9.68313 16.4294 9.61626 16.2681 9.50001 16.1519Z" fill="#9945FF"/>
<path d="M31.375 30.75H30.75V14.8711C30.75 14.526 30.4701 14.2461 30.125 14.2461H27.1329V6.19462C27.1329 5.96331 27.0052 5.75087 26.8008 5.64249L16.3008 0.0728685C16.2056 0.0223494 16.0989 -0.00267513 15.9911 0.000226452C15.8833 0.00312803 15.7782 0.0338571 15.6858 0.0894277C15.5934 0.144998 15.517 0.223521 15.4639 0.317365C15.4108 0.41121 15.3829 0.517185 15.3829 0.624994V6.99999H9.05794C8.71281 6.99999 8.43294 7.27987 8.43294 7.62499V14.1076C8.43294 14.4527 8.71281 14.7326 9.05794 14.7326C9.40306 14.7326 9.68294 14.4527 9.68294 14.1076V8.24999H18.1829V10.7461H16.0079C15.6628 10.7461 15.3829 11.026 15.3829 11.3711C15.3829 11.7162 15.6628 11.9961 16.0079 11.9961H18.1829V14.2461H16.0079C15.6628 14.2461 15.3829 14.526 15.3829 14.8711C15.3829 15.2162 15.6628 15.4961 16.0079 15.4961H18.1829V17.7461H16.0079C15.6628 17.7461 15.3829 18.026 15.3829 18.3711C15.3829 18.7162 15.6628 18.9961 16.0079 18.9961H18.1829V21.2461H16.0079C15.6628 21.2461 15.3829 21.526 15.3829 21.8711C15.3829 22.2162 15.6628 22.4961 16.0079 22.4961H18.1829V24.7461H16.0079C15.6628 24.7461 15.3829 25.026 15.3829 25.3711C15.3829 25.7162 15.6628 25.9961 16.0079 25.9961H18.1829V28.2461H16.0079C15.6628 28.2461 15.3829 28.526 15.3829 28.8711C15.3829 29.2162 15.6628 29.4961 16.0079 29.4961H18.1829V30.75H15V19.25C15 18.9049 14.7201 18.625 14.375 18.625H1.875C1.52988 18.625 1.25 18.9049 1.25 19.25V30.75H0.625C0.279875 30.75 0 31.0299 0 31.375C0 31.7201 0.279875 32 0.625 32H31.375C31.7201 32 32 31.7201 32 31.375C32 31.0299 31.7202 30.75 31.375 30.75ZM13.75 30.75H2.5V19.875H13.75V30.75ZM21.5 14.8711V30.75H19.4329V7.62499C19.4329 7.27987 19.1531 6.99999 18.8079 6.99999H16.6329V1.66399L25.8829 6.57062V14.2461H22.125C21.7799 14.2461 21.5 14.526 21.5 14.8711ZM29.5 17.7461H26.125C25.7799 17.7461 25.5 18.026 25.5 18.3711C25.5 18.7162 25.7799 18.9961 26.125 18.9961H29.5V21.2461H26.125C25.7799 21.2461 25.5 21.526 25.5 21.8711C25.5 22.2162 25.7799 22.4961 26.125 22.4961H29.5V24.7461H26.125C25.7799 24.7461 25.5 25.026 25.5 25.3711C25.5 25.7162 25.7799 25.9961 26.125 25.9961H29.5V28.2461H27.6042C27.2591 28.2461 26.9792 28.526 26.9792 28.8711C26.9792 29.2162 27.2591 29.4961 27.6042 29.4961H29.5V30.75H22.75V15.4961H29.5V17.7461Z" fill="#9945FF"/>
<path d="M25.2124 28.4294C25.0951 28.3125 24.9363 28.2467 24.7706 28.2463C24.6062 28.2463 24.445 28.3131 24.3288 28.4294C24.2125 28.5456 24.1456 28.7069 24.1456 28.8713C24.1456 29.0356 24.2124 29.1969 24.3288 29.3131C24.4462 29.4299 24.605 29.4957 24.7706 29.4963C24.9356 29.4963 25.0962 29.4294 25.2124 29.3131C25.3295 29.1958 25.3953 29.037 25.3956 28.8713C25.3956 28.7062 25.3293 28.5456 25.2124 28.4294ZM21.5 7.0625C21.1549 7.0625 20.875 7.34238 20.875 7.6875V8.85419C20.875 9.19938 21.1549 9.47919 21.5 9.47919C21.8451 9.47919 22.125 9.19931 22.125 8.85419V7.6875C22.125 7.34238 21.8451 7.0625 21.5 7.0625ZM21.5 10.7461C21.1549 10.7461 20.875 11.0259 20.875 11.3711V12.6581C20.875 13.0033 21.1549 13.2831 21.5 13.2831C21.8451 13.2831 22.125 13.0032 22.125 12.6581V11.3711C22.125 11.0259 21.8451 10.7461 21.5 10.7461ZM24 7.0625C23.6549 7.0625 23.375 7.34238 23.375 7.6875V8.85419C23.375 9.19938 23.6549 9.47919 24 9.47919C24.3451 9.47919 24.625 9.19931 24.625 8.85419V7.6875C24.625 7.34238 24.3451 7.0625 24 7.0625ZM24 10.7461C23.6549 10.7461 23.375 11.0259 23.375 11.3711V12.6581C23.375 13.0033 23.6549 13.2831 24 13.2831C24.3451 13.2831 24.625 13.0032 24.625 12.6581V11.3711C24.625 11.0259 24.3451 10.7461 24 10.7461Z" fill="#9945FF"/>
</g>
<defs>
<clipPath id="clip0_4350_3985">
<rect width="32" height="32" fill="white"/>
</clipPath>
</defs>
</svg>
