<svg width="25" height="25" viewBox="0 0 25 25" fill="none" xmlns="http://www.w3.org/2000/svg">
<path d="M16.0313 5.42773L17.5 8.36523C17.6979 8.77148 18.2292 9.15689 18.6771 9.24022L21.3334 9.67772C23.0313 9.95897 23.4271 11.1881 22.2083 12.4173L20.1354 14.4902C19.7917 14.834 19.5938 15.5111 19.7084 16.0006L20.3021 18.5632C20.7708 20.584 19.6875 21.3756 17.9063 20.3131L15.4167 18.834C14.9687 18.5631 14.2188 18.5631 13.7708 18.834L11.2812 20.3131C9.5 21.3652 8.41667 20.584 8.88542 18.5632L9.47918 16.0006C9.59377 15.5215 9.39585 14.8444 9.0521 14.4902L6.97919 12.4173C5.76044 11.1986 6.15627 9.96939 7.85419 9.67772L10.5104 9.24022C10.9583 9.16731 11.4896 8.77148 11.6875 8.36523L13.1563 5.42773C13.9375 3.83398 15.2292 3.83398 16.0313 5.42773Z" stroke="#01060F" stroke-width="2" stroke-linecap="round" stroke-linejoin="round"/>
<path d="M8.33331 5.20898H2.08331" stroke="#01060F" stroke-width="2" stroke-linecap="round" stroke-linejoin="round"/>
<path d="M5.20831 19.791H2.08331" stroke="#01060F" stroke-width="2" stroke-linecap="round" stroke-linejoin="round"/>
<path d="M3.12498 12.5H2.08331" stroke="#01060F" stroke-width="2" stroke-linecap="round" stroke-linejoin="round"/>
</svg>
