<svg width="850" height="350" viewBox="0 0 850 350" fill="none" xmlns="http://www.w3.org/2000/svg">
<path d="M641 179C641 267.366 569.366 339 481 339C392.634 339 321 267.366 321 179C321 90.6344 392.634 19 481 19C569.366 19 641 90.6344 641 179ZM372.2 179C372.2 239.089 420.911 287.8 481 287.8C541.089 287.8 589.8 239.089 589.8 179C589.8 118.911 541.089 70.2 481 70.2C420.911 70.2 372.2 118.911 372.2 179Z" fill="white" fill-opacity="0.1"/>
<path d="M481 19C508.376 19 535.294 26.0242 559.179 39.4006C583.065 52.7771 603.119 72.0584 617.422 95.4002C631.726 118.742 639.802 145.364 640.877 172.718C641.951 200.073 635.989 227.246 623.561 251.638C611.133 276.031 592.654 296.826 569.891 312.035C547.129 327.244 520.845 336.359 493.553 338.507C466.262 340.655 438.876 335.764 414.014 324.303C389.153 312.842 367.648 295.193 351.557 273.046L392.979 242.951C403.921 258.011 418.544 270.012 435.45 277.806C452.355 285.6 470.978 288.925 489.536 287.465C508.095 286.004 525.968 279.806 541.446 269.464C556.924 259.122 569.49 244.981 577.942 228.394C586.393 211.807 590.447 193.33 589.716 174.729C588.985 156.127 583.494 138.025 573.767 122.152C564.041 106.28 550.404 93.1684 534.162 84.0724C517.92 74.9764 499.616 70.2 481 70.2V19Z" fill="url(#paint0_angular_4307_2193)"/>
<path d="M385.809 50.3969C412.968 30.2946 445.793 19.3061 479.58 19.0063L480.035 70.2043C457.059 70.4081 434.738 77.8803 416.27 91.5499L385.809 50.3969Z" fill="url(#paint1_angular_4307_2193)"/>
<path d="M328.299 131.224C338.389 98.9769 358.428 70.7516 385.545 50.5934L416.09 91.6835C397.651 105.391 384.024 124.584 377.164 146.512L328.299 131.224Z" fill="url(#paint2_angular_4307_2193)"/>
<path d="M351.614 273.123C336.76 252.705 326.95 229.061 322.985 204.124C319.02 179.188 321.013 153.667 328.801 129.648L377.505 145.441C372.209 161.773 370.854 179.128 373.55 196.084C376.246 213.041 382.917 229.119 393.017 243.004L351.614 273.123Z" fill="url(#paint3_angular_4307_2193)"/>
<g filter="url(#filter0_dddd_4307_2193)">
<path d="M451.542 183V176.92H439.002V171.98L451.162 154.69H457.432V171.98H461.802V176.92H457.432V183H451.542ZM443.296 174.108L442.194 171.98H451.542V159.25L453.024 159.706L443.296 174.108ZM476.246 183.456C473.992 183.456 472.003 182.848 470.28 181.632C468.583 180.416 467.253 178.706 466.29 176.502C465.328 174.298 464.846 171.739 464.846 168.826C464.846 165.887 465.315 163.329 466.252 161.15C467.215 158.971 468.545 157.274 470.242 156.058C471.965 154.842 473.954 154.234 476.208 154.234C478.514 154.234 480.515 154.842 482.212 156.058C483.935 157.274 485.265 158.984 486.202 161.188C487.165 163.367 487.646 165.913 487.646 168.826C487.646 171.739 487.165 174.298 486.202 176.502C485.265 178.681 483.935 180.391 482.212 181.632C480.515 182.848 478.526 183.456 476.246 183.456ZM476.284 178.136C477.45 178.136 478.438 177.769 479.248 177.034C480.059 176.299 480.68 175.235 481.11 173.842C481.541 172.449 481.756 170.777 481.756 168.826C481.756 166.875 481.541 165.216 481.11 163.848C480.68 162.455 480.046 161.391 479.21 160.656C478.4 159.921 477.399 159.554 476.208 159.554C475.043 159.554 474.055 159.921 473.244 160.656C472.434 161.391 471.813 162.455 471.382 163.848C470.952 165.216 470.736 166.875 470.736 168.826C470.736 170.751 470.952 172.411 471.382 173.804C471.813 175.197 472.434 176.274 473.244 177.034C474.08 177.769 475.094 178.136 476.284 178.136ZM492.062 183V154.69H497.762L508.364 168.75H505.704L516.002 154.69H521.702V183H515.812V161.188L518.168 161.72L507.262 175.78H506.502L495.976 161.72L497.952 161.188V183H492.062Z" fill="#01060F"/>
</g>
<g filter="url(#filter1_dddd_4307_2193)">
<path d="M431.684 217V208.25H428.982V206.57H436.262V208.25H433.602V217H431.684ZM440.01 217.168C439.263 217.168 438.582 216.995 437.966 216.65C437.359 216.305 436.874 215.833 436.51 215.236C436.155 214.639 435.978 213.957 435.978 213.192C435.978 212.427 436.155 211.745 436.51 211.148C436.874 210.551 437.359 210.079 437.966 209.734C438.572 209.389 439.254 209.216 440.01 209.216C440.756 209.216 441.433 209.389 442.04 209.734C442.646 210.079 443.127 210.551 443.482 211.148C443.846 211.736 444.028 212.417 444.028 213.192C444.028 213.957 443.846 214.639 443.482 215.236C443.118 215.833 442.632 216.305 442.026 216.65C441.419 216.995 440.747 217.168 440.01 217.168ZM440.01 215.488C440.42 215.488 440.78 215.39 441.088 215.194C441.405 214.998 441.652 214.727 441.83 214.382C442.016 214.027 442.11 213.631 442.11 213.192C442.11 212.744 442.016 212.352 441.83 212.016C441.652 211.671 441.405 211.4 441.088 211.204C440.78 210.999 440.42 210.896 440.01 210.896C439.59 210.896 439.221 210.999 438.904 211.204C438.586 211.4 438.334 211.671 438.148 212.016C437.97 212.352 437.882 212.744 437.882 213.192C437.882 213.631 437.97 214.027 438.148 214.382C438.334 214.727 438.586 214.998 438.904 215.194C439.221 215.39 439.59 215.488 440.01 215.488ZM445.418 217V206.402H447.252V213.346L446.552 213.136L450.136 209.384H452.418L449.604 212.45L452.474 217H450.374L447.882 213.052L448.974 212.828L446.678 215.292L447.252 214.172V217H445.418ZM456.974 217.168C456.19 217.168 455.504 216.991 454.916 216.636C454.328 216.281 453.87 215.801 453.544 215.194C453.217 214.587 453.054 213.915 453.054 213.178C453.054 212.413 453.217 211.736 453.544 211.148C453.88 210.551 454.332 210.079 454.902 209.734C455.48 209.389 456.124 209.216 456.834 209.216C457.431 209.216 457.954 209.314 458.402 209.51C458.859 209.706 459.246 209.977 459.564 210.322C459.881 210.667 460.124 211.064 460.292 211.512C460.46 211.951 460.544 212.427 460.544 212.94C460.544 213.071 460.534 213.206 460.516 213.346C460.506 213.486 460.483 213.607 460.446 213.71H454.566V212.31H459.41L458.542 212.968C458.626 212.539 458.602 212.156 458.472 211.82C458.35 211.484 458.145 211.218 457.856 211.022C457.576 210.826 457.235 210.728 456.834 210.728C456.451 210.728 456.11 210.826 455.812 211.022C455.513 211.209 455.284 211.489 455.126 211.862C454.976 212.226 454.92 212.669 454.958 213.192C454.92 213.659 454.981 214.074 455.14 214.438C455.308 214.793 455.55 215.068 455.868 215.264C456.194 215.46 456.568 215.558 456.988 215.558C457.408 215.558 457.762 215.469 458.052 215.292C458.35 215.115 458.584 214.877 458.752 214.578L460.236 215.306C460.086 215.67 459.853 215.992 459.536 216.272C459.218 216.552 458.84 216.771 458.402 216.93C457.972 217.089 457.496 217.168 456.974 217.168ZM461.934 217V209.384H463.656V210.882L463.516 210.616C463.693 210.159 463.983 209.813 464.384 209.58C464.795 209.337 465.271 209.216 465.812 209.216C466.372 209.216 466.867 209.337 467.296 209.58C467.735 209.823 468.075 210.163 468.318 210.602C468.561 211.031 468.682 211.531 468.682 212.1V217H466.848V212.534C466.848 212.198 466.783 211.909 466.652 211.666C466.521 211.423 466.339 211.237 466.106 211.106C465.882 210.966 465.616 210.896 465.308 210.896C465.009 210.896 464.743 210.966 464.51 211.106C464.277 211.237 464.095 211.423 463.964 211.666C463.833 211.909 463.768 212.198 463.768 212.534V217H461.934ZM473.131 217.168C472.319 217.168 471.61 216.977 471.003 216.594C470.406 216.202 469.995 215.675 469.771 215.012L471.143 214.354C471.339 214.783 471.61 215.119 471.955 215.362C472.31 215.605 472.702 215.726 473.131 215.726C473.467 215.726 473.733 215.651 473.929 215.502C474.125 215.353 474.223 215.157 474.223 214.914C474.223 214.765 474.181 214.643 474.097 214.55C474.022 214.447 473.915 214.363 473.775 214.298C473.644 214.223 473.5 214.163 473.341 214.116L472.095 213.766C471.451 213.579 470.961 213.295 470.625 212.912C470.298 212.529 470.135 212.077 470.135 211.554C470.135 211.087 470.252 210.681 470.485 210.336C470.728 209.981 471.059 209.706 471.479 209.51C471.908 209.314 472.398 209.216 472.949 209.216C473.668 209.216 474.302 209.389 474.853 209.734C475.404 210.079 475.796 210.565 476.029 211.19L474.629 211.848C474.498 211.503 474.279 211.227 473.971 211.022C473.663 210.817 473.318 210.714 472.935 210.714C472.627 210.714 472.384 210.784 472.207 210.924C472.03 211.064 471.941 211.246 471.941 211.47C471.941 211.61 471.978 211.731 472.053 211.834C472.128 211.937 472.23 212.021 472.361 212.086C472.501 212.151 472.66 212.212 472.837 212.268L474.055 212.632C474.68 212.819 475.161 213.099 475.497 213.472C475.842 213.845 476.015 214.303 476.015 214.844C476.015 215.301 475.894 215.707 475.651 216.062C475.408 216.407 475.072 216.678 474.643 216.874C474.214 217.07 473.71 217.168 473.131 217.168ZM480.067 217V206.57H487.025V208.25H481.971V211.134H486.395V212.814H481.971V217H480.067ZM491.676 217.168C490.929 217.168 490.248 216.995 489.632 216.65C489.025 216.305 488.54 215.833 488.176 215.236C487.821 214.639 487.644 213.957 487.644 213.192C487.644 212.427 487.821 211.745 488.176 211.148C488.54 210.551 489.025 210.079 489.632 209.734C490.238 209.389 490.92 209.216 491.676 209.216C492.422 209.216 493.099 209.389 493.706 209.734C494.312 210.079 494.793 210.551 495.148 211.148C495.512 211.736 495.694 212.417 495.694 213.192C495.694 213.957 495.512 214.639 495.148 215.236C494.784 215.833 494.298 216.305 493.692 216.65C493.085 216.995 492.413 217.168 491.676 217.168ZM491.676 215.488C492.086 215.488 492.446 215.39 492.754 215.194C493.071 214.998 493.318 214.727 493.496 214.382C493.682 214.027 493.776 213.631 493.776 213.192C493.776 212.744 493.682 212.352 493.496 212.016C493.318 211.671 493.071 211.4 492.754 211.204C492.446 210.999 492.086 210.896 491.676 210.896C491.256 210.896 490.887 210.999 490.57 211.204C490.252 211.4 490 211.671 489.814 212.016C489.636 212.352 489.548 212.744 489.548 213.192C489.548 213.631 489.636 214.027 489.814 214.382C490 214.727 490.252 214.998 490.57 215.194C490.887 215.39 491.256 215.488 491.676 215.488ZM497.084 217V209.384H498.806V211.078L498.666 210.826C498.844 210.257 499.119 209.86 499.492 209.636C499.875 209.412 500.332 209.3 500.864 209.3H501.312V210.924H500.654C500.132 210.924 499.712 211.087 499.394 211.414C499.077 211.731 498.918 212.179 498.918 212.758V217H497.084ZM508.687 217.168C508.024 217.168 507.408 217.047 506.839 216.804C506.279 216.561 505.794 216.225 505.383 215.796C504.982 215.357 504.688 214.849 504.501 214.27L506.083 213.584C506.335 214.181 506.699 214.653 507.175 214.998C507.651 215.334 508.188 215.502 508.785 215.502C509.121 215.502 509.41 215.451 509.653 215.348C509.905 215.236 510.096 215.087 510.227 214.9C510.367 214.713 510.437 214.489 510.437 214.228C510.437 213.92 510.344 213.668 510.157 213.472C509.98 213.267 509.709 213.108 509.345 212.996L507.343 212.352C506.531 212.1 505.92 211.722 505.509 211.218C505.098 210.714 504.893 210.121 504.893 209.44C504.893 208.843 505.038 208.315 505.327 207.858C505.626 207.401 506.036 207.046 506.559 206.794C507.091 206.533 507.698 206.402 508.379 206.402C509.004 206.402 509.578 206.514 510.101 206.738C510.624 206.953 511.072 207.256 511.445 207.648C511.828 208.031 512.112 208.483 512.299 209.006L510.731 209.706C510.526 209.183 510.218 208.782 509.807 208.502C509.396 208.213 508.92 208.068 508.379 208.068C508.062 208.068 507.782 208.124 507.539 208.236C507.296 208.339 507.105 208.488 506.965 208.684C506.834 208.871 506.769 209.095 506.769 209.356C506.769 209.645 506.862 209.902 507.049 210.126C507.236 210.341 507.52 210.509 507.903 210.63L509.821 211.232C510.652 211.503 511.272 211.876 511.683 212.352C512.103 212.828 512.313 213.416 512.313 214.116C512.313 214.713 512.159 215.241 511.851 215.698C511.543 216.155 511.118 216.515 510.577 216.776C510.036 217.037 509.406 217.168 508.687 217.168ZM516.115 217.168C515.583 217.168 515.121 217.079 514.729 216.902C514.337 216.725 514.034 216.473 513.819 216.146C513.605 215.81 513.497 215.423 513.497 214.984C513.497 214.564 513.591 214.191 513.777 213.864C513.964 213.528 514.253 213.248 514.645 213.024C515.037 212.8 515.532 212.641 516.129 212.548L518.621 212.142V213.542L516.479 213.906C516.115 213.971 515.845 214.088 515.667 214.256C515.49 214.424 515.401 214.643 515.401 214.914C515.401 215.175 515.499 215.385 515.695 215.544C515.901 215.693 516.153 215.768 516.451 215.768C516.834 215.768 517.17 215.689 517.459 215.53C517.758 215.362 517.987 215.133 518.145 214.844C518.313 214.555 518.397 214.237 518.397 213.892V211.932C518.397 211.605 518.267 211.335 518.005 211.12C517.753 210.896 517.417 210.784 516.997 210.784C516.605 210.784 516.255 210.891 515.947 211.106C515.649 211.311 515.429 211.587 515.289 211.932L513.791 211.204C513.941 210.803 514.174 210.457 514.491 210.168C514.818 209.869 515.201 209.636 515.639 209.468C516.078 209.3 516.554 209.216 517.067 209.216C517.693 209.216 518.243 209.333 518.719 209.566C519.195 209.79 519.564 210.107 519.825 210.518C520.096 210.919 520.231 211.391 520.231 211.932V217H518.495V215.698L518.887 215.67C518.691 215.997 518.458 216.272 518.187 216.496C517.917 216.711 517.609 216.879 517.263 217C516.918 217.112 516.535 217.168 516.115 217.168ZM521.926 217V206.402H523.76V217H521.926ZM529.066 217.168C528.282 217.168 527.596 216.991 527.008 216.636C526.42 216.281 525.962 215.801 525.636 215.194C525.309 214.587 525.146 213.915 525.146 213.178C525.146 212.413 525.309 211.736 525.636 211.148C525.972 210.551 526.424 210.079 526.994 209.734C527.572 209.389 528.216 209.216 528.926 209.216C529.523 209.216 530.046 209.314 530.494 209.51C530.951 209.706 531.338 209.977 531.656 210.322C531.973 210.667 532.216 211.064 532.384 211.512C532.552 211.951 532.636 212.427 532.636 212.94C532.636 213.071 532.626 213.206 532.608 213.346C532.598 213.486 532.575 213.607 532.538 213.71H526.658V212.31H531.502L530.634 212.968C530.718 212.539 530.694 212.156 530.564 211.82C530.442 211.484 530.237 211.218 529.948 211.022C529.668 210.826 529.327 210.728 528.926 210.728C528.543 210.728 528.202 210.826 527.904 211.022C527.605 211.209 527.376 211.489 527.218 211.862C527.068 212.226 527.012 212.669 527.05 213.192C527.012 213.659 527.073 214.074 527.232 214.438C527.4 214.793 527.642 215.068 527.96 215.264C528.286 215.46 528.66 215.558 529.08 215.558C529.5 215.558 529.854 215.469 530.144 215.292C530.442 215.115 530.676 214.877 530.844 214.578L532.328 215.306C532.178 215.67 531.945 215.992 531.628 216.272C531.31 216.552 530.932 216.771 530.494 216.93C530.064 217.089 529.588 217.168 529.066 217.168Z" fill="#01060F"/>
</g>
<path opacity="0.3" d="M641 179L832 179" stroke="url(#paint4_linear_4307_2193)" stroke-width="1.5"/>
<path d="M701.008 171V160.57H704.9C705.609 160.57 706.235 160.701 706.776 160.962C707.327 161.214 707.756 161.587 708.064 162.082C708.372 162.567 708.526 163.16 708.526 163.86C708.526 164.551 708.367 165.143 708.05 165.638C707.742 166.123 707.317 166.497 706.776 166.758C706.235 167.019 705.609 167.15 704.9 167.15H702.912V171H701.008ZM702.912 165.47H704.928C705.273 165.47 705.572 165.405 705.824 165.274C706.076 165.134 706.272 164.943 706.412 164.7C706.552 164.457 706.622 164.177 706.622 163.86C706.622 163.533 706.552 163.253 706.412 163.02C706.272 162.777 706.076 162.591 705.824 162.46C705.572 162.32 705.273 162.25 704.928 162.25H702.912V165.47ZM709.932 171V163.384H711.654V165.078L711.514 164.826C711.691 164.257 711.967 163.86 712.34 163.636C712.723 163.412 713.18 163.3 713.712 163.3H714.16V164.924H713.502C712.979 164.924 712.559 165.087 712.242 165.414C711.925 165.731 711.766 166.179 711.766 166.758V171H709.932ZM718.78 171.168C717.996 171.168 717.31 170.991 716.722 170.636C716.134 170.281 715.677 169.801 715.35 169.194C715.024 168.587 714.86 167.915 714.86 167.178C714.86 166.413 715.024 165.736 715.35 165.148C715.686 164.551 716.139 164.079 716.708 163.734C717.287 163.389 717.931 163.216 718.64 163.216C719.238 163.216 719.76 163.314 720.208 163.51C720.666 163.706 721.053 163.977 721.37 164.322C721.688 164.667 721.93 165.064 722.098 165.512C722.266 165.951 722.35 166.427 722.35 166.94C722.35 167.071 722.341 167.206 722.322 167.346C722.313 167.486 722.29 167.607 722.252 167.71H716.372V166.31H721.216L720.348 166.968C720.432 166.539 720.409 166.156 720.278 165.82C720.157 165.484 719.952 165.218 719.662 165.022C719.382 164.826 719.042 164.728 718.64 164.728C718.258 164.728 717.917 164.826 717.618 165.022C717.32 165.209 717.091 165.489 716.932 165.862C716.783 166.226 716.727 166.669 716.764 167.192C716.727 167.659 716.788 168.074 716.946 168.438C717.114 168.793 717.357 169.068 717.674 169.264C718.001 169.46 718.374 169.558 718.794 169.558C719.214 169.558 719.569 169.469 719.858 169.292C720.157 169.115 720.39 168.877 720.558 168.578L722.042 169.306C721.893 169.67 721.66 169.992 721.342 170.272C721.025 170.552 720.647 170.771 720.208 170.93C719.779 171.089 719.303 171.168 718.78 171.168ZM724.119 168.004V166.394H730.069V168.004H724.119ZM737.189 171.168C736.443 171.168 735.752 171.033 735.117 170.762C734.492 170.491 733.941 170.113 733.465 169.628C732.999 169.143 732.635 168.573 732.373 167.92C732.112 167.267 731.981 166.553 731.981 165.778C731.981 165.003 732.107 164.289 732.359 163.636C732.621 162.973 732.985 162.404 733.451 161.928C733.927 161.443 734.483 161.069 735.117 160.808C735.752 160.537 736.443 160.402 737.189 160.402C737.936 160.402 738.603 160.528 739.191 160.78C739.789 161.032 740.293 161.368 740.703 161.788C741.114 162.199 741.408 162.651 741.585 163.146L739.877 163.944C739.681 163.421 739.35 162.992 738.883 162.656C738.417 162.311 737.852 162.138 737.189 162.138C736.536 162.138 735.957 162.292 735.453 162.6C734.959 162.908 734.571 163.333 734.291 163.874C734.021 164.415 733.885 165.05 733.885 165.778C733.885 166.506 734.021 167.145 734.291 167.696C734.571 168.237 734.959 168.662 735.453 168.97C735.957 169.278 736.536 169.432 737.189 169.432C737.852 169.432 738.417 169.264 738.883 168.928C739.35 168.583 739.681 168.149 739.877 167.626L741.585 168.424C741.408 168.919 741.114 169.376 740.703 169.796C740.293 170.207 739.789 170.538 739.191 170.79C738.603 171.042 737.936 171.168 737.189 171.168ZM743.131 171V160.57H750.061V162.25H745.035V164.924H749.781V166.604H745.035V169.32H750.061V171H743.131ZM750.603 171L754.019 165.75L750.631 160.57H752.815L755.587 164.812H754.579L757.337 160.57H759.521L756.147 165.75L759.549 171H757.365L754.579 166.702H755.587L752.787 171H750.603ZM765.049 171V162.25H762.347V160.57H769.627V162.25H766.967V171H765.049ZM773.375 171.168C772.628 171.168 771.947 170.995 771.331 170.65C770.724 170.305 770.239 169.833 769.875 169.236C769.52 168.639 769.343 167.957 769.343 167.192C769.343 166.427 769.52 165.745 769.875 165.148C770.239 164.551 770.724 164.079 771.331 163.734C771.938 163.389 772.619 163.216 773.375 163.216C774.122 163.216 774.798 163.389 775.405 163.734C776.012 164.079 776.492 164.551 776.847 165.148C777.211 165.736 777.393 166.417 777.393 167.192C777.393 167.957 777.211 168.639 776.847 169.236C776.483 169.833 775.998 170.305 775.391 170.65C774.784 170.995 774.112 171.168 773.375 171.168ZM773.375 169.488C773.786 169.488 774.145 169.39 774.453 169.194C774.77 168.998 775.018 168.727 775.195 168.382C775.382 168.027 775.475 167.631 775.475 167.192C775.475 166.744 775.382 166.352 775.195 166.016C775.018 165.671 774.77 165.4 774.453 165.204C774.145 164.999 773.786 164.896 773.375 164.896C772.955 164.896 772.586 164.999 772.269 165.204C771.952 165.4 771.7 165.671 771.513 166.016C771.336 166.352 771.247 166.744 771.247 167.192C771.247 167.631 771.336 168.027 771.513 168.382C771.7 168.727 771.952 168.998 772.269 169.194C772.586 169.39 772.955 169.488 773.375 169.488ZM778.784 171V160.402H780.618V167.346L779.918 167.136L783.502 163.384H785.784L782.97 166.45L785.84 171H783.74L781.248 167.052L782.34 166.828L780.044 169.292L780.618 168.172V171H778.784ZM790.339 171.168C789.555 171.168 788.869 170.991 788.281 170.636C787.693 170.281 787.236 169.801 786.909 169.194C786.582 168.587 786.419 167.915 786.419 167.178C786.419 166.413 786.582 165.736 786.909 165.148C787.245 164.551 787.698 164.079 788.267 163.734C788.846 163.389 789.49 163.216 790.199 163.216C790.796 163.216 791.319 163.314 791.767 163.51C792.224 163.706 792.612 163.977 792.929 164.322C793.246 164.667 793.489 165.064 793.657 165.512C793.825 165.951 793.909 166.427 793.909 166.94C793.909 167.071 793.9 167.206 793.881 167.346C793.872 167.486 793.848 167.607 793.811 167.71H787.931V166.31H792.775L791.907 166.968C791.991 166.539 791.968 166.156 791.837 165.82C791.716 165.484 791.51 165.218 791.221 165.022C790.941 164.826 790.6 164.728 790.199 164.728C789.816 164.728 789.476 164.826 789.177 165.022C788.878 165.209 788.65 165.489 788.491 165.862C788.342 166.226 788.286 166.669 788.323 167.192C788.286 167.659 788.346 168.074 788.505 168.438C788.673 168.793 788.916 169.068 789.233 169.264C789.56 169.46 789.933 169.558 790.353 169.558C790.773 169.558 791.128 169.469 791.417 169.292C791.716 169.115 791.949 168.877 792.117 168.578L793.601 169.306C793.452 169.67 793.218 169.992 792.901 170.272C792.584 170.552 792.206 170.771 791.767 170.93C791.338 171.089 790.862 171.168 790.339 171.168ZM795.299 171V163.384H797.021V164.882L796.881 164.616C797.059 164.159 797.348 163.813 797.749 163.58C798.16 163.337 798.636 163.216 799.177 163.216C799.737 163.216 800.232 163.337 800.661 163.58C801.1 163.823 801.441 164.163 801.683 164.602C801.926 165.031 802.047 165.531 802.047 166.1V171H800.213V166.534C800.213 166.198 800.148 165.909 800.017 165.666C799.887 165.423 799.705 165.237 799.471 165.106C799.247 164.966 798.981 164.896 798.673 164.896C798.375 164.896 798.109 164.966 797.875 165.106C797.642 165.237 797.46 165.423 797.329 165.666C797.199 165.909 797.133 166.198 797.133 166.534V171H795.299ZM809.964 171.168C809.302 171.168 808.686 171.047 808.116 170.804C807.556 170.561 807.071 170.225 806.66 169.796C806.259 169.357 805.965 168.849 805.778 168.27L807.36 167.584C807.612 168.181 807.976 168.653 808.452 168.998C808.928 169.334 809.465 169.502 810.062 169.502C810.398 169.502 810.688 169.451 810.93 169.348C811.182 169.236 811.374 169.087 811.504 168.9C811.644 168.713 811.714 168.489 811.714 168.228C811.714 167.92 811.621 167.668 811.434 167.472C811.257 167.267 810.986 167.108 810.622 166.996L808.62 166.352C807.808 166.1 807.197 165.722 806.786 165.218C806.376 164.714 806.17 164.121 806.17 163.44C806.17 162.843 806.315 162.315 806.604 161.858C806.903 161.401 807.314 161.046 807.836 160.794C808.368 160.533 808.975 160.402 809.656 160.402C810.282 160.402 810.856 160.514 811.378 160.738C811.901 160.953 812.349 161.256 812.722 161.648C813.105 162.031 813.39 162.483 813.576 163.006L812.008 163.706C811.803 163.183 811.495 162.782 811.084 162.502C810.674 162.213 810.198 162.068 809.656 162.068C809.339 162.068 809.059 162.124 808.816 162.236C808.574 162.339 808.382 162.488 808.242 162.684C808.112 162.871 808.046 163.095 808.046 163.356C808.046 163.645 808.14 163.902 808.326 164.126C808.513 164.341 808.798 164.509 809.18 164.63L811.098 165.232C811.929 165.503 812.55 165.876 812.96 166.352C813.38 166.828 813.59 167.416 813.59 168.116C813.59 168.713 813.436 169.241 813.128 169.698C812.82 170.155 812.396 170.515 811.854 170.776C811.313 171.037 810.683 171.168 809.964 171.168ZM817.393 171.168C816.861 171.168 816.399 171.079 816.007 170.902C815.615 170.725 815.311 170.473 815.097 170.146C814.882 169.81 814.775 169.423 814.775 168.984C814.775 168.564 814.868 168.191 815.055 167.864C815.241 167.528 815.531 167.248 815.923 167.024C816.315 166.8 816.809 166.641 817.407 166.548L819.899 166.142V167.542L817.757 167.906C817.393 167.971 817.122 168.088 816.945 168.256C816.767 168.424 816.679 168.643 816.679 168.914C816.679 169.175 816.777 169.385 816.973 169.544C817.178 169.693 817.43 169.768 817.729 169.768C818.111 169.768 818.447 169.689 818.737 169.53C819.035 169.362 819.264 169.133 819.423 168.844C819.591 168.555 819.675 168.237 819.675 167.892V165.932C819.675 165.605 819.544 165.335 819.283 165.12C819.031 164.896 818.695 164.784 818.275 164.784C817.883 164.784 817.533 164.891 817.225 165.106C816.926 165.311 816.707 165.587 816.567 165.932L815.069 165.204C815.218 164.803 815.451 164.457 815.769 164.168C816.095 163.869 816.478 163.636 816.917 163.468C817.355 163.3 817.831 163.216 818.345 163.216C818.97 163.216 819.521 163.333 819.997 163.566C820.473 163.79 820.841 164.107 821.103 164.518C821.373 164.919 821.509 165.391 821.509 165.932V171H819.773V169.698L820.165 169.67C819.969 169.997 819.735 170.272 819.465 170.496C819.194 170.711 818.886 170.879 818.541 171C818.195 171.112 817.813 171.168 817.393 171.168ZM823.204 171V160.402H825.038V171H823.204ZM830.343 171.168C829.559 171.168 828.873 170.991 828.285 170.636C827.697 170.281 827.24 169.801 826.913 169.194C826.586 168.587 826.423 167.915 826.423 167.178C826.423 166.413 826.586 165.736 826.913 165.148C827.249 164.551 827.702 164.079 828.271 163.734C828.85 163.389 829.494 163.216 830.203 163.216C830.8 163.216 831.323 163.314 831.771 163.51C832.228 163.706 832.616 163.977 832.933 164.322C833.25 164.667 833.493 165.064 833.661 165.512C833.829 165.951 833.913 166.427 833.913 166.94C833.913 167.071 833.904 167.206 833.885 167.346C833.876 167.486 833.852 167.607 833.815 167.71H827.935V166.31H832.779L831.911 166.968C831.995 166.539 831.972 166.156 831.841 165.82C831.72 165.484 831.514 165.218 831.225 165.022C830.945 164.826 830.604 164.728 830.203 164.728C829.82 164.728 829.48 164.826 829.181 165.022C828.882 165.209 828.654 165.489 828.495 165.862C828.346 166.226 828.29 166.669 828.327 167.192C828.29 167.659 828.35 168.074 828.509 168.438C828.677 168.793 828.92 169.068 829.237 169.264C829.564 169.46 829.937 169.558 830.357 169.558C830.777 169.558 831.132 169.469 831.421 169.292C831.72 169.115 831.953 168.877 832.121 168.578L833.605 169.306C833.456 169.67 833.222 169.992 832.905 170.272C832.588 170.552 832.21 170.771 831.771 170.93C831.342 171.089 830.866 171.168 830.343 171.168Z" fill="#A795C6"/>
<g filter="url(#filter2_dddd_4307_2193)">
<path d="M704.91 198.192C704.131 198.192 703.438 198.021 702.83 197.68C702.222 197.339 701.742 196.869 701.39 196.272C701.048 195.675 700.878 194.997 700.878 194.24C700.878 193.845 700.92 193.451 701.006 193.056C701.091 192.661 701.24 192.251 701.454 191.824C701.678 191.397 701.976 190.939 702.35 190.448L705.678 186.08H707.934L703.854 191.36L703.534 191.152C703.683 190.981 703.843 190.848 704.014 190.752C704.195 190.656 704.382 190.587 704.574 190.544C704.776 190.501 704.99 190.48 705.214 190.48C705.928 190.48 706.568 190.645 707.134 190.976C707.699 191.307 708.142 191.755 708.462 192.32C708.792 192.885 708.958 193.536 708.958 194.272C708.958 195.019 708.782 195.691 708.43 196.288C708.078 196.875 707.598 197.339 706.99 197.68C706.392 198.021 705.699 198.192 704.91 198.192ZM704.91 196.512C705.326 196.512 705.694 196.416 706.014 196.224C706.334 196.032 706.59 195.771 706.782 195.44C706.974 195.099 707.07 194.715 707.07 194.288C707.07 193.851 706.974 193.467 706.782 193.136C706.6 192.805 706.344 192.549 706.014 192.368C705.694 192.176 705.326 192.08 704.91 192.08C704.504 192.08 704.136 192.176 703.806 192.368C703.486 192.549 703.23 192.805 703.038 193.136C702.846 193.467 702.75 193.851 702.75 194.288C702.75 194.715 702.846 195.099 703.038 195.44C703.23 195.771 703.486 196.032 703.806 196.224C704.136 196.416 704.504 196.512 704.91 196.512ZM714.487 198.192C713.858 198.192 713.266 198.08 712.711 197.856C712.156 197.621 711.676 197.296 711.271 196.88C710.866 196.464 710.578 195.963 710.407 195.376L711.991 194.768C712.194 195.333 712.524 195.765 712.983 196.064C713.442 196.363 713.943 196.512 714.487 196.512C714.935 196.512 715.33 196.411 715.671 196.208C716.012 196.005 716.279 195.728 716.471 195.376C716.674 195.024 716.775 194.624 716.775 194.176C716.775 193.717 716.674 193.317 716.471 192.976C716.279 192.624 716.012 192.352 715.671 192.16C715.33 191.957 714.935 191.856 714.487 191.856C714.039 191.856 713.628 191.957 713.255 192.16C712.882 192.363 712.61 192.635 712.439 192.976L710.919 192.64L711.847 186.08H718.199V187.68H712.583L713.303 186.896L712.615 191.92L712.023 191.52C712.343 191.072 712.732 190.747 713.191 190.544C713.65 190.341 714.172 190.24 714.759 190.24C715.538 190.24 716.215 190.416 716.791 190.768C717.378 191.109 717.831 191.579 718.151 192.176C718.482 192.763 718.647 193.429 718.647 194.176C718.647 194.933 718.466 195.616 718.103 196.224C717.74 196.832 717.244 197.312 716.615 197.664C715.996 198.016 715.287 198.192 714.487 198.192ZM721.915 198L731.611 186.08H733.627L723.931 198H721.915ZM723.739 192.128C723.152 192.128 722.624 191.989 722.155 191.712C721.686 191.424 721.307 191.045 721.019 190.576C720.742 190.107 720.603 189.584 720.603 189.008C720.603 188.432 720.742 187.909 721.019 187.44C721.307 186.96 721.686 186.581 722.155 186.304C722.624 186.027 723.152 185.888 723.739 185.888C724.326 185.888 724.854 186.027 725.323 186.304C725.792 186.581 726.166 186.96 726.443 187.44C726.72 187.909 726.859 188.432 726.859 189.008C726.859 189.584 726.72 190.107 726.443 190.576C726.166 191.045 725.792 191.424 725.323 191.712C724.854 191.989 724.326 192.128 723.739 192.128ZM723.739 190.672C724.07 190.672 724.352 190.592 724.587 190.432C724.832 190.272 725.019 190.064 725.147 189.808C725.275 189.552 725.339 189.285 725.339 189.008C725.339 188.72 725.275 188.453 725.147 188.208C725.019 187.952 724.832 187.744 724.587 187.584C724.352 187.424 724.07 187.344 723.739 187.344C723.419 187.344 723.136 187.424 722.891 187.584C722.646 187.744 722.454 187.952 722.315 188.208C722.187 188.453 722.123 188.72 722.123 189.008C722.123 189.285 722.187 189.552 722.315 189.808C722.454 190.064 722.646 190.272 722.891 190.432C723.136 190.592 723.419 190.672 723.739 190.672ZM731.723 198.192C731.136 198.192 730.603 198.053 730.123 197.776C729.654 197.488 729.28 197.109 729.003 196.64C728.726 196.171 728.587 195.648 728.587 195.072C728.587 194.496 728.726 193.973 729.003 193.504C729.28 193.024 729.654 192.645 730.123 192.368C730.603 192.091 731.136 191.952 731.723 191.952C732.31 191.952 732.838 192.091 733.307 192.368C733.776 192.645 734.15 193.024 734.427 193.504C734.704 193.973 734.843 194.496 734.843 195.072C734.843 195.648 734.704 196.171 734.427 196.64C734.15 197.109 733.776 197.488 733.307 197.776C732.838 198.053 732.31 198.192 731.723 198.192ZM731.723 196.736C732.054 196.736 732.336 196.656 732.571 196.496C732.806 196.336 732.987 196.128 733.115 195.872C733.254 195.616 733.323 195.349 733.323 195.072C733.323 194.784 733.254 194.517 733.115 194.272C732.987 194.016 732.806 193.808 732.571 193.648C732.336 193.488 732.054 193.408 731.723 193.408C731.403 193.408 731.12 193.488 730.875 193.648C730.63 193.808 730.438 194.016 730.299 194.272C730.171 194.517 730.107 194.784 730.107 195.072C730.107 195.349 730.171 195.616 730.299 195.872C730.438 196.128 730.63 196.336 730.875 196.496C731.12 196.656 731.403 196.736 731.723 196.736Z" fill="#01060F"/>
</g>
<circle cx="641" cy="179" r="3" fill="#01060F"/>
<path opacity="0.3" d="M324 215L160 215" stroke="url(#paint5_linear_4307_2193)" stroke-width="1.5"/>
<path d="M161.008 207V196.57H162.912V205.32H167.378V207H161.008ZM168.456 207V199.384H170.29V207H168.456ZM168.456 198.53V196.57H170.29V198.53H168.456ZM177.849 209.8V205.53L178.143 205.894C177.882 206.305 177.518 206.622 177.051 206.846C176.584 207.061 176.076 207.168 175.525 207.168C174.788 207.168 174.13 206.995 173.551 206.65C172.972 206.295 172.515 205.815 172.179 205.208C171.843 204.601 171.675 203.929 171.675 203.192C171.675 202.445 171.843 201.773 172.179 201.176C172.515 200.579 172.972 200.103 173.551 199.748C174.139 199.393 174.792 199.216 175.511 199.216C176.09 199.216 176.603 199.333 177.051 199.566C177.508 199.79 177.868 200.107 178.129 200.518L177.947 200.896V199.384H179.683V209.8H177.849ZM175.721 205.488C176.141 205.488 176.51 205.39 176.827 205.194C177.144 204.998 177.392 204.727 177.569 204.382C177.756 204.037 177.849 203.64 177.849 203.192C177.849 202.753 177.756 202.361 177.569 202.016C177.392 201.661 177.144 201.386 176.827 201.19C176.51 200.994 176.141 200.896 175.721 200.896C175.31 200.896 174.942 200.999 174.615 201.204C174.288 201.4 174.032 201.671 173.845 202.016C173.668 202.352 173.579 202.744 173.579 203.192C173.579 203.64 173.668 204.037 173.845 204.382C174.032 204.727 174.288 204.998 174.615 205.194C174.942 205.39 175.31 205.488 175.721 205.488ZM184.105 207.168C183.517 207.168 183.004 207.037 182.565 206.776C182.136 206.515 181.804 206.151 181.571 205.684C181.347 205.217 181.235 204.671 181.235 204.046V199.384H183.069V203.892C183.069 204.209 183.13 204.489 183.251 204.732C183.382 204.965 183.564 205.152 183.797 205.292C184.04 205.423 184.31 205.488 184.609 205.488C184.908 205.488 185.174 205.423 185.407 205.292C185.64 205.152 185.822 204.961 185.953 204.718C186.084 204.475 186.149 204.186 186.149 203.85V199.384H187.983V207H186.247V205.502L186.401 205.768C186.224 206.235 185.93 206.585 185.519 206.818C185.118 207.051 184.646 207.168 184.105 207.168ZM189.688 207V199.384H191.522V207H189.688ZM189.688 198.53V196.57H191.522V198.53H189.688ZM196.757 207.168C196.02 207.168 195.362 206.995 194.783 206.65C194.205 206.295 193.747 205.815 193.411 205.208C193.075 204.601 192.907 203.929 192.907 203.192C192.907 202.445 193.075 201.773 193.411 201.176C193.747 200.579 194.205 200.103 194.783 199.748C195.371 199.393 196.025 199.216 196.743 199.216C197.322 199.216 197.835 199.333 198.283 199.566C198.741 199.79 199.1 200.107 199.361 200.518L199.081 200.896V196.402H200.915V207H199.179V205.53L199.375 205.894C199.114 206.305 198.75 206.622 198.283 206.846C197.817 207.061 197.308 207.168 196.757 207.168ZM196.953 205.488C197.373 205.488 197.742 205.39 198.059 205.194C198.377 204.998 198.624 204.727 198.801 204.382C198.988 204.037 199.081 203.64 199.081 203.192C199.081 202.753 198.988 202.361 198.801 202.016C198.624 201.661 198.377 201.386 198.059 201.19C197.742 200.994 197.373 200.896 196.953 200.896C196.543 200.896 196.174 200.999 195.847 201.204C195.521 201.4 195.264 201.671 195.077 202.016C194.9 202.352 194.811 202.744 194.811 203.192C194.811 203.64 194.9 204.037 195.077 204.382C195.264 204.727 195.521 204.998 195.847 205.194C196.174 205.39 196.543 205.488 196.953 205.488ZM202.622 207V199.384H204.456V207H202.622ZM202.622 198.53V196.57H204.456V198.53H202.622ZM209.621 207.084C208.762 207.084 208.095 206.851 207.619 206.384C207.152 205.908 206.919 205.241 206.919 204.382V201.022H205.603V199.384H205.743C206.116 199.384 206.406 199.286 206.611 199.09C206.816 198.894 206.919 198.609 206.919 198.236V197.648H208.753V199.384H210.503V201.022H208.753V204.284C208.753 204.536 208.795 204.751 208.879 204.928C208.972 205.105 209.112 205.241 209.299 205.334C209.495 205.427 209.742 205.474 210.041 205.474C210.106 205.474 210.181 205.469 210.265 205.46C210.358 205.451 210.447 205.441 210.531 205.432V207C210.4 207.019 210.251 207.037 210.083 207.056C209.915 207.075 209.761 207.084 209.621 207.084ZM212.856 210.094C212.651 210.094 212.45 210.075 212.254 210.038C212.058 210.01 211.881 209.959 211.722 209.884V208.344C211.843 208.372 211.988 208.4 212.156 208.428C212.333 208.456 212.497 208.47 212.646 208.47C213.066 208.47 213.369 208.372 213.556 208.176C213.752 207.98 213.925 207.723 214.074 207.406L214.578 206.23L214.55 207.77L211.232 199.384H213.206L215.53 205.572H214.83L217.14 199.384H219.128L215.81 207.77C215.614 208.265 215.376 208.685 215.096 209.03C214.816 209.375 214.489 209.637 214.116 209.814C213.752 210.001 213.332 210.094 212.856 210.094Z" fill="#A795C6"/>
<g filter="url(#filter3_dddd_4307_2193)">
<path d="M163.082 234V223.68H160.794V222.08H164.954V234H163.082ZM171.315 234.192C170.686 234.192 170.094 234.08 169.539 233.856C168.985 233.621 168.505 233.296 168.099 232.88C167.694 232.464 167.406 231.963 167.235 231.376L168.819 230.768C169.022 231.333 169.353 231.765 169.811 232.064C170.27 232.363 170.771 232.512 171.315 232.512C171.763 232.512 172.158 232.411 172.499 232.208C172.841 232.005 173.107 231.728 173.299 231.376C173.502 231.024 173.603 230.624 173.603 230.176C173.603 229.717 173.502 229.317 173.299 228.976C173.107 228.624 172.841 228.352 172.499 228.16C172.158 227.957 171.763 227.856 171.315 227.856C170.867 227.856 170.457 227.957 170.083 228.16C169.71 228.363 169.438 228.635 169.267 228.976L167.747 228.64L168.675 222.08H175.027V223.68H169.411L170.131 222.896L169.443 227.92L168.851 227.52C169.171 227.072 169.561 226.747 170.019 226.544C170.478 226.341 171.001 226.24 171.587 226.24C172.366 226.24 173.043 226.416 173.619 226.768C174.206 227.109 174.659 227.579 174.979 228.176C175.31 228.763 175.475 229.429 175.475 230.176C175.475 230.933 175.294 231.616 174.931 232.224C174.569 232.832 174.073 233.312 173.443 233.664C172.825 234.016 172.115 234.192 171.315 234.192ZM178.743 234L188.439 222.08H190.455L180.759 234H178.743ZM180.567 228.128C179.98 228.128 179.452 227.989 178.983 227.712C178.514 227.424 178.135 227.045 177.847 226.576C177.57 226.107 177.431 225.584 177.431 225.008C177.431 224.432 177.57 223.909 177.847 223.44C178.135 222.96 178.514 222.581 178.983 222.304C179.452 222.027 179.98 221.888 180.567 221.888C181.154 221.888 181.682 222.027 182.151 222.304C182.62 222.581 182.994 222.96 183.271 223.44C183.548 223.909 183.687 224.432 183.687 225.008C183.687 225.584 183.548 226.107 183.271 226.576C182.994 227.045 182.62 227.424 182.151 227.712C181.682 227.989 181.154 228.128 180.567 228.128ZM180.567 226.672C180.898 226.672 181.18 226.592 181.415 226.432C181.66 226.272 181.847 226.064 181.975 225.808C182.103 225.552 182.167 225.285 182.167 225.008C182.167 224.72 182.103 224.453 181.975 224.208C181.847 223.952 181.66 223.744 181.415 223.584C181.18 223.424 180.898 223.344 180.567 223.344C180.247 223.344 179.964 223.424 179.719 223.584C179.474 223.744 179.282 223.952 179.143 224.208C179.015 224.453 178.951 224.72 178.951 225.008C178.951 225.285 179.015 225.552 179.143 225.808C179.282 226.064 179.474 226.272 179.719 226.432C179.964 226.592 180.247 226.672 180.567 226.672ZM188.551 234.192C187.964 234.192 187.431 234.053 186.951 233.776C186.482 233.488 186.108 233.109 185.831 232.64C185.554 232.171 185.415 231.648 185.415 231.072C185.415 230.496 185.554 229.973 185.831 229.504C186.108 229.024 186.482 228.645 186.951 228.368C187.431 228.091 187.964 227.952 188.551 227.952C189.138 227.952 189.666 228.091 190.135 228.368C190.604 228.645 190.978 229.024 191.255 229.504C191.532 229.973 191.671 230.496 191.671 231.072C191.671 231.648 191.532 232.171 191.255 232.64C190.978 233.109 190.604 233.488 190.135 233.776C189.666 234.053 189.138 234.192 188.551 234.192ZM188.551 232.736C188.882 232.736 189.164 232.656 189.399 232.496C189.634 232.336 189.815 232.128 189.943 231.872C190.082 231.616 190.151 231.349 190.151 231.072C190.151 230.784 190.082 230.517 189.943 230.272C189.815 230.016 189.634 229.808 189.399 229.648C189.164 229.488 188.882 229.408 188.551 229.408C188.231 229.408 187.948 229.488 187.703 229.648C187.458 229.808 187.266 230.016 187.127 230.272C186.999 230.517 186.935 230.784 186.935 231.072C186.935 231.349 186.999 231.616 187.127 231.872C187.266 232.128 187.458 232.336 187.703 232.496C187.948 232.656 188.231 232.736 188.551 232.736Z" fill="#01060F"/>
</g>
<circle cx="325" cy="215" r="3" fill="#01060F"/>
<path opacity="0.3" d="M437 26L157 26" stroke="url(#paint6_linear_4307_2193)" stroke-width="1.5"/>
<path d="M158.008 18V7.57H159.912V16.32H164.378V18H158.008ZM165.456 18V10.384H167.29V18H165.456ZM165.456 9.53V7.57H167.29V9.53H165.456ZM174.849 20.8V16.53L175.143 16.894C174.882 17.3047 174.518 17.622 174.051 17.846C173.584 18.0607 173.076 18.168 172.525 18.168C171.788 18.168 171.13 17.9953 170.551 17.65C169.972 17.2953 169.515 16.8147 169.179 16.208C168.843 15.6013 168.675 14.9293 168.675 14.192C168.675 13.4453 168.843 12.7733 169.179 12.176C169.515 11.5787 169.972 11.1027 170.551 10.748C171.139 10.3933 171.792 10.216 172.511 10.216C173.09 10.216 173.603 10.3327 174.051 10.566C174.508 10.79 174.868 11.1073 175.129 11.518L174.947 11.896V10.384H176.683V20.8H174.849ZM172.721 16.488C173.141 16.488 173.51 16.39 173.827 16.194C174.144 15.998 174.392 15.7273 174.569 15.382C174.756 15.0367 174.849 14.64 174.849 14.192C174.849 13.7533 174.756 13.3613 174.569 13.016C174.392 12.6613 174.144 12.386 173.827 12.19C173.51 11.994 173.141 11.896 172.721 11.896C172.31 11.896 171.942 11.9987 171.615 12.204C171.288 12.4 171.032 12.6707 170.845 13.016C170.668 13.352 170.579 13.744 170.579 14.192C170.579 14.64 170.668 15.0367 170.845 15.382C171.032 15.7273 171.288 15.998 171.615 16.194C171.942 16.39 172.31 16.488 172.721 16.488ZM181.105 18.168C180.517 18.168 180.004 18.0373 179.565 17.776C179.136 17.5147 178.804 17.1507 178.571 16.684C178.347 16.2173 178.235 15.6713 178.235 15.046V10.384H180.069V14.892C180.069 15.2093 180.13 15.4893 180.251 15.732C180.382 15.9653 180.564 16.152 180.797 16.292C181.04 16.4227 181.31 16.488 181.609 16.488C181.908 16.488 182.174 16.4227 182.407 16.292C182.64 16.152 182.822 15.9607 182.953 15.718C183.084 15.4753 183.149 15.186 183.149 14.85V10.384H184.983V18H183.247V16.502L183.401 16.768C183.224 17.2347 182.93 17.5847 182.519 17.818C182.118 18.0513 181.646 18.168 181.105 18.168ZM186.688 18V10.384H188.522V18H186.688ZM186.688 9.53V7.57H188.522V9.53H186.688ZM193.757 18.168C193.02 18.168 192.362 17.9953 191.783 17.65C191.205 17.2953 190.747 16.8147 190.411 16.208C190.075 15.6013 189.907 14.9293 189.907 14.192C189.907 13.4453 190.075 12.7733 190.411 12.176C190.747 11.5787 191.205 11.1027 191.783 10.748C192.371 10.3933 193.025 10.216 193.743 10.216C194.322 10.216 194.835 10.3327 195.283 10.566C195.741 10.79 196.1 11.1073 196.361 11.518L196.081 11.896V7.402H197.915V18H196.179V16.53L196.375 16.894C196.114 17.3047 195.75 17.622 195.283 17.846C194.817 18.0607 194.308 18.168 193.757 18.168ZM193.953 16.488C194.373 16.488 194.742 16.39 195.059 16.194C195.377 15.998 195.624 15.7273 195.801 15.382C195.988 15.0367 196.081 14.64 196.081 14.192C196.081 13.7533 195.988 13.3613 195.801 13.016C195.624 12.6613 195.377 12.386 195.059 12.19C194.742 11.994 194.373 11.896 193.953 11.896C193.543 11.896 193.174 11.9987 192.847 12.204C192.521 12.4 192.264 12.6707 192.077 13.016C191.9 13.352 191.811 13.744 191.811 14.192C191.811 14.64 191.9 15.0367 192.077 15.382C192.264 15.7273 192.521 15.998 192.847 16.194C193.174 16.39 193.543 16.488 193.953 16.488ZM199.622 18V10.384H201.456V18H199.622ZM199.622 9.53V7.57H201.456V9.53H199.622ZM206.621 18.084C205.762 18.084 205.095 17.8507 204.619 17.384C204.152 16.908 203.919 16.2407 203.919 15.382V12.022H202.603V10.384H202.743C203.116 10.384 203.406 10.286 203.611 10.09C203.816 9.894 203.919 9.60933 203.919 9.236V8.648H205.753V10.384H207.503V12.022H205.753V15.284C205.753 15.536 205.795 15.7507 205.879 15.928C205.972 16.1053 206.112 16.2407 206.299 16.334C206.495 16.4273 206.742 16.474 207.041 16.474C207.106 16.474 207.181 16.4693 207.265 16.46C207.358 16.4507 207.447 16.4413 207.531 16.432V18C207.4 18.0187 207.251 18.0373 207.083 18.056C206.915 18.0747 206.761 18.084 206.621 18.084ZM209.856 21.094C209.651 21.094 209.45 21.0753 209.254 21.038C209.058 21.01 208.881 20.9587 208.722 20.884V19.344C208.843 19.372 208.988 19.4 209.156 19.428C209.333 19.456 209.497 19.47 209.646 19.47C210.066 19.47 210.369 19.372 210.556 19.176C210.752 18.98 210.925 18.7233 211.074 18.406L211.578 17.23L211.55 18.77L208.232 10.384H210.206L212.53 16.572H211.83L214.14 10.384H216.128L212.81 18.77C212.614 19.2647 212.376 19.6847 212.096 20.03C211.816 20.3753 211.489 20.6367 211.116 20.814C210.752 21.0007 210.332 21.094 209.856 21.094Z" fill="#A795C6"/>
<g filter="url(#filter4_dddd_4307_2193)">
<path d="M160.082 45V34.68H157.794V33.08H161.954V45H160.082ZM168.315 45.192C167.686 45.192 167.094 45.08 166.539 44.856C165.985 44.6213 165.505 44.296 165.099 43.88C164.694 43.464 164.406 42.9627 164.235 42.376L165.819 41.768C166.022 42.3333 166.353 42.7653 166.811 43.064C167.27 43.3627 167.771 43.512 168.315 43.512C168.763 43.512 169.158 43.4107 169.499 43.208C169.841 43.0053 170.107 42.728 170.299 42.376C170.502 42.024 170.603 41.624 170.603 41.176C170.603 40.7173 170.502 40.3173 170.299 39.976C170.107 39.624 169.841 39.352 169.499 39.16C169.158 38.9573 168.763 38.856 168.315 38.856C167.867 38.856 167.457 38.9573 167.083 39.16C166.71 39.3627 166.438 39.6347 166.267 39.976L164.747 39.64L165.675 33.08H172.027V34.68H166.411L167.131 33.896L166.443 38.92L165.851 38.52C166.171 38.072 166.561 37.7467 167.019 37.544C167.478 37.3413 168.001 37.24 168.587 37.24C169.366 37.24 170.043 37.416 170.619 37.768C171.206 38.1093 171.659 38.5787 171.979 39.176C172.31 39.7627 172.475 40.4293 172.475 41.176C172.475 41.9333 172.294 42.616 171.931 43.224C171.569 43.832 171.073 44.312 170.443 44.664C169.825 45.016 169.115 45.192 168.315 45.192ZM175.743 45L185.439 33.08H187.455L177.759 45H175.743ZM177.567 39.128C176.98 39.128 176.452 38.9893 175.983 38.712C175.514 38.424 175.135 38.0453 174.847 37.576C174.57 37.1067 174.431 36.584 174.431 36.008C174.431 35.432 174.57 34.9093 174.847 34.44C175.135 33.96 175.514 33.5813 175.983 33.304C176.452 33.0267 176.98 32.888 177.567 32.888C178.154 32.888 178.682 33.0267 179.151 33.304C179.62 33.5813 179.994 33.96 180.271 34.44C180.548 34.9093 180.687 35.432 180.687 36.008C180.687 36.584 180.548 37.1067 180.271 37.576C179.994 38.0453 179.62 38.424 179.151 38.712C178.682 38.9893 178.154 39.128 177.567 39.128ZM177.567 37.672C177.898 37.672 178.18 37.592 178.415 37.432C178.66 37.272 178.847 37.064 178.975 36.808C179.103 36.552 179.167 36.2853 179.167 36.008C179.167 35.72 179.103 35.4533 178.975 35.208C178.847 34.952 178.66 34.744 178.415 34.584C178.18 34.424 177.898 34.344 177.567 34.344C177.247 34.344 176.964 34.424 176.719 34.584C176.474 34.744 176.282 34.952 176.143 35.208C176.015 35.4533 175.951 35.72 175.951 36.008C175.951 36.2853 176.015 36.552 176.143 36.808C176.282 37.064 176.474 37.272 176.719 37.432C176.964 37.592 177.247 37.672 177.567 37.672ZM185.551 45.192C184.964 45.192 184.431 45.0533 183.951 44.776C183.482 44.488 183.108 44.1093 182.831 43.64C182.554 43.1707 182.415 42.648 182.415 42.072C182.415 41.496 182.554 40.9733 182.831 40.504C183.108 40.024 183.482 39.6453 183.951 39.368C184.431 39.0907 184.964 38.952 185.551 38.952C186.138 38.952 186.666 39.0907 187.135 39.368C187.604 39.6453 187.978 40.024 188.255 40.504C188.532 40.9733 188.671 41.496 188.671 42.072C188.671 42.648 188.532 43.1707 188.255 43.64C187.978 44.1093 187.604 44.488 187.135 44.776C186.666 45.0533 186.138 45.192 185.551 45.192ZM185.551 43.736C185.882 43.736 186.164 43.656 186.399 43.496C186.634 43.336 186.815 43.128 186.943 42.872C187.082 42.616 187.151 42.3493 187.151 42.072C187.151 41.784 187.082 41.5173 186.943 41.272C186.815 41.016 186.634 40.808 186.399 40.648C186.164 40.488 185.882 40.408 185.551 40.408C185.231 40.408 184.948 40.488 184.703 40.648C184.458 40.808 184.266 41.016 184.127 41.272C183.999 41.5173 183.935 41.784 183.935 42.072C183.935 42.3493 183.999 42.616 184.127 42.872C184.266 43.128 184.458 43.336 184.703 43.496C184.948 43.656 185.231 43.736 185.551 43.736Z" fill="#01060F"/>
</g>
<circle cx="434" cy="26" r="3" fill="#01060F"/>
<path opacity="0.3" d="M346 101L157 101" stroke="url(#paint7_linear_4307_2193)" stroke-width="1.5"/>
<path d="M157.154 93L160.752 82.57H163.216L166.814 93H164.742L164 90.76H159.968L159.212 93H157.154ZM160.514 89.08H163.454L161.718 83.886H162.25L160.514 89.08ZM171.089 93.168C170.352 93.168 169.694 92.9953 169.115 92.65C168.537 92.2953 168.079 91.8147 167.743 91.208C167.407 90.6013 167.239 89.9293 167.239 89.192C167.239 88.4453 167.407 87.7733 167.743 87.176C168.079 86.5787 168.537 86.1027 169.115 85.748C169.703 85.3933 170.357 85.216 171.075 85.216C171.654 85.216 172.167 85.3327 172.615 85.566C173.073 85.79 173.432 86.1073 173.693 86.518L173.413 86.896V82.402H175.247V93H173.511V91.53L173.707 91.894C173.446 92.3047 173.082 92.622 172.615 92.846C172.149 93.0607 171.64 93.168 171.089 93.168ZM171.285 91.488C171.705 91.488 172.074 91.39 172.391 91.194C172.709 90.998 172.956 90.7273 173.133 90.382C173.32 90.0367 173.413 89.64 173.413 89.192C173.413 88.7533 173.32 88.3613 173.133 88.016C172.956 87.6613 172.709 87.386 172.391 87.19C172.074 86.994 171.705 86.896 171.285 86.896C170.875 86.896 170.506 86.9987 170.179 87.204C169.853 87.4 169.596 87.6707 169.409 88.016C169.232 88.352 169.143 88.744 169.143 89.192C169.143 89.64 169.232 90.0367 169.409 90.382C169.596 90.7273 169.853 90.998 170.179 91.194C170.506 91.39 170.875 91.488 171.285 91.488ZM179.25 93L176.254 85.384H178.256L180.426 91.376H179.684L181.868 85.384H183.87L180.874 93H179.25ZM184.883 93V85.384H186.717V93H184.883ZM184.883 84.53V82.57H186.717V84.53H184.883ZM191.309 93.168C190.497 93.168 189.787 92.9767 189.181 92.594C188.583 92.202 188.173 91.6747 187.949 91.012L189.321 90.354C189.517 90.7833 189.787 91.1193 190.133 91.362C190.487 91.6047 190.879 91.726 191.309 91.726C191.645 91.726 191.911 91.6513 192.107 91.502C192.303 91.3527 192.401 91.1567 192.401 90.914C192.401 90.7647 192.359 90.6433 192.275 90.55C192.2 90.4473 192.093 90.3633 191.953 90.298C191.822 90.2233 191.677 90.1627 191.519 90.116L190.273 89.766C189.629 89.5793 189.139 89.2947 188.803 88.912C188.476 88.5293 188.313 88.0767 188.313 87.554C188.313 87.0873 188.429 86.6813 188.663 86.336C188.905 85.9813 189.237 85.706 189.657 85.51C190.086 85.314 190.576 85.216 191.127 85.216C191.845 85.216 192.48 85.3887 193.031 85.734C193.581 86.0793 193.973 86.5647 194.207 87.19L192.807 87.848C192.676 87.5027 192.457 87.2273 192.149 87.022C191.841 86.8167 191.495 86.714 191.113 86.714C190.805 86.714 190.562 86.784 190.385 86.924C190.207 87.064 190.119 87.246 190.119 87.47C190.119 87.61 190.156 87.7313 190.231 87.834C190.305 87.9367 190.408 88.0207 190.539 88.086C190.679 88.1513 190.837 88.212 191.015 88.268L192.233 88.632C192.858 88.8187 193.339 89.0987 193.675 89.472C194.02 89.8453 194.193 90.3027 194.193 90.844C194.193 91.3013 194.071 91.7073 193.829 92.062C193.586 92.4073 193.25 92.678 192.821 92.874C192.391 93.07 191.887 93.168 191.309 93.168ZM199.326 93.168C198.579 93.168 197.898 92.9953 197.282 92.65C196.675 92.3047 196.19 91.8333 195.826 91.236C195.471 90.6387 195.294 89.9573 195.294 89.192C195.294 88.4267 195.471 87.7453 195.826 87.148C196.19 86.5507 196.675 86.0793 197.282 85.734C197.889 85.3887 198.57 85.216 199.326 85.216C200.073 85.216 200.749 85.3887 201.356 85.734C201.963 86.0793 202.443 86.5507 202.798 87.148C203.162 87.736 203.344 88.4173 203.344 89.192C203.344 89.9573 203.162 90.6387 202.798 91.236C202.434 91.8333 201.949 92.3047 201.342 92.65C200.735 92.9953 200.063 93.168 199.326 93.168ZM199.326 91.488C199.737 91.488 200.096 91.39 200.404 91.194C200.721 90.998 200.969 90.7273 201.146 90.382C201.333 90.0273 201.426 89.6307 201.426 89.192C201.426 88.744 201.333 88.352 201.146 88.016C200.969 87.6707 200.721 87.4 200.404 87.204C200.096 86.9987 199.737 86.896 199.326 86.896C198.906 86.896 198.537 86.9987 198.22 87.204C197.903 87.4 197.651 87.6707 197.464 88.016C197.287 88.352 197.198 88.744 197.198 89.192C197.198 89.6307 197.287 90.0273 197.464 90.382C197.651 90.7273 197.903 90.998 198.22 91.194C198.537 91.39 198.906 91.488 199.326 91.488ZM204.735 93V85.384H206.457V87.078L206.317 86.826C206.494 86.2567 206.77 85.86 207.143 85.636C207.526 85.412 207.983 85.3 208.515 85.3H208.963V86.924H208.305C207.782 86.924 207.362 87.0873 207.045 87.414C206.728 87.7313 206.569 88.1793 206.569 88.758V93H204.735ZM212.869 93.168C212.057 93.168 211.348 92.9767 210.741 92.594C210.144 92.202 209.733 91.6747 209.509 91.012L210.881 90.354C211.077 90.7833 211.348 91.1193 211.693 91.362C212.048 91.6047 212.44 91.726 212.869 91.726C213.205 91.726 213.471 91.6513 213.667 91.502C213.863 91.3527 213.961 91.1567 213.961 90.914C213.961 90.7647 213.919 90.6433 213.835 90.55C213.761 90.4473 213.653 90.3633 213.513 90.298C213.383 90.2233 213.238 90.1627 213.079 90.116L211.833 89.766C211.189 89.5793 210.699 89.2947 210.363 88.912C210.037 88.5293 209.873 88.0767 209.873 87.554C209.873 87.0873 209.99 86.6813 210.223 86.336C210.466 85.9813 210.797 85.706 211.217 85.51C211.647 85.314 212.137 85.216 212.687 85.216C213.406 85.216 214.041 85.3887 214.591 85.734C215.142 86.0793 215.534 86.5647 215.767 87.19L214.367 87.848C214.237 87.5027 214.017 87.2273 213.709 87.022C213.401 86.8167 213.056 86.714 212.673 86.714C212.365 86.714 212.123 86.784 211.945 86.924C211.768 87.064 211.679 87.246 211.679 87.47C211.679 87.61 211.717 87.7313 211.791 87.834C211.866 87.9367 211.969 88.0207 212.099 88.086C212.239 88.1513 212.398 88.212 212.575 88.268L213.793 88.632C214.419 88.8187 214.899 89.0987 215.235 89.472C215.581 89.8453 215.753 90.3027 215.753 90.844C215.753 91.3013 215.632 91.7073 215.389 92.062C215.147 92.4073 214.811 92.678 214.381 92.874C213.952 93.07 213.448 93.168 212.869 93.168ZM223.109 93.168C222.465 93.168 221.9 93.0513 221.415 92.818C220.93 92.5847 220.547 92.258 220.267 91.838C219.996 91.4087 219.861 90.9093 219.861 90.34C219.861 89.864 219.945 89.4533 220.113 89.108C220.29 88.7533 220.505 88.4547 220.757 88.212C221.009 87.96 221.256 87.7547 221.499 87.596C221.751 87.4373 221.961 87.3113 222.129 87.218L223.039 86.728C223.338 86.5693 223.608 86.4107 223.851 86.252C224.103 86.084 224.304 85.902 224.453 85.706C224.602 85.5007 224.677 85.2627 224.677 84.992C224.677 84.684 224.574 84.4273 224.369 84.222C224.173 84.0073 223.921 83.9 223.613 83.9C223.314 83.9 223.058 84.0073 222.843 84.222C222.638 84.4273 222.535 84.6887 222.535 85.006C222.535 85.2393 222.586 85.468 222.689 85.692C222.801 85.916 222.932 86.126 223.081 86.322C223.23 86.5087 223.375 86.6767 223.515 86.826L229.045 93H226.847L222.185 87.89C221.97 87.6567 221.756 87.4047 221.541 87.134C221.326 86.854 221.149 86.546 221.009 86.21C220.869 85.874 220.799 85.5007 220.799 85.09C220.799 84.5487 220.925 84.0773 221.177 83.676C221.438 83.2653 221.779 82.9527 222.199 82.738C222.628 82.514 223.095 82.402 223.599 82.402C224.112 82.402 224.574 82.514 224.985 82.738C225.405 82.962 225.736 83.27 225.979 83.662C226.231 84.054 226.357 84.502 226.357 85.006C226.357 85.5193 226.236 85.958 225.993 86.322C225.76 86.6767 225.475 86.98 225.139 87.232C224.812 87.4747 224.5 87.68 224.201 87.848L223.263 88.408C223.058 88.52 222.838 88.6647 222.605 88.842C222.381 89.01 222.19 89.2153 222.031 89.458C221.872 89.6913 221.793 89.976 221.793 90.312C221.793 90.7133 221.914 91.0307 222.157 91.264C222.409 91.488 222.75 91.6 223.179 91.6C223.44 91.6 223.674 91.558 223.879 91.474C224.084 91.3807 224.266 91.2687 224.425 91.138C224.584 90.998 224.719 90.8533 224.831 90.704C224.943 90.5453 225.046 90.4007 225.139 90.27L226.777 87.89H228.695L226.805 90.83C226.665 91.0633 226.492 91.3153 226.287 91.586C226.082 91.8567 225.834 92.1133 225.545 92.356C225.256 92.5893 224.91 92.7853 224.509 92.944C224.117 93.0933 223.65 93.168 223.109 93.168ZM233.395 93V82.57H237.287C237.996 82.57 238.621 82.7007 239.163 82.962C239.713 83.214 240.143 83.5873 240.451 84.082C240.759 84.5673 240.913 85.16 240.913 85.86C240.913 86.5507 240.754 87.1433 240.437 87.638C240.129 88.1233 239.704 88.4967 239.163 88.758C238.621 89.0193 237.996 89.15 237.287 89.15H235.299V93H233.395ZM235.299 87.47H237.315C237.66 87.47 237.959 87.4047 238.211 87.274C238.463 87.134 238.659 86.9427 238.799 86.7C238.939 86.4573 239.009 86.1773 239.009 85.86C239.009 85.5333 238.939 85.2533 238.799 85.02C238.659 84.7773 238.463 84.5907 238.211 84.46C237.959 84.32 237.66 84.25 237.315 84.25H235.299V87.47ZM244.178 93.168C243.646 93.168 243.184 93.0793 242.792 92.902C242.4 92.7247 242.096 92.4727 241.882 92.146C241.667 91.81 241.56 91.4227 241.56 90.984C241.56 90.564 241.653 90.1907 241.84 89.864C242.026 89.528 242.316 89.248 242.708 89.024C243.1 88.8 243.594 88.6413 244.192 88.548L246.684 88.142V89.542L244.542 89.906C244.178 89.9713 243.907 90.088 243.73 90.256C243.552 90.424 243.464 90.6433 243.464 90.914C243.464 91.1753 243.562 91.3853 243.758 91.544C243.963 91.6933 244.215 91.768 244.514 91.768C244.896 91.768 245.232 91.6887 245.522 91.53C245.82 91.362 246.049 91.1333 246.208 90.844C246.376 90.5547 246.46 90.2373 246.46 89.892V87.932C246.46 87.6053 246.329 87.3347 246.068 87.12C245.816 86.896 245.48 86.784 245.06 86.784C244.668 86.784 244.318 86.8913 244.01 87.106C243.711 87.3113 243.492 87.5867 243.352 87.932L241.854 87.204C242.003 86.8027 242.236 86.4573 242.554 86.168C242.88 85.8693 243.263 85.636 243.702 85.468C244.14 85.3 244.616 85.216 245.13 85.216C245.755 85.216 246.306 85.3327 246.782 85.566C247.258 85.79 247.626 86.1073 247.888 86.518C248.158 86.9193 248.294 87.3907 248.294 87.932V93H246.558V91.698L246.95 91.67C246.754 91.9967 246.52 92.272 246.25 92.496C245.979 92.7107 245.671 92.8787 245.326 93C244.98 93.112 244.598 93.168 244.178 93.168ZM249.989 93V85.384H251.711V87.078L251.571 86.826C251.748 86.2567 252.023 85.86 252.397 85.636C252.779 85.412 253.237 85.3 253.769 85.3H254.217V86.924H253.559C253.036 86.924 252.616 87.0873 252.299 87.414C251.981 87.7313 251.823 88.1793 251.823 88.758V93H249.989ZM258.902 93.084C258.044 93.084 257.376 92.8507 256.9 92.384C256.434 91.908 256.2 91.2407 256.2 90.382V87.022H254.884V85.384H255.024C255.398 85.384 255.687 85.286 255.892 85.09C256.098 84.894 256.2 84.6093 256.2 84.236V83.648H258.034V85.384H259.784V87.022H258.034V90.284C258.034 90.536 258.076 90.7507 258.16 90.928C258.254 91.1053 258.394 91.2407 258.58 91.334C258.776 91.4273 259.024 91.474 259.322 91.474C259.388 91.474 259.462 91.4693 259.546 91.46C259.64 91.4507 259.728 91.4413 259.812 91.432V93C259.682 93.0187 259.532 93.0373 259.364 93.056C259.196 93.0747 259.042 93.084 258.902 93.084ZM261.213 93V85.384H262.935V86.882L262.795 86.616C262.973 86.1587 263.262 85.8133 263.663 85.58C264.074 85.3373 264.55 85.216 265.091 85.216C265.651 85.216 266.146 85.3373 266.575 85.58C267.014 85.8227 267.355 86.1633 267.597 86.602C267.84 87.0313 267.961 87.5307 267.961 88.1V93H266.127V88.534C266.127 88.198 266.062 87.9087 265.931 87.666C265.801 87.4233 265.619 87.2367 265.385 87.106C265.161 86.966 264.895 86.896 264.587 86.896C264.289 86.896 264.023 86.966 263.789 87.106C263.556 87.2367 263.374 87.4233 263.243 87.666C263.113 87.9087 263.047 88.198 263.047 88.534V93H261.213ZM273.124 93.168C272.34 93.168 271.654 92.9907 271.066 92.636C270.478 92.2813 270.021 91.8007 269.694 91.194C269.368 90.5873 269.204 89.9153 269.204 89.178C269.204 88.4127 269.368 87.736 269.694 87.148C270.03 86.5507 270.483 86.0793 271.052 85.734C271.631 85.3887 272.275 85.216 272.984 85.216C273.582 85.216 274.104 85.314 274.552 85.51C275.01 85.706 275.397 85.9767 275.714 86.322C276.032 86.6673 276.274 87.064 276.442 87.512C276.61 87.9507 276.694 88.4267 276.694 88.94C276.694 89.0707 276.685 89.206 276.666 89.346C276.657 89.486 276.634 89.6073 276.596 89.71H270.716V88.31H275.56L274.692 88.968C274.776 88.5387 274.753 88.156 274.622 87.82C274.501 87.484 274.296 87.218 274.006 87.022C273.726 86.826 273.386 86.728 272.984 86.728C272.602 86.728 272.261 86.826 271.962 87.022C271.664 87.2087 271.435 87.4887 271.276 87.862C271.127 88.226 271.071 88.6693 271.108 89.192C271.071 89.6587 271.132 90.074 271.29 90.438C271.458 90.7927 271.701 91.068 272.018 91.264C272.345 91.46 272.718 91.558 273.138 91.558C273.558 91.558 273.913 91.4693 274.202 91.292C274.501 91.1147 274.734 90.8767 274.902 90.578L276.386 91.306C276.237 91.67 276.004 91.992 275.686 92.272C275.369 92.552 274.991 92.7713 274.552 92.93C274.123 93.0887 273.647 93.168 273.124 93.168ZM278.084 93V85.384H279.806V87.078L279.666 86.826C279.844 86.2567 280.119 85.86 280.492 85.636C280.875 85.412 281.332 85.3 281.864 85.3H282.312V86.924H281.654C281.132 86.924 280.712 87.0873 280.394 87.414C280.077 87.7313 279.918 88.1793 279.918 88.758V93H278.084ZM286.219 93.168C285.407 93.168 284.697 92.9767 284.091 92.594C283.493 92.202 283.083 91.6747 282.859 91.012L284.231 90.354C284.427 90.7833 284.697 91.1193 285.043 91.362C285.397 91.6047 285.789 91.726 286.219 91.726C286.555 91.726 286.821 91.6513 287.017 91.502C287.213 91.3527 287.311 91.1567 287.311 90.914C287.311 90.7647 287.269 90.6433 287.185 90.55C287.11 90.4473 287.003 90.3633 286.863 90.298C286.732 90.2233 286.587 90.1627 286.429 90.116L285.183 89.766C284.539 89.5793 284.049 89.2947 283.713 88.912C283.386 88.5293 283.223 88.0767 283.223 87.554C283.223 87.0873 283.339 86.6813 283.573 86.336C283.815 85.9813 284.147 85.706 284.567 85.51C284.996 85.314 285.486 85.216 286.037 85.216C286.755 85.216 287.39 85.3887 287.941 85.734C288.491 86.0793 288.883 86.5647 289.117 87.19L287.717 87.848C287.586 87.5027 287.367 87.2273 287.059 87.022C286.751 86.8167 286.405 86.714 286.023 86.714C285.715 86.714 285.472 86.784 285.295 86.924C285.117 87.064 285.029 87.246 285.029 87.47C285.029 87.61 285.066 87.7313 285.141 87.834C285.215 87.9367 285.318 88.0207 285.449 88.086C285.589 88.1513 285.747 88.212 285.925 88.268L287.143 88.632C287.768 88.8187 288.249 89.0987 288.585 89.472C288.93 89.8453 289.103 90.3027 289.103 90.844C289.103 91.3013 288.981 91.7073 288.739 92.062C288.496 92.4073 288.16 92.678 287.731 92.874C287.301 93.07 286.797 93.168 286.219 93.168ZM290.512 93V82.402H292.346V86.882L292.094 86.616C292.272 86.1587 292.561 85.8133 292.962 85.58C293.373 85.3373 293.849 85.216 294.39 85.216C294.95 85.216 295.445 85.3373 295.874 85.58C296.313 85.8227 296.654 86.1633 296.896 86.602C297.139 87.0313 297.26 87.5307 297.26 88.1V93H295.426V88.534C295.426 88.198 295.361 87.9087 295.23 87.666C295.1 87.4233 294.918 87.2367 294.684 87.106C294.46 86.966 294.194 86.896 293.886 86.896C293.588 86.896 293.322 86.966 293.088 87.106C292.855 87.2367 292.673 87.4233 292.542 87.666C292.412 87.9087 292.346 88.198 292.346 88.534V93H290.512ZM298.811 93V85.384H300.645V93H298.811ZM298.811 84.53V82.57H300.645V84.53H298.811ZM302.338 95.8V85.384H304.06V86.896L303.892 86.518C304.154 86.1073 304.508 85.79 304.956 85.566C305.404 85.3327 305.922 85.216 306.51 85.216C307.229 85.216 307.878 85.3933 308.456 85.748C309.035 86.1027 309.492 86.5787 309.828 87.176C310.174 87.7733 310.346 88.4453 310.346 89.192C310.346 89.9293 310.178 90.6013 309.842 91.208C309.506 91.8147 309.049 92.2953 308.47 92.65C307.892 92.9953 307.234 93.168 306.496 93.168C305.946 93.168 305.437 93.0607 304.97 92.846C304.513 92.622 304.149 92.3047 303.878 91.894L304.172 91.53V95.8H302.338ZM306.286 91.488C306.706 91.488 307.08 91.39 307.406 91.194C307.733 90.998 307.985 90.7273 308.162 90.382C308.349 90.0367 308.442 89.64 308.442 89.192C308.442 88.744 308.349 88.352 308.162 88.016C307.985 87.6707 307.733 87.4 307.406 87.204C307.08 86.9987 306.706 86.896 306.286 86.896C305.885 86.896 305.521 86.994 305.194 87.19C304.877 87.386 304.625 87.6613 304.438 88.016C304.261 88.3613 304.172 88.7533 304.172 89.192C304.172 89.64 304.261 90.0367 304.438 90.382C304.625 90.7273 304.877 90.998 305.194 91.194C305.521 91.39 305.885 91.488 306.286 91.488ZM314.643 93.168C313.831 93.168 313.121 92.9767 312.515 92.594C311.917 92.202 311.507 91.6747 311.283 91.012L312.655 90.354C312.851 90.7833 313.121 91.1193 313.467 91.362C313.821 91.6047 314.213 91.726 314.643 91.726C314.979 91.726 315.245 91.6513 315.441 91.502C315.637 91.3527 315.735 91.1567 315.735 90.914C315.735 90.7647 315.693 90.6433 315.609 90.55C315.534 90.4473 315.427 90.3633 315.287 90.298C315.156 90.2233 315.011 90.1627 314.853 90.116L313.607 89.766C312.963 89.5793 312.473 89.2947 312.137 88.912C311.81 88.5293 311.647 88.0767 311.647 87.554C311.647 87.0873 311.763 86.6813 311.997 86.336C312.239 85.9813 312.571 85.706 312.991 85.51C313.42 85.314 313.91 85.216 314.461 85.216C315.179 85.216 315.814 85.3887 316.365 85.734C316.915 86.0793 317.307 86.5647 317.541 87.19L316.141 87.848C316.01 87.5027 315.791 87.2273 315.483 87.022C315.175 86.8167 314.829 86.714 314.447 86.714C314.139 86.714 313.896 86.784 313.719 86.924C313.541 87.064 313.453 87.246 313.453 87.47C313.453 87.61 313.49 87.7313 313.565 87.834C313.639 87.9367 313.742 88.0207 313.873 88.086C314.013 88.1513 314.171 88.212 314.349 88.268L315.567 88.632C316.192 88.8187 316.673 89.0987 317.009 89.472C317.354 89.8453 317.527 90.3027 317.527 90.844C317.527 91.3013 317.405 91.7073 317.163 92.062C316.92 92.4073 316.584 92.678 316.155 92.874C315.725 93.07 315.221 93.168 314.643 93.168Z" fill="#A795C6"/>
<g filter="url(#filter5_dddd_4307_2193)">
<path d="M160.277 120V109.68H157.989V108.08H162.149V120H160.277ZM169.471 120.192C168.521 120.192 167.689 119.936 166.975 119.424C166.26 118.901 165.7 118.181 165.295 117.264C164.9 116.336 164.703 115.259 164.703 114.032C164.703 112.795 164.9 111.717 165.295 110.8C165.7 109.883 166.255 109.168 166.959 108.656C167.673 108.144 168.505 107.888 169.455 107.888C170.404 107.888 171.231 108.144 171.935 108.656C172.649 109.168 173.204 109.888 173.599 110.816C174.004 111.733 174.207 112.805 174.207 114.032C174.207 115.259 174.009 116.336 173.615 117.264C173.22 118.181 172.665 118.901 171.951 119.424C171.247 119.936 170.42 120.192 169.471 120.192ZM169.471 118.464C170.057 118.464 170.564 118.283 170.991 117.92C171.417 117.557 171.748 117.045 171.983 116.384C172.217 115.723 172.335 114.939 172.335 114.032C172.335 113.125 172.217 112.341 171.983 111.68C171.748 111.019 171.417 110.507 170.991 110.144C170.564 109.781 170.052 109.6 169.455 109.6C168.868 109.6 168.361 109.781 167.935 110.144C167.508 110.507 167.177 111.019 166.943 111.68C166.708 112.341 166.591 113.125 166.591 114.032C166.591 114.928 166.708 115.712 166.943 116.384C167.177 117.045 167.508 117.557 167.935 117.92C168.372 118.283 168.884 118.464 169.471 118.464ZM177.548 120L187.244 108.08H189.26L179.564 120H177.548ZM179.372 114.128C178.785 114.128 178.257 113.989 177.788 113.712C177.318 113.424 176.94 113.045 176.652 112.576C176.374 112.107 176.236 111.584 176.236 111.008C176.236 110.432 176.374 109.909 176.652 109.44C176.94 108.96 177.318 108.581 177.788 108.304C178.257 108.027 178.785 107.888 179.372 107.888C179.958 107.888 180.486 108.027 180.956 108.304C181.425 108.581 181.798 108.96 182.076 109.44C182.353 109.909 182.492 110.432 182.492 111.008C182.492 111.584 182.353 112.107 182.076 112.576C181.798 113.045 181.425 113.424 180.956 113.712C180.486 113.989 179.958 114.128 179.372 114.128ZM179.372 112.672C179.702 112.672 179.985 112.592 180.22 112.432C180.465 112.272 180.652 112.064 180.78 111.808C180.908 111.552 180.972 111.285 180.972 111.008C180.972 110.72 180.908 110.453 180.78 110.208C180.652 109.952 180.465 109.744 180.22 109.584C179.985 109.424 179.702 109.344 179.372 109.344C179.052 109.344 178.769 109.424 178.524 109.584C178.278 109.744 178.086 109.952 177.948 110.208C177.82 110.453 177.756 110.72 177.756 111.008C177.756 111.285 177.82 111.552 177.948 111.808C178.086 112.064 178.278 112.272 178.524 112.432C178.769 112.592 179.052 112.672 179.372 112.672ZM187.356 120.192C186.769 120.192 186.236 120.053 185.756 119.776C185.286 119.488 184.913 119.109 184.636 118.64C184.358 118.171 184.22 117.648 184.22 117.072C184.22 116.496 184.358 115.973 184.636 115.504C184.913 115.024 185.286 114.645 185.756 114.368C186.236 114.091 186.769 113.952 187.356 113.952C187.942 113.952 188.47 114.091 188.94 114.368C189.409 114.645 189.782 115.024 190.06 115.504C190.337 115.973 190.476 116.496 190.476 117.072C190.476 117.648 190.337 118.171 190.06 118.64C189.782 119.109 189.409 119.488 188.94 119.776C188.47 120.053 187.942 120.192 187.356 120.192ZM187.356 118.736C187.686 118.736 187.969 118.656 188.204 118.496C188.438 118.336 188.62 118.128 188.748 117.872C188.886 117.616 188.956 117.349 188.956 117.072C188.956 116.784 188.886 116.517 188.748 116.272C188.62 116.016 188.438 115.808 188.204 115.648C187.969 115.488 187.686 115.408 187.356 115.408C187.036 115.408 186.753 115.488 186.508 115.648C186.262 115.808 186.07 116.016 185.932 116.272C185.804 116.517 185.74 116.784 185.74 117.072C185.74 117.349 185.804 117.616 185.932 117.872C186.07 118.128 186.262 118.336 186.508 118.496C186.753 118.656 187.036 118.736 187.356 118.736Z" fill="#01060F"/>
</g>
<circle cx="343" cy="101" r="3" fill="#01060F"/>
<defs>
<filter id="filter0_dddd_4307_2193" x="268.002" y="122.234" width="424.7" height="660.221" filterUnits="userSpaceOnUse" color-interpolation-filters="sRGB">
<feFlood flood-opacity="0" result="BackgroundImageFix"/>
<feColorMatrix in="SourceAlpha" type="matrix" values="0 0 0 0 0 0 0 0 0 0 0 0 0 0 0 0 0 0 127 0" result="hardAlpha"/>
<feOffset dy="27"/>
<feGaussianBlur stdDeviation="29.5"/>
<feColorMatrix type="matrix" values="0 0 0 0 0 0 0 0 0 0 0 0 0 0 0 0 0 0 0.1 0"/>
<feBlend mode="normal" in2="BackgroundImageFix" result="effect1_dropShadow_4307_2193"/>
<feColorMatrix in="SourceAlpha" type="matrix" values="0 0 0 0 0 0 0 0 0 0 0 0 0 0 0 0 0 0 127 0" result="hardAlpha"/>
<feOffset dy="107"/>
<feGaussianBlur stdDeviation="53.5"/>
<feColorMatrix type="matrix" values="0 0 0 0 0 0 0 0 0 0 0 0 0 0 0 0 0 0 0.09 0"/>
<feBlend mode="normal" in2="effect1_dropShadow_4307_2193" result="effect2_dropShadow_4307_2193"/>
<feColorMatrix in="SourceAlpha" type="matrix" values="0 0 0 0 0 0 0 0 0 0 0 0 0 0 0 0 0 0 127 0" result="hardAlpha"/>
<feOffset dy="241"/>
<feGaussianBlur stdDeviation="72"/>
<feColorMatrix type="matrix" values="0 0 0 0 0 0 0 0 0 0 0 0 0 0 0 0 0 0 0.05 0"/>
<feBlend mode="normal" in2="effect2_dropShadow_4307_2193" result="effect3_dropShadow_4307_2193"/>
<feColorMatrix in="SourceAlpha" type="matrix" values="0 0 0 0 0 0 0 0 0 0 0 0 0 0 0 0 0 0 127 0" result="hardAlpha"/>
<feOffset dy="428"/>
<feGaussianBlur stdDeviation="85.5"/>
<feColorMatrix type="matrix" values="0 0 0 0 0 0 0 0 0 0 0 0 0 0 0 0 0 0 0.01 0"/>
<feBlend mode="normal" in2="effect3_dropShadow_4307_2193" result="effect4_dropShadow_4307_2193"/>
<feBlend mode="normal" in="SourceGraphic" in2="effect4_dropShadow_4307_2193" result="shape"/>
</filter>
<filter id="filter1_dddd_4307_2193" x="257.982" y="174.402" width="445.653" height="641.766" filterUnits="userSpaceOnUse" color-interpolation-filters="sRGB">
<feFlood flood-opacity="0" result="BackgroundImageFix"/>
<feColorMatrix in="SourceAlpha" type="matrix" values="0 0 0 0 0 0 0 0 0 0 0 0 0 0 0 0 0 0 127 0" result="hardAlpha"/>
<feOffset dy="27"/>
<feGaussianBlur stdDeviation="29.5"/>
<feColorMatrix type="matrix" values="0 0 0 0 0 0 0 0 0 0 0 0 0 0 0 0 0 0 0.1 0"/>
<feBlend mode="normal" in2="BackgroundImageFix" result="effect1_dropShadow_4307_2193"/>
<feColorMatrix in="SourceAlpha" type="matrix" values="0 0 0 0 0 0 0 0 0 0 0 0 0 0 0 0 0 0 127 0" result="hardAlpha"/>
<feOffset dy="107"/>
<feGaussianBlur stdDeviation="53.5"/>
<feColorMatrix type="matrix" values="0 0 0 0 0 0 0 0 0 0 0 0 0 0 0 0 0 0 0.09 0"/>
<feBlend mode="normal" in2="effect1_dropShadow_4307_2193" result="effect2_dropShadow_4307_2193"/>
<feColorMatrix in="SourceAlpha" type="matrix" values="0 0 0 0 0 0 0 0 0 0 0 0 0 0 0 0 0 0 127 0" result="hardAlpha"/>
<feOffset dy="241"/>
<feGaussianBlur stdDeviation="72"/>
<feColorMatrix type="matrix" values="0 0 0 0 0 0 0 0 0 0 0 0 0 0 0 0 0 0 0.05 0"/>
<feBlend mode="normal" in2="effect2_dropShadow_4307_2193" result="effect3_dropShadow_4307_2193"/>
<feColorMatrix in="SourceAlpha" type="matrix" values="0 0 0 0 0 0 0 0 0 0 0 0 0 0 0 0 0 0 127 0" result="hardAlpha"/>
<feOffset dy="428"/>
<feGaussianBlur stdDeviation="85.5"/>
<feColorMatrix type="matrix" values="0 0 0 0 0 0 0 0 0 0 0 0 0 0 0 0 0 0 0.01 0"/>
<feBlend mode="normal" in2="effect3_dropShadow_4307_2193" result="effect4_dropShadow_4307_2193"/>
<feBlend mode="normal" in="SourceGraphic" in2="effect4_dropShadow_4307_2193" result="shape"/>
</filter>
<filter id="filter2_dddd_4307_2193" x="529.878" y="153.889" width="375.965" height="643.303" filterUnits="userSpaceOnUse" color-interpolation-filters="sRGB">
<feFlood flood-opacity="0" result="BackgroundImageFix"/>
<feColorMatrix in="SourceAlpha" type="matrix" values="0 0 0 0 0 0 0 0 0 0 0 0 0 0 0 0 0 0 127 0" result="hardAlpha"/>
<feOffset dy="27"/>
<feGaussianBlur stdDeviation="29.5"/>
<feColorMatrix type="matrix" values="0 0 0 0 0 0 0 0 0 0 0 0 0 0 0 0 0 0 0.1 0"/>
<feBlend mode="normal" in2="BackgroundImageFix" result="effect1_dropShadow_4307_2193"/>
<feColorMatrix in="SourceAlpha" type="matrix" values="0 0 0 0 0 0 0 0 0 0 0 0 0 0 0 0 0 0 127 0" result="hardAlpha"/>
<feOffset dy="107"/>
<feGaussianBlur stdDeviation="53.5"/>
<feColorMatrix type="matrix" values="0 0 0 0 0 0 0 0 0 0 0 0 0 0 0 0 0 0 0.09 0"/>
<feBlend mode="normal" in2="effect1_dropShadow_4307_2193" result="effect2_dropShadow_4307_2193"/>
<feColorMatrix in="SourceAlpha" type="matrix" values="0 0 0 0 0 0 0 0 0 0 0 0 0 0 0 0 0 0 127 0" result="hardAlpha"/>
<feOffset dy="241"/>
<feGaussianBlur stdDeviation="72"/>
<feColorMatrix type="matrix" values="0 0 0 0 0 0 0 0 0 0 0 0 0 0 0 0 0 0 0.05 0"/>
<feBlend mode="normal" in2="effect2_dropShadow_4307_2193" result="effect3_dropShadow_4307_2193"/>
<feColorMatrix in="SourceAlpha" type="matrix" values="0 0 0 0 0 0 0 0 0 0 0 0 0 0 0 0 0 0 127 0" result="hardAlpha"/>
<feOffset dy="428"/>
<feGaussianBlur stdDeviation="85.5"/>
<feColorMatrix type="matrix" values="0 0 0 0 0 0 0 0 0 0 0 0 0 0 0 0 0 0 0.01 0"/>
<feBlend mode="normal" in2="effect3_dropShadow_4307_2193" result="effect4_dropShadow_4307_2193"/>
<feBlend mode="normal" in="SourceGraphic" in2="effect4_dropShadow_4307_2193" result="shape"/>
</filter>
<filter id="filter3_dddd_4307_2193" x="-10.2064" y="189.889" width="372.877" height="643.303" filterUnits="userSpaceOnUse" color-interpolation-filters="sRGB">
<feFlood flood-opacity="0" result="BackgroundImageFix"/>
<feColorMatrix in="SourceAlpha" type="matrix" values="0 0 0 0 0 0 0 0 0 0 0 0 0 0 0 0 0 0 127 0" result="hardAlpha"/>
<feOffset dy="27"/>
<feGaussianBlur stdDeviation="29.5"/>
<feColorMatrix type="matrix" values="0 0 0 0 0 0 0 0 0 0 0 0 0 0 0 0 0 0 0.1 0"/>
<feBlend mode="normal" in2="BackgroundImageFix" result="effect1_dropShadow_4307_2193"/>
<feColorMatrix in="SourceAlpha" type="matrix" values="0 0 0 0 0 0 0 0 0 0 0 0 0 0 0 0 0 0 127 0" result="hardAlpha"/>
<feOffset dy="107"/>
<feGaussianBlur stdDeviation="53.5"/>
<feColorMatrix type="matrix" values="0 0 0 0 0 0 0 0 0 0 0 0 0 0 0 0 0 0 0.09 0"/>
<feBlend mode="normal" in2="effect1_dropShadow_4307_2193" result="effect2_dropShadow_4307_2193"/>
<feColorMatrix in="SourceAlpha" type="matrix" values="0 0 0 0 0 0 0 0 0 0 0 0 0 0 0 0 0 0 127 0" result="hardAlpha"/>
<feOffset dy="241"/>
<feGaussianBlur stdDeviation="72"/>
<feColorMatrix type="matrix" values="0 0 0 0 0 0 0 0 0 0 0 0 0 0 0 0 0 0 0.05 0"/>
<feBlend mode="normal" in2="effect2_dropShadow_4307_2193" result="effect3_dropShadow_4307_2193"/>
<feColorMatrix in="SourceAlpha" type="matrix" values="0 0 0 0 0 0 0 0 0 0 0 0 0 0 0 0 0 0 127 0" result="hardAlpha"/>
<feOffset dy="428"/>
<feGaussianBlur stdDeviation="85.5"/>
<feColorMatrix type="matrix" values="0 0 0 0 0 0 0 0 0 0 0 0 0 0 0 0 0 0 0.01 0"/>
<feBlend mode="normal" in2="effect3_dropShadow_4307_2193" result="effect4_dropShadow_4307_2193"/>
<feBlend mode="normal" in="SourceGraphic" in2="effect4_dropShadow_4307_2193" result="shape"/>
</filter>
<filter id="filter4_dddd_4307_2193" x="-13.2064" y="0.888672" width="372.877" height="643.303" filterUnits="userSpaceOnUse" color-interpolation-filters="sRGB">
<feFlood flood-opacity="0" result="BackgroundImageFix"/>
<feColorMatrix in="SourceAlpha" type="matrix" values="0 0 0 0 0 0 0 0 0 0 0 0 0 0 0 0 0 0 127 0" result="hardAlpha"/>
<feOffset dy="27"/>
<feGaussianBlur stdDeviation="29.5"/>
<feColorMatrix type="matrix" values="0 0 0 0 0 0 0 0 0 0 0 0 0 0 0 0 0 0 0.1 0"/>
<feBlend mode="normal" in2="BackgroundImageFix" result="effect1_dropShadow_4307_2193"/>
<feColorMatrix in="SourceAlpha" type="matrix" values="0 0 0 0 0 0 0 0 0 0 0 0 0 0 0 0 0 0 127 0" result="hardAlpha"/>
<feOffset dy="107"/>
<feGaussianBlur stdDeviation="53.5"/>
<feColorMatrix type="matrix" values="0 0 0 0 0 0 0 0 0 0 0 0 0 0 0 0 0 0 0.09 0"/>
<feBlend mode="normal" in2="effect1_dropShadow_4307_2193" result="effect2_dropShadow_4307_2193"/>
<feColorMatrix in="SourceAlpha" type="matrix" values="0 0 0 0 0 0 0 0 0 0 0 0 0 0 0 0 0 0 127 0" result="hardAlpha"/>
<feOffset dy="241"/>
<feGaussianBlur stdDeviation="72"/>
<feColorMatrix type="matrix" values="0 0 0 0 0 0 0 0 0 0 0 0 0 0 0 0 0 0 0.05 0"/>
<feBlend mode="normal" in2="effect2_dropShadow_4307_2193" result="effect3_dropShadow_4307_2193"/>
<feColorMatrix in="SourceAlpha" type="matrix" values="0 0 0 0 0 0 0 0 0 0 0 0 0 0 0 0 0 0 127 0" result="hardAlpha"/>
<feOffset dy="428"/>
<feGaussianBlur stdDeviation="85.5"/>
<feColorMatrix type="matrix" values="0 0 0 0 0 0 0 0 0 0 0 0 0 0 0 0 0 0 0.01 0"/>
<feBlend mode="normal" in2="effect3_dropShadow_4307_2193" result="effect4_dropShadow_4307_2193"/>
<feBlend mode="normal" in="SourceGraphic" in2="effect4_dropShadow_4307_2193" result="shape"/>
</filter>
<filter id="filter5_dddd_4307_2193" x="-13.0111" y="75.8887" width="374.487" height="643.303" filterUnits="userSpaceOnUse" color-interpolation-filters="sRGB">
<feFlood flood-opacity="0" result="BackgroundImageFix"/>
<feColorMatrix in="SourceAlpha" type="matrix" values="0 0 0 0 0 0 0 0 0 0 0 0 0 0 0 0 0 0 127 0" result="hardAlpha"/>
<feOffset dy="27"/>
<feGaussianBlur stdDeviation="29.5"/>
<feColorMatrix type="matrix" values="0 0 0 0 0 0 0 0 0 0 0 0 0 0 0 0 0 0 0.1 0"/>
<feBlend mode="normal" in2="BackgroundImageFix" result="effect1_dropShadow_4307_2193"/>
<feColorMatrix in="SourceAlpha" type="matrix" values="0 0 0 0 0 0 0 0 0 0 0 0 0 0 0 0 0 0 127 0" result="hardAlpha"/>
<feOffset dy="107"/>
<feGaussianBlur stdDeviation="53.5"/>
<feColorMatrix type="matrix" values="0 0 0 0 0 0 0 0 0 0 0 0 0 0 0 0 0 0 0.09 0"/>
<feBlend mode="normal" in2="effect1_dropShadow_4307_2193" result="effect2_dropShadow_4307_2193"/>
<feColorMatrix in="SourceAlpha" type="matrix" values="0 0 0 0 0 0 0 0 0 0 0 0 0 0 0 0 0 0 127 0" result="hardAlpha"/>
<feOffset dy="241"/>
<feGaussianBlur stdDeviation="72"/>
<feColorMatrix type="matrix" values="0 0 0 0 0 0 0 0 0 0 0 0 0 0 0 0 0 0 0.05 0"/>
<feBlend mode="normal" in2="effect2_dropShadow_4307_2193" result="effect3_dropShadow_4307_2193"/>
<feColorMatrix in="SourceAlpha" type="matrix" values="0 0 0 0 0 0 0 0 0 0 0 0 0 0 0 0 0 0 127 0" result="hardAlpha"/>
<feOffset dy="428"/>
<feGaussianBlur stdDeviation="85.5"/>
<feColorMatrix type="matrix" values="0 0 0 0 0 0 0 0 0 0 0 0 0 0 0 0 0 0 0.01 0"/>
<feBlend mode="normal" in2="effect3_dropShadow_4307_2193" result="effect4_dropShadow_4307_2193"/>
<feBlend mode="normal" in="SourceGraphic" in2="effect4_dropShadow_4307_2193" result="shape"/>
</filter>
<radialGradient id="paint0_angular_4307_2193" cx="0" cy="0" r="1" gradientUnits="userSpaceOnUse" gradientTransform="translate(481 179) rotate(-1.12134) scale(159.806 159.559)">
<stop offset="0.401589" stop-color="#7A37CC"/>
<stop offset="0.757831" stop-color="white" stop-opacity="0"/>
</radialGradient>
<radialGradient id="paint1_angular_4307_2193" cx="0" cy="0" r="1" gradientUnits="userSpaceOnUse" gradientTransform="translate(481 179) rotate(-1.12134) scale(159.806 159.559)">
<stop offset="0.634324" stop-color="#7A37CC" stop-opacity="0"/>
<stop offset="0.737649" stop-color="#7A37CC"/>
</radialGradient>
<radialGradient id="paint2_angular_4307_2193" cx="0" cy="0" r="1" gradientUnits="userSpaceOnUse" gradientTransform="translate(481 179) rotate(-1.12134) scale(159.806 159.559)">
<stop offset="0.560304" stop-color="#7A37CC" stop-opacity="0"/>
<stop offset="0.637422" stop-color="#7A37CC"/>
</radialGradient>
<radialGradient id="paint3_angular_4307_2193" cx="0" cy="0" r="1" gradientUnits="userSpaceOnUse" gradientTransform="translate(481 179) rotate(-1.12134) scale(159.806 159.559)">
<stop offset="0.410054" stop-color="#7A37CC" stop-opacity="0"/>
<stop offset="0.555028" stop-color="#7A37CC"/>
</radialGradient>
<linearGradient id="paint4_linear_4307_2193" x1="641" y1="179.5" x2="832" y2="179.5" gradientUnits="userSpaceOnUse">
<stop stop-color="#01060F"/>
<stop offset="1" stop-color="#01060F" stop-opacity="0"/>
</linearGradient>
<linearGradient id="paint5_linear_4307_2193" x1="324" y1="214.5" x2="160" y2="214.5" gradientUnits="userSpaceOnUse">
<stop stop-color="#01060F"/>
<stop offset="1" stop-color="#01060F" stop-opacity="0"/>
</linearGradient>
<linearGradient id="paint6_linear_4307_2193" x1="437" y1="25.5" x2="157" y2="25.5" gradientUnits="userSpaceOnUse">
<stop stop-color="#01060F"/>
<stop offset="1" stop-color="#01060F" stop-opacity="0"/>
</linearGradient>
<linearGradient id="paint7_linear_4307_2193" x1="346" y1="100.5" x2="157" y2="100.5" gradientUnits="userSpaceOnUse">
<stop stop-color="#01060F"/>
<stop offset="1" stop-color="#01060F" stop-opacity="0"/>
</linearGradient>
</defs>
</svg>
