<svg width="32" height="32" viewBox="0 0 32 32" fill="none" xmlns="http://www.w3.org/2000/svg">
<path d="M30.9333 20.7847V11.2151C30.9318 10.085 30.6308 8.97554 30.061 7.99962C29.4912 7.0237 28.673 6.21621 27.6896 5.65937L19.1562 0.831636C18.1901 0.296423 17.1037 0.015625 15.9992 0.015625C14.8947 0.015625 13.8083 0.296423 12.8421 0.831636L4.30878 5.6599C3.32579 6.2169 2.50793 7.0244 1.93843 8.0002C1.36893 8.976 1.06813 10.0853 1.06665 11.2151V20.7847C1.06831 21.9148 1.36935 23.0242 1.93913 24.0001C2.50891 24.976 3.32709 25.7835 4.31038 26.3404L12.8437 31.1682C13.8065 31.7132 14.8939 31.9996 16.0003 31.9996C17.1066 31.9996 18.194 31.7132 19.1568 31.1682L27.6901 26.3404C28.673 25.7831 29.4909 24.9755 30.0605 23.9997C30.6301 23.0239 30.9313 21.9146 30.9333 20.7847ZM27.1653 25.4119L18.632 30.2402C17.8266 30.6859 16.9213 30.9197 16.0008 30.9197C15.0803 30.9197 14.1749 30.6859 13.3696 30.2402L4.83625 25.4119C4.01706 24.9482 3.33536 24.2757 2.86057 23.4629C2.38577 22.6501 2.13484 21.726 2.13332 20.7847V11.2151C2.13468 10.2739 2.38543 9.34982 2.86003 8.53702C3.33464 7.72421 4.01615 7.05168 4.83518 6.5879L13.3685 1.7591C14.1712 1.30478 15.0779 1.066 16.0003 1.066C16.9226 1.066 17.8293 1.30478 18.632 1.7591L27.1653 6.58737C27.9843 7.05126 28.6658 7.7239 29.1403 8.53681C29.6148 9.34971 29.8654 10.2738 29.8667 11.2151V20.7847C29.8652 21.7258 29.6144 22.6498 29.1399 23.4626C28.6655 24.2753 27.9841 24.9479 27.1653 25.4119Z" fill="#9945FF"/>
<path d="M26.3765 7.98052L17.8431 3.15172C17.2804 2.83521 16.6456 2.66895 15.9999 2.66895C15.3543 2.66895 14.7195 2.83521 14.1567 3.15172L5.62341 7.98052C5.05059 8.30453 4.57388 8.77458 4.24185 9.3428C3.90983 9.91101 3.73434 10.5571 3.73328 11.2152V20.7848C3.7344 21.4429 3.9099 22.0889 4.24193 22.6571C4.57395 23.2253 5.05062 23.6954 5.62341 24.0195L14.1567 28.8477C14.7195 29.1642 15.3543 29.3304 15.9999 29.3304C16.6456 29.3304 17.2804 29.1642 17.8431 28.8477L26.3765 24.0195C26.9493 23.6954 27.4259 23.2253 27.758 22.6571C28.09 22.0889 28.2655 21.4429 28.2666 20.7848V11.2152C28.2655 10.5571 28.0901 9.91101 27.758 9.3428C27.426 8.77458 26.9493 8.30453 26.3765 7.98052ZM9.06661 23.9997H7.75354L6.93328 23.5357V19.7331H9.06661V23.9997ZM17.3183 27.9197C16.9156 28.1456 16.4617 28.2642 15.9999 28.2642C15.5382 28.2642 15.0843 28.1456 14.6815 27.9197L9.63888 25.0664H22.361L17.3183 27.9197ZM14.3999 23.9997H12.2666V17.5997H14.3999V23.9997ZM19.7333 23.9997H17.5999V15.4664H19.7333V23.9997ZM25.0666 23.5357L24.2463 23.9997H22.9333V11.7331H25.0666V23.5357ZM27.1999 20.7848C27.199 21.1969 27.1021 21.6031 26.917 21.9712C26.7318 22.3394 26.4635 22.6594 26.1333 22.9059V11.7331C26.1333 11.4502 26.0209 11.1788 25.8209 10.9788C25.6208 10.7788 25.3495 10.6664 25.0666 10.6664H22.9333C22.6504 10.6664 22.3791 10.7788 22.179 10.9788C21.979 11.1788 21.8666 11.4502 21.8666 11.7331V23.9997H20.7999V15.4664C20.7999 15.1835 20.6876 14.9122 20.4875 14.7121C20.2875 14.5121 20.0162 14.3997 19.7333 14.3997H17.5999C17.317 14.3997 17.0457 14.5121 16.8457 14.7121C16.6457 14.9122 16.5333 15.1835 16.5333 15.4664V23.9997H15.4666V17.5997C15.4666 17.3168 15.3542 17.0455 15.1542 16.8455C14.9542 16.6454 14.6828 16.5331 14.3999 16.5331H12.2666C11.9837 16.5331 11.7124 16.6454 11.5124 16.8455C11.3123 17.0455 11.1999 17.3168 11.1999 17.5997V23.9997H10.1333V19.7331C10.1333 19.4502 10.0209 19.1788 9.82086 18.9788C9.62082 18.7788 9.34951 18.6664 9.06661 18.6664H6.93328C6.65038 18.6664 6.37907 18.7788 6.17903 18.9788C5.97899 19.1788 5.86661 19.4502 5.86661 19.7331V22.9059C5.53637 22.6594 5.26806 22.3394 5.08292 21.9712C4.89778 21.6031 4.80089 21.1969 4.79994 20.7848V11.2152C4.80052 10.7455 4.9256 10.2844 5.16245 9.87881C5.3993 9.47323 5.73944 9.13769 6.14821 8.90639L14.6815 4.07759C15.0842 3.8517 15.5382 3.73307 15.9999 3.73307C16.4617 3.73307 16.9156 3.8517 17.3183 4.07759L25.8517 8.90639C26.2604 9.13769 26.6006 9.47323 26.8374 9.87881C27.0743 10.2844 27.1994 10.7455 27.1999 11.2152V20.7848Z" fill="#9945FF"/>
<path d="M20.0166 8.66451L17.9899 8.00264C17.857 7.96401 17.7143 7.97856 17.5919 8.0432C17.4695 8.10785 17.3771 8.21754 17.3341 8.34909C17.2911 8.48064 17.3009 8.62376 17.3615 8.7482C17.4221 8.87264 17.5286 8.96866 17.6587 9.01598L18.463 9.27891L6.15895 15.5237C6.09337 15.5533 6.03447 15.5959 5.98578 15.6489C5.9371 15.7019 5.89965 15.7642 5.87567 15.8321C5.8517 15.8999 5.84171 15.9719 5.8463 16.0437C5.85089 16.1156 5.86996 16.1857 5.90238 16.25C5.93479 16.3142 5.97987 16.3712 6.0349 16.4176C6.08994 16.464 6.15378 16.4987 6.2226 16.5198C6.29142 16.5408 6.36378 16.5477 6.43533 16.54C6.50689 16.5324 6.57615 16.5103 6.63895 16.4752L18.9424 10.2298L18.68 11.0336C18.6405 11.1667 18.6545 11.31 18.719 11.433C18.7835 11.556 18.8934 11.649 19.0254 11.6922C19.1574 11.7354 19.301 11.7254 19.4257 11.6644C19.5505 11.6033 19.6465 11.496 19.6934 11.3653L20.3552 9.33864C20.3773 9.27214 20.386 9.20195 20.3809 9.13208C20.3758 9.0622 20.357 8.99402 20.3256 8.93141C20.2941 8.86881 20.2506 8.81302 20.1976 8.76722C20.1446 8.72142 20.0831 8.68652 20.0166 8.66451Z" fill="#9945FF"/>
</svg>
