<svg width="24" height="24" viewBox="0 0 24 24" fill="none" xmlns="http://www.w3.org/2000/svg">
<path d="M12 17C12.5523 17 13 16.5523 13 16C13 15.4477 12.5523 15 12 15C11.4477 15 11 15.4477 11 16C11 16.5523 11.4477 17 12 17Z" stroke="#01060F" stroke-width="1.5" stroke-linecap="round" stroke-linejoin="round"/>
<path d="M19 10H5C3.89543 10 3 10.8954 3 12V20C3 21.1046 3.89543 22 5 22H19C20.1046 22 21 21.1046 21 20V12C21 10.8954 20.1046 10 19 10Z" stroke="#01060F" stroke-width="1.5" stroke-linecap="round" stroke-linejoin="round"/>
<path d="M7 9.99978V6.99978C7.00005 5.89915 7.36326 4.82929 8.03329 3.95611C8.70333 3.08294 9.64276 2.45524 10.7059 2.17038C11.769 1.88551 12.8964 1.95939 13.9133 2.38055C14.9302 2.80172 15.7796 3.54664 16.33 4.49978" stroke="#01060F" stroke-width="1.5" stroke-linecap="round" stroke-linejoin="round"/>
</svg>
