<svg width="680" height="365" viewBox="0 0 680 365" fill="none" xmlns="http://www.w3.org/2000/svg">
<path d="M40.9834 37.144C40.3754 37.144 39.8354 37.016 39.3634 36.76C38.8994 36.496 38.5354 36.144 38.2714 35.704C38.0074 35.256 37.8754 34.748 37.8754 34.18C37.8754 33.892 37.9034 33.604 37.9594 33.316C38.0234 33.028 38.1354 32.72 38.2954 32.392C38.4634 32.064 38.7034 31.7 39.0154 31.3L41.5114 28.06H43.4554L40.4194 31.96L40.1554 31.672C40.2674 31.584 40.3834 31.516 40.5034 31.468C40.6234 31.412 40.7434 31.372 40.8634 31.348C40.9914 31.324 41.1234 31.312 41.2594 31.312C41.8034 31.312 42.2874 31.436 42.7114 31.684C43.1354 31.932 43.4674 32.272 43.7074 32.704C43.9554 33.128 44.0794 33.608 44.0794 34.144C44.0794 34.72 43.9474 35.236 43.6834 35.692C43.4194 36.14 43.0514 36.496 42.5794 36.76C42.1154 37.016 41.5834 37.144 40.9834 37.144ZM40.9834 35.668C41.2554 35.668 41.4994 35.608 41.7154 35.488C41.9394 35.36 42.1154 35.18 42.2434 34.948C42.3794 34.716 42.4474 34.456 42.4474 34.168C42.4474 33.864 42.3794 33.604 42.2434 33.388C42.1154 33.164 41.9434 32.988 41.7274 32.86C41.5114 32.732 41.2634 32.668 40.9834 32.668C40.7114 32.668 40.4634 32.732 40.2394 32.86C40.0154 32.988 39.8354 33.164 39.6994 33.388C39.5714 33.604 39.5074 33.864 39.5074 34.168C39.5074 34.456 39.5714 34.716 39.6994 34.948C39.8354 35.18 40.0154 35.36 40.2394 35.488C40.4634 35.608 40.7114 35.668 40.9834 35.668ZM48.8261 37.144C48.1141 37.144 47.4901 36.952 46.9541 36.568C46.4181 36.184 45.9981 35.644 45.6941 34.948C45.3981 34.252 45.2501 33.444 45.2501 32.524C45.2501 31.596 45.3981 30.788 45.6941 30.1C45.9901 29.412 46.4061 28.876 46.9421 28.492C47.4781 28.108 48.1021 27.916 48.8141 27.916C49.5421 27.916 50.1701 28.108 50.6981 28.492C51.2341 28.876 51.6541 29.416 51.9581 30.112C52.2621 30.8 52.4141 31.604 52.4141 32.524C52.4141 33.444 52.2621 34.252 51.9581 34.948C51.6621 35.636 51.2461 36.176 50.7101 36.568C50.1741 36.952 49.5461 37.144 48.8261 37.144ZM48.8381 35.656C49.2461 35.656 49.5941 35.532 49.8821 35.284C50.1701 35.028 50.3901 34.668 50.5421 34.204C50.7021 33.732 50.7821 33.172 50.7821 32.524C50.7821 31.876 50.7021 31.32 50.5421 30.856C50.3901 30.384 50.1661 30.024 49.8701 29.776C49.5821 29.528 49.2301 29.404 48.8141 29.404C48.4141 29.404 48.0701 29.528 47.7821 29.776C47.4941 30.024 47.2701 30.384 47.1101 30.856C46.9581 31.32 46.8821 31.876 46.8821 32.524C46.8821 33.164 46.9581 33.72 47.1101 34.192C47.2701 34.656 47.4941 35.016 47.7821 35.272C48.0781 35.528 48.4301 35.656 48.8381 35.656ZM53.8062 37V27.916H55.3782V33.868L54.7782 33.688L57.8502 30.472H59.8062L57.3942 33.1L59.8542 37H58.0542L55.9182 33.616L56.8542 33.424L54.8862 35.536L55.3782 34.576V37H53.8062Z" fill="#01060F" fill-opacity="0.6"/>
<path d="M68 34.5H650" stroke="#01060F" stroke-opacity="0.2" stroke-dasharray="2 2"/>
<path d="M40.7593 85.144C40.2873 85.144 39.8353 85.056 39.4033 84.88C38.9793 84.704 38.6113 84.456 38.2993 84.136C37.9953 83.808 37.7873 83.42 37.6753 82.972L39.0913 82.468C39.2273 82.876 39.4473 83.18 39.7513 83.38C40.0553 83.572 40.3913 83.668 40.7593 83.668C41.0633 83.668 41.3313 83.604 41.5633 83.476C41.8033 83.34 41.9873 83.156 42.1153 82.924C42.2433 82.684 42.3073 82.408 42.3073 82.096C42.3073 81.784 42.2393 81.512 42.1033 81.28C41.9753 81.048 41.7953 80.868 41.5633 80.74C41.3313 80.604 41.0633 80.536 40.7593 80.536C40.4473 80.536 40.1633 80.604 39.9073 80.74C39.6593 80.876 39.4793 81.072 39.3673 81.328L38.0353 81.028L38.7433 76.06H43.6153V77.44H39.3913L40.0033 76.732L39.4993 80.476L39.0313 80.092C39.2553 79.764 39.5273 79.524 39.8473 79.372C40.1753 79.22 40.5713 79.144 41.0353 79.144C41.6273 79.144 42.1393 79.272 42.5713 79.528C43.0113 79.784 43.3513 80.132 43.5913 80.572C43.8313 81.012 43.9513 81.52 43.9513 82.096C43.9513 82.672 43.8113 83.192 43.5313 83.656C43.2513 84.12 42.8713 84.484 42.3913 84.748C41.9113 85.012 41.3673 85.144 40.7593 85.144ZM48.8261 85.144C48.1141 85.144 47.4901 84.952 46.9541 84.568C46.4181 84.184 45.9981 83.644 45.6941 82.948C45.3981 82.252 45.2501 81.444 45.2501 80.524C45.2501 79.596 45.3981 78.788 45.6941 78.1C45.9901 77.412 46.4061 76.876 46.9421 76.492C47.4781 76.108 48.1021 75.916 48.8141 75.916C49.5421 75.916 50.1701 76.108 50.6981 76.492C51.2341 76.876 51.6541 77.416 51.9581 78.112C52.2621 78.8 52.4141 79.604 52.4141 80.524C52.4141 81.444 52.2621 82.252 51.9581 82.948C51.6621 83.636 51.2461 84.176 50.7101 84.568C50.1741 84.952 49.5461 85.144 48.8261 85.144ZM48.8381 83.656C49.2461 83.656 49.5941 83.532 49.8821 83.284C50.1701 83.028 50.3901 82.668 50.5421 82.204C50.7021 81.732 50.7821 81.172 50.7821 80.524C50.7821 79.876 50.7021 79.32 50.5421 78.856C50.3901 78.384 50.1661 78.024 49.8701 77.776C49.5821 77.528 49.2301 77.404 48.8141 77.404C48.4141 77.404 48.0701 77.528 47.7821 77.776C47.4941 78.024 47.2701 78.384 47.1101 78.856C46.9581 79.32 46.8821 79.876 46.8821 80.524C46.8821 81.164 46.9581 81.72 47.1101 82.192C47.2701 82.656 47.4941 83.016 47.7821 83.272C48.0781 83.528 48.4301 83.656 48.8381 83.656ZM53.8062 85V75.916H55.3782V81.868L54.7782 81.688L57.8502 78.472H59.8062L57.3942 81.1L59.8542 85H58.0542L55.9182 81.616L56.8542 81.424L54.8862 83.536L55.3782 82.576V85H53.8062Z" fill="#01060F" fill-opacity="0.6"/>
<path d="M68 82.5H650" stroke="#01060F" stroke-opacity="0.2" stroke-dasharray="2 2"/>
<path d="M41.2626 133V131.032H37.1586V129.664L41.1666 124.06H42.8706V129.664H44.1786V131.032H42.8706V133H41.2626ZM38.3586 130.252L38.0706 129.664H41.2626V125.344L41.6826 125.476L38.3586 130.252ZM48.8261 133.144C48.1141 133.144 47.4901 132.952 46.9541 132.568C46.4181 132.184 45.9981 131.644 45.6941 130.948C45.3981 130.252 45.2501 129.444 45.2501 128.524C45.2501 127.596 45.3981 126.788 45.6941 126.1C45.9901 125.412 46.4061 124.876 46.9421 124.492C47.4781 124.108 48.1021 123.916 48.8141 123.916C49.5421 123.916 50.1701 124.108 50.6981 124.492C51.2341 124.876 51.6541 125.416 51.9581 126.112C52.2621 126.8 52.4141 127.604 52.4141 128.524C52.4141 129.444 52.2621 130.252 51.9581 130.948C51.6621 131.636 51.2461 132.176 50.7101 132.568C50.1741 132.952 49.5461 133.144 48.8261 133.144ZM48.8381 131.656C49.2461 131.656 49.5941 131.532 49.8821 131.284C50.1701 131.028 50.3901 130.668 50.5421 130.204C50.7021 129.732 50.7821 129.172 50.7821 128.524C50.7821 127.876 50.7021 127.32 50.5421 126.856C50.3901 126.384 50.1661 126.024 49.8701 125.776C49.5821 125.528 49.2301 125.404 48.8141 125.404C48.4141 125.404 48.0701 125.528 47.7821 125.776C47.4941 126.024 47.2701 126.384 47.1101 126.856C46.9581 127.32 46.8821 127.876 46.8821 128.524C46.8821 129.164 46.9581 129.72 47.1101 130.192C47.2701 130.656 47.4941 131.016 47.7821 131.272C48.0781 131.528 48.4301 131.656 48.8381 131.656ZM53.8062 133V123.916H55.3782V129.868L54.7782 129.688L57.8502 126.472H59.8062L57.3942 129.1L59.8542 133H58.0542L55.9182 129.616L56.8542 129.424L54.8862 131.536L55.3782 130.576V133H53.8062Z" fill="#01060F" fill-opacity="0.6"/>
<path d="M68 130.5H650" stroke="#01060F" stroke-opacity="0.2" stroke-dasharray="2 2"/>
<path d="M40.7582 181.144C40.2702 181.144 39.8062 181.056 39.3662 180.88C38.9342 180.696 38.5622 180.44 38.2502 180.112C37.9462 179.776 37.7382 179.38 37.6262 178.924L39.0542 178.42C39.1982 178.828 39.4182 179.14 39.7142 179.356C40.0102 179.564 40.3582 179.668 40.7582 179.668C41.0782 179.668 41.3542 179.608 41.5862 179.488C41.8262 179.368 42.0142 179.196 42.1502 178.972C42.2862 178.74 42.3542 178.468 42.3542 178.156C42.3542 177.844 42.2862 177.58 42.1502 177.364C42.0222 177.14 41.8382 176.968 41.5982 176.848C41.3582 176.728 41.0742 176.668 40.7462 176.668C40.5942 176.668 40.4342 176.684 40.2662 176.716C40.1062 176.748 39.9622 176.796 39.8342 176.86L39.4622 176.08L41.7782 173.44H38.1302V172.06H43.6142V173.344L41.2862 176.068L41.3102 175.456C41.8462 175.464 42.3142 175.58 42.7142 175.804C43.1142 176.028 43.4262 176.336 43.6502 176.728C43.8742 177.12 43.9862 177.58 43.9862 178.108C43.9862 178.684 43.8462 179.204 43.5662 179.668C43.2862 180.124 42.9022 180.484 42.4142 180.748C41.9262 181.012 41.3742 181.144 40.7582 181.144ZM48.8261 181.144C48.1141 181.144 47.4901 180.952 46.9541 180.568C46.4181 180.184 45.9981 179.644 45.6941 178.948C45.3981 178.252 45.2501 177.444 45.2501 176.524C45.2501 175.596 45.3981 174.788 45.6941 174.1C45.9901 173.412 46.4061 172.876 46.9421 172.492C47.4781 172.108 48.1021 171.916 48.8141 171.916C49.5421 171.916 50.1701 172.108 50.6981 172.492C51.2341 172.876 51.6541 173.416 51.9581 174.112C52.2621 174.8 52.4141 175.604 52.4141 176.524C52.4141 177.444 52.2621 178.252 51.9581 178.948C51.6621 179.636 51.2461 180.176 50.7101 180.568C50.1741 180.952 49.5461 181.144 48.8261 181.144ZM48.8381 179.656C49.2461 179.656 49.5941 179.532 49.8821 179.284C50.1701 179.028 50.3901 178.668 50.5421 178.204C50.7021 177.732 50.7821 177.172 50.7821 176.524C50.7821 175.876 50.7021 175.32 50.5421 174.856C50.3901 174.384 50.1661 174.024 49.8701 173.776C49.5821 173.528 49.2301 173.404 48.8141 173.404C48.4141 173.404 48.0701 173.528 47.7821 173.776C47.4941 174.024 47.2701 174.384 47.1101 174.856C46.9581 175.32 46.8821 175.876 46.8821 176.524C46.8821 177.164 46.9581 177.72 47.1101 178.192C47.2701 178.656 47.4941 179.016 47.7821 179.272C48.0781 179.528 48.4301 179.656 48.8381 179.656ZM53.8062 181V171.916H55.3782V177.868L54.7782 177.688L57.8502 174.472H59.8062L57.3942 177.1L59.8542 181H58.0542L55.9182 177.616L56.8542 177.424L54.8862 179.536L55.3782 178.576V181H53.8062Z" fill="#01060F" fill-opacity="0.6"/>
<path d="M68 178.5H650" stroke="#01060F" stroke-opacity="0.2" stroke-dasharray="2 2"/>
<path d="M37.97 229V227.764L40.394 225.232C40.874 224.728 41.242 224.328 41.498 224.032C41.762 223.728 41.946 223.468 42.05 223.252C42.154 223.036 42.206 222.816 42.206 222.592C42.206 222.216 42.086 221.92 41.846 221.704C41.614 221.488 41.314 221.38 40.946 221.38C40.562 221.38 40.23 221.492 39.95 221.716C39.67 221.932 39.466 222.252 39.338 222.676L37.91 222.232C38.006 221.76 38.202 221.352 38.498 221.008C38.794 220.656 39.154 220.388 39.578 220.204C40.01 220.012 40.466 219.916 40.946 219.916C41.522 219.916 42.026 220.02 42.458 220.228C42.898 220.436 43.238 220.728 43.478 221.104C43.726 221.48 43.85 221.92 43.85 222.424C43.85 222.744 43.79 223.06 43.67 223.372C43.55 223.684 43.37 224.004 43.13 224.332C42.89 224.652 42.578 225.012 42.194 225.412L40.094 227.62H43.97V229H37.97ZM48.8261 229.144C48.1141 229.144 47.4901 228.952 46.9541 228.568C46.4181 228.184 45.9981 227.644 45.6941 226.948C45.3981 226.252 45.2501 225.444 45.2501 224.524C45.2501 223.596 45.3981 222.788 45.6941 222.1C45.9901 221.412 46.4061 220.876 46.9421 220.492C47.4781 220.108 48.1021 219.916 48.8141 219.916C49.5421 219.916 50.1701 220.108 50.6981 220.492C51.2341 220.876 51.6541 221.416 51.9581 222.112C52.2621 222.8 52.4141 223.604 52.4141 224.524C52.4141 225.444 52.2621 226.252 51.9581 226.948C51.6621 227.636 51.2461 228.176 50.7101 228.568C50.1741 228.952 49.5461 229.144 48.8261 229.144ZM48.8381 227.656C49.2461 227.656 49.5941 227.532 49.8821 227.284C50.1701 227.028 50.3901 226.668 50.5421 226.204C50.7021 225.732 50.7821 225.172 50.7821 224.524C50.7821 223.876 50.7021 223.32 50.5421 222.856C50.3901 222.384 50.1661 222.024 49.8701 221.776C49.5821 221.528 49.2301 221.404 48.8141 221.404C48.4141 221.404 48.0701 221.528 47.7821 221.776C47.4941 222.024 47.2701 222.384 47.1101 222.856C46.9581 223.32 46.8821 223.876 46.8821 224.524C46.8821 225.164 46.9581 225.72 47.1101 226.192C47.2701 226.656 47.4941 227.016 47.7821 227.272C48.0781 227.528 48.4301 227.656 48.8381 227.656ZM53.8062 229V219.916H55.3782V225.868L54.7782 225.688L57.8502 222.472H59.8062L57.3942 225.1L59.8542 229H58.0542L55.9182 225.616L56.8542 225.424L54.8862 227.536L55.3782 226.576V229H53.8062Z" fill="#01060F" fill-opacity="0.6"/>
<path d="M68 226.5H650" stroke="#01060F" stroke-opacity="0.2" stroke-dasharray="2 2"/>
<path d="M41.8143 277V269.452H40.0863V268.06H43.4463V277H41.8143ZM48.8261 277.144C48.1141 277.144 47.4901 276.952 46.9541 276.568C46.4181 276.184 45.9981 275.644 45.6941 274.948C45.3981 274.252 45.2501 273.444 45.2501 272.524C45.2501 271.596 45.3981 270.788 45.6941 270.1C45.9901 269.412 46.4061 268.876 46.9421 268.492C47.4781 268.108 48.1021 267.916 48.8141 267.916C49.5421 267.916 50.1701 268.108 50.6981 268.492C51.2341 268.876 51.6541 269.416 51.9581 270.112C52.2621 270.8 52.4141 271.604 52.4141 272.524C52.4141 273.444 52.2621 274.252 51.9581 274.948C51.6621 275.636 51.2461 276.176 50.7101 276.568C50.1741 276.952 49.5461 277.144 48.8261 277.144ZM48.8381 275.656C49.2461 275.656 49.5941 275.532 49.8821 275.284C50.1701 275.028 50.3901 274.668 50.5421 274.204C50.7021 273.732 50.7821 273.172 50.7821 272.524C50.7821 271.876 50.7021 271.32 50.5421 270.856C50.3901 270.384 50.1661 270.024 49.8701 269.776C49.5821 269.528 49.2301 269.404 48.8141 269.404C48.4141 269.404 48.0701 269.528 47.7821 269.776C47.4941 270.024 47.2701 270.384 47.1101 270.856C46.9581 271.32 46.8821 271.876 46.8821 272.524C46.8821 273.164 46.9581 273.72 47.1101 274.192C47.2701 274.656 47.4941 275.016 47.7821 275.272C48.0781 275.528 48.4301 275.656 48.8381 275.656ZM53.8062 277V267.916H55.3782V273.868L54.7782 273.688L57.8502 270.472H59.8062L57.3942 273.1L59.8542 277H58.0542L55.9182 273.616L56.8542 273.424L54.8862 275.536L55.3782 274.576V277H53.8062Z" fill="#01060F" fill-opacity="0.6"/>
<path d="M68 274.5H650" stroke="#01060F" stroke-opacity="0.2" stroke-dasharray="2 2"/>
<path d="M55.7519 325.144C55.0399 325.144 54.4159 324.952 53.8799 324.568C53.3439 324.184 52.9239 323.644 52.6199 322.948C52.3239 322.252 52.1759 321.444 52.1759 320.524C52.1759 319.596 52.3239 318.788 52.6199 318.1C52.9159 317.412 53.3319 316.876 53.8679 316.492C54.4039 316.108 55.0279 315.916 55.7399 315.916C56.4679 315.916 57.0959 316.108 57.6239 316.492C58.1599 316.876 58.5799 317.416 58.8839 318.112C59.1879 318.8 59.3399 319.604 59.3399 320.524C59.3399 321.444 59.1879 322.252 58.8839 322.948C58.5879 323.636 58.1719 324.176 57.6359 324.568C57.0999 324.952 56.4719 325.144 55.7519 325.144ZM55.7639 323.656C56.1719 323.656 56.5199 323.532 56.8079 323.284C57.0959 323.028 57.3159 322.668 57.4679 322.204C57.6279 321.732 57.7079 321.172 57.7079 320.524C57.7079 319.876 57.6279 319.32 57.4679 318.856C57.3159 318.384 57.0919 318.024 56.7959 317.776C56.5079 317.528 56.1559 317.404 55.7399 317.404C55.3399 317.404 54.9959 317.528 54.7079 317.776C54.4199 318.024 54.1959 318.384 54.0359 318.856C53.8839 319.32 53.8079 319.876 53.8079 320.524C53.8079 321.164 53.8839 321.72 54.0359 322.192C54.1959 322.656 54.4199 323.016 54.7079 323.272C55.0039 323.528 55.3559 323.656 55.7639 323.656Z" fill="#01060F" fill-opacity="0.6"/>
<rect x="68" y="322" width="582" height="1" fill="#01060F" fill-opacity="0.4"/>
<path d="M54.6953 341.144C53.9833 341.144 53.3593 340.952 52.8233 340.568C52.2873 340.184 51.8673 339.644 51.5633 338.948C51.2673 338.252 51.1193 337.444 51.1193 336.524C51.1193 335.596 51.2673 334.788 51.5633 334.1C51.8593 333.412 52.2753 332.876 52.8113 332.492C53.3473 332.108 53.9713 331.916 54.6833 331.916C55.4113 331.916 56.0393 332.108 56.5673 332.492C57.1033 332.876 57.5233 333.416 57.8273 334.112C58.1313 334.8 58.2833 335.604 58.2833 336.524C58.2833 337.444 58.1313 338.252 57.8273 338.948C57.5313 339.636 57.1153 340.176 56.5793 340.568C56.0433 340.952 55.4153 341.144 54.6953 341.144ZM54.7073 339.656C55.1153 339.656 55.4633 339.532 55.7513 339.284C56.0393 339.028 56.2593 338.668 56.4113 338.204C56.5713 337.732 56.6513 337.172 56.6513 336.524C56.6513 335.876 56.5713 335.32 56.4113 334.856C56.2593 334.384 56.0353 334.024 55.7393 333.776C55.4513 333.528 55.0993 333.404 54.6833 333.404C54.2833 333.404 53.9393 333.528 53.6513 333.776C53.3633 334.024 53.1393 334.384 52.9793 334.856C52.8273 335.32 52.7513 335.876 52.7513 336.524C52.7513 337.164 52.8273 337.72 52.9793 338.192C53.1393 338.656 53.3633 339.016 53.6513 339.272C53.9473 339.528 54.2993 339.656 54.7073 339.656ZM60.0714 341L63.1074 337.088L63.3834 337.376C63.2634 337.464 63.1474 337.536 63.0354 337.592C62.9234 337.648 62.8034 337.688 62.6754 337.712C62.5474 337.736 62.4114 337.748 62.2674 337.748C61.7234 337.748 61.2394 337.624 60.8154 337.376C60.3914 337.128 60.0554 336.792 59.8074 336.368C59.5674 335.936 59.4474 335.448 59.4474 334.904C59.4474 334.328 59.5794 333.816 59.8434 333.368C60.1154 332.92 60.4834 332.568 60.9474 332.312C61.4194 332.048 61.9554 331.916 62.5554 331.916C63.1634 331.916 63.6994 332.044 64.1634 332.3C64.6274 332.556 64.9914 332.908 65.2554 333.356C65.5274 333.796 65.6634 334.304 65.6634 334.88C65.6634 335.168 65.6314 335.456 65.5674 335.744C65.5034 336.032 65.3874 336.34 65.2194 336.668C65.0594 336.988 64.8274 337.352 64.5234 337.76L62.0274 341H60.0714ZM62.5554 336.38C62.8354 336.38 63.0834 336.32 63.2994 336.2C63.5234 336.072 63.6994 335.896 63.8274 335.672C63.9554 335.44 64.0194 335.18 64.0194 334.892C64.0194 334.588 63.9514 334.324 63.8154 334.1C63.6874 333.876 63.5154 333.7 63.2994 333.572C63.0834 333.444 62.8354 333.38 62.5554 333.38C62.2834 333.38 62.0354 333.444 61.8114 333.572C61.5874 333.7 61.4074 333.876 61.2714 334.1C61.1434 334.324 61.0794 334.588 61.0794 334.892C61.0794 335.18 61.1434 335.44 61.2714 335.672C61.4074 335.896 61.5874 336.072 61.8114 336.2C62.0354 336.32 62.2834 336.38 62.5554 336.38ZM66.3541 342.44L70.3381 332.54H72.0541L68.0701 342.44H66.3541ZM72.7844 341V339.764L75.2084 337.232C75.6884 336.728 76.0564 336.328 76.3124 336.032C76.5764 335.728 76.7604 335.468 76.8644 335.252C76.9684 335.036 77.0204 334.816 77.0204 334.592C77.0204 334.216 76.9004 333.92 76.6604 333.704C76.4284 333.488 76.1284 333.38 75.7604 333.38C75.3764 333.38 75.0444 333.492 74.7644 333.716C74.4844 333.932 74.2804 334.252 74.1524 334.676L72.7244 334.232C72.8204 333.76 73.0164 333.352 73.3124 333.008C73.6084 332.656 73.9684 332.388 74.3924 332.204C74.8244 332.012 75.2804 331.916 75.7604 331.916C76.3364 331.916 76.8404 332.02 77.2724 332.228C77.7124 332.436 78.0524 332.728 78.2924 333.104C78.5404 333.48 78.6644 333.92 78.6644 334.424C78.6644 334.744 78.6044 335.06 78.4844 335.372C78.3644 335.684 78.1844 336.004 77.9444 336.332C77.7044 336.652 77.3924 337.012 77.0084 337.412L74.9084 339.62H78.7844V341H72.7844ZM79.9446 341V339.764L82.3686 337.232C82.8486 336.728 83.2166 336.328 83.4726 336.032C83.7366 335.728 83.9206 335.468 84.0246 335.252C84.1286 335.036 84.1806 334.816 84.1806 334.592C84.1806 334.216 84.0606 333.92 83.8206 333.704C83.5886 333.488 83.2886 333.38 82.9206 333.38C82.5366 333.38 82.2046 333.492 81.9246 333.716C81.6446 333.932 81.4406 334.252 81.3126 334.676L79.8846 334.232C79.9806 333.76 80.1766 333.352 80.4726 333.008C80.7686 332.656 81.1286 332.388 81.5526 332.204C81.9846 332.012 82.4406 331.916 82.9206 331.916C83.4966 331.916 84.0006 332.02 84.4326 332.228C84.8726 332.436 85.2126 332.728 85.4526 333.104C85.7006 333.48 85.8246 333.92 85.8246 334.424C85.8246 334.744 85.7646 335.06 85.6446 335.372C85.5246 335.684 85.3446 336.004 85.1046 336.332C84.8646 336.652 84.5526 337.012 84.1686 337.412L82.0686 339.62H85.9446V341H79.9446Z" fill="#01060F" fill-opacity="0.6"/>
<rect x="68" y="322" width="1" height="1" fill="#01060F" fill-opacity="0.4"/>
<rect x="68" y="323" width="1" height="3" fill="#01060F" fill-opacity="0.4"/>
<path d="M119.607 341.144C118.895 341.144 118.271 340.952 117.735 340.568C117.199 340.184 116.779 339.644 116.475 338.948C116.179 338.252 116.031 337.444 116.031 336.524C116.031 335.596 116.179 334.788 116.475 334.1C116.771 333.412 117.187 332.876 117.723 332.492C118.259 332.108 118.883 331.916 119.595 331.916C120.323 331.916 120.951 332.108 121.479 332.492C122.015 332.876 122.435 333.416 122.739 334.112C123.043 334.8 123.195 335.604 123.195 336.524C123.195 337.444 123.043 338.252 122.739 338.948C122.443 339.636 122.027 340.176 121.491 340.568C120.955 340.952 120.327 341.144 119.607 341.144ZM119.619 339.656C120.027 339.656 120.375 339.532 120.663 339.284C120.951 339.028 121.171 338.668 121.323 338.204C121.483 337.732 121.563 337.172 121.563 336.524C121.563 335.876 121.483 335.32 121.323 334.856C121.171 334.384 120.947 334.024 120.651 333.776C120.363 333.528 120.011 333.404 119.595 333.404C119.195 333.404 118.851 333.528 118.563 333.776C118.275 334.024 118.051 334.384 117.891 334.856C117.739 335.32 117.663 335.876 117.663 336.524C117.663 337.164 117.739 337.72 117.891 338.192C118.051 338.656 118.275 339.016 118.563 339.272C118.859 339.528 119.211 339.656 119.619 339.656ZM124.983 341L128.019 337.088L128.295 337.376C128.175 337.464 128.059 337.536 127.947 337.592C127.835 337.648 127.715 337.688 127.587 337.712C127.459 337.736 127.323 337.748 127.179 337.748C126.635 337.748 126.151 337.624 125.727 337.376C125.303 337.128 124.967 336.792 124.719 336.368C124.479 335.936 124.359 335.448 124.359 334.904C124.359 334.328 124.491 333.816 124.755 333.368C125.027 332.92 125.395 332.568 125.859 332.312C126.331 332.048 126.867 331.916 127.467 331.916C128.075 331.916 128.611 332.044 129.075 332.3C129.539 332.556 129.903 332.908 130.167 333.356C130.439 333.796 130.575 334.304 130.575 334.88C130.575 335.168 130.543 335.456 130.479 335.744C130.415 336.032 130.299 336.34 130.131 336.668C129.971 336.988 129.739 337.352 129.435 337.76L126.939 341H124.983ZM127.467 336.38C127.747 336.38 127.995 336.32 128.211 336.2C128.435 336.072 128.611 335.896 128.739 335.672C128.867 335.44 128.931 335.18 128.931 334.892C128.931 334.588 128.863 334.324 128.727 334.1C128.599 333.876 128.427 333.7 128.211 333.572C127.995 333.444 127.747 333.38 127.467 333.38C127.195 333.38 126.947 333.444 126.723 333.572C126.499 333.7 126.319 333.876 126.183 334.1C126.055 334.324 125.991 334.588 125.991 334.892C125.991 335.18 126.055 335.44 126.183 335.672C126.319 335.896 126.499 336.072 126.723 336.2C126.947 336.32 127.195 336.38 127.467 336.38ZM131.266 342.44L135.25 332.54H136.966L132.982 342.44H131.266ZM137.697 341V339.764L140.121 337.232C140.601 336.728 140.969 336.328 141.225 336.032C141.489 335.728 141.673 335.468 141.777 335.252C141.881 335.036 141.933 334.816 141.933 334.592C141.933 334.216 141.813 333.92 141.573 333.704C141.341 333.488 141.041 333.38 140.673 333.38C140.289 333.38 139.957 333.492 139.677 333.716C139.397 333.932 139.193 334.252 139.065 334.676L137.637 334.232C137.733 333.76 137.929 333.352 138.225 333.008C138.521 332.656 138.881 332.388 139.305 332.204C139.737 332.012 140.193 331.916 140.673 331.916C141.249 331.916 141.753 332.02 142.185 332.228C142.625 332.436 142.965 332.728 143.205 333.104C143.453 333.48 143.577 333.92 143.577 334.424C143.577 334.744 143.517 335.06 143.397 335.372C143.277 335.684 143.097 336.004 142.857 336.332C142.617 336.652 142.305 337.012 141.921 337.412L139.821 339.62H143.697V341H137.697ZM147.821 341.144C147.333 341.144 146.869 341.056 146.429 340.88C145.997 340.696 145.625 340.44 145.313 340.112C145.009 339.776 144.801 339.38 144.689 338.924L146.117 338.42C146.261 338.828 146.481 339.14 146.777 339.356C147.073 339.564 147.421 339.668 147.821 339.668C148.141 339.668 148.417 339.608 148.649 339.488C148.889 339.368 149.077 339.196 149.213 338.972C149.349 338.74 149.417 338.468 149.417 338.156C149.417 337.844 149.349 337.58 149.213 337.364C149.085 337.14 148.901 336.968 148.661 336.848C148.421 336.728 148.137 336.668 147.809 336.668C147.657 336.668 147.497 336.684 147.329 336.716C147.169 336.748 147.025 336.796 146.897 336.86L146.525 336.08L148.841 333.44H145.193V332.06H150.677V333.344L148.349 336.068L148.373 335.456C148.909 335.464 149.377 335.58 149.777 335.804C150.177 336.028 150.489 336.336 150.713 336.728C150.937 337.12 151.049 337.58 151.049 338.108C151.049 338.684 150.909 339.204 150.629 339.668C150.349 340.124 149.965 340.484 149.477 340.748C148.989 341.012 148.437 341.144 147.821 341.144Z" fill="#01060F" fill-opacity="0.6"/>
<rect x="133" y="322" width="1" height="1" fill="#01060F" fill-opacity="0.2"/>
<rect x="133" y="323" width="1" height="3" fill="#01060F" fill-opacity="0.2"/>
<path d="M183.964 341.144C183.252 341.144 182.628 340.952 182.092 340.568C181.556 340.184 181.136 339.644 180.832 338.948C180.536 338.252 180.388 337.444 180.388 336.524C180.388 335.596 180.536 334.788 180.832 334.1C181.128 333.412 181.544 332.876 182.08 332.492C182.616 332.108 183.24 331.916 183.952 331.916C184.68 331.916 185.308 332.108 185.836 332.492C186.372 332.876 186.792 333.416 187.096 334.112C187.4 334.8 187.552 335.604 187.552 336.524C187.552 337.444 187.4 338.252 187.096 338.948C186.8 339.636 186.384 340.176 185.848 340.568C185.312 340.952 184.684 341.144 183.964 341.144ZM183.976 339.656C184.384 339.656 184.732 339.532 185.02 339.284C185.308 339.028 185.528 338.668 185.68 338.204C185.84 337.732 185.92 337.172 185.92 336.524C185.92 335.876 185.84 335.32 185.68 334.856C185.528 334.384 185.304 334.024 185.008 333.776C184.72 333.528 184.368 333.404 183.952 333.404C183.552 333.404 183.208 333.528 182.92 333.776C182.632 334.024 182.408 334.384 182.248 334.856C182.096 335.32 182.02 335.876 182.02 336.524C182.02 337.164 182.096 337.72 182.248 338.192C182.408 338.656 182.632 339.016 182.92 339.272C183.216 339.528 183.568 339.656 183.976 339.656ZM189.34 341L192.376 337.088L192.652 337.376C192.532 337.464 192.416 337.536 192.304 337.592C192.192 337.648 192.072 337.688 191.944 337.712C191.816 337.736 191.68 337.748 191.536 337.748C190.992 337.748 190.508 337.624 190.084 337.376C189.66 337.128 189.324 336.792 189.076 336.368C188.836 335.936 188.716 335.448 188.716 334.904C188.716 334.328 188.848 333.816 189.112 333.368C189.384 332.92 189.752 332.568 190.216 332.312C190.688 332.048 191.224 331.916 191.824 331.916C192.432 331.916 192.968 332.044 193.432 332.3C193.896 332.556 194.26 332.908 194.524 333.356C194.796 333.796 194.932 334.304 194.932 334.88C194.932 335.168 194.9 335.456 194.836 335.744C194.772 336.032 194.656 336.34 194.488 336.668C194.328 336.988 194.096 337.352 193.792 337.76L191.296 341H189.34ZM191.824 336.38C192.104 336.38 192.352 336.32 192.568 336.2C192.792 336.072 192.968 335.896 193.096 335.672C193.224 335.44 193.288 335.18 193.288 334.892C193.288 334.588 193.22 334.324 193.084 334.1C192.956 333.876 192.784 333.7 192.568 333.572C192.352 333.444 192.104 333.38 191.824 333.38C191.552 333.38 191.304 333.444 191.08 333.572C190.856 333.7 190.676 333.876 190.54 334.1C190.412 334.324 190.348 334.588 190.348 334.892C190.348 335.18 190.412 335.44 190.54 335.672C190.676 335.896 190.856 336.072 191.08 336.2C191.304 336.32 191.552 336.38 191.824 336.38ZM195.623 342.44L199.607 332.54H201.323L197.339 342.44H195.623ZM202.053 341V339.764L204.477 337.232C204.957 336.728 205.325 336.328 205.581 336.032C205.845 335.728 206.029 335.468 206.133 335.252C206.237 335.036 206.289 334.816 206.289 334.592C206.289 334.216 206.169 333.92 205.929 333.704C205.697 333.488 205.397 333.38 205.029 333.38C204.645 333.38 204.313 333.492 204.033 333.716C203.753 333.932 203.549 334.252 203.421 334.676L201.993 334.232C202.089 333.76 202.285 333.352 202.581 333.008C202.877 332.656 203.237 332.388 203.661 332.204C204.093 332.012 204.549 331.916 205.029 331.916C205.605 331.916 206.109 332.02 206.541 332.228C206.981 332.436 207.321 332.728 207.561 333.104C207.809 333.48 207.933 333.92 207.933 334.424C207.933 334.744 207.873 335.06 207.753 335.372C207.633 335.684 207.453 336.004 207.213 336.332C206.973 336.652 206.661 337.012 206.277 337.412L204.177 339.62H208.053V341H202.053ZM213.08 341V339.032H208.976V337.664L212.984 332.06H214.688V337.664H215.996V339.032H214.688V341H213.08ZM210.176 338.252L209.888 337.664H213.08V333.344L213.5 333.476L210.176 338.252Z" fill="#01060F" fill-opacity="0.6"/>
<rect x="197.556" y="322" width="1" height="1" fill="#01060F" fill-opacity="0.2"/>
<rect x="197.556" y="323" width="1" height="3" fill="#01060F" fill-opacity="0.2"/>
<path d="M248.695 341.144C247.983 341.144 247.359 340.952 246.823 340.568C246.287 340.184 245.867 339.644 245.563 338.948C245.267 338.252 245.119 337.444 245.119 336.524C245.119 335.596 245.267 334.788 245.563 334.1C245.859 333.412 246.275 332.876 246.811 332.492C247.347 332.108 247.971 331.916 248.683 331.916C249.411 331.916 250.039 332.108 250.567 332.492C251.103 332.876 251.523 333.416 251.827 334.112C252.131 334.8 252.283 335.604 252.283 336.524C252.283 337.444 252.131 338.252 251.827 338.948C251.531 339.636 251.115 340.176 250.579 340.568C250.043 340.952 249.415 341.144 248.695 341.144ZM248.707 339.656C249.115 339.656 249.463 339.532 249.751 339.284C250.039 339.028 250.259 338.668 250.411 338.204C250.571 337.732 250.651 337.172 250.651 336.524C250.651 335.876 250.571 335.32 250.411 334.856C250.259 334.384 250.035 334.024 249.739 333.776C249.451 333.528 249.099 333.404 248.683 333.404C248.283 333.404 247.939 333.528 247.651 333.776C247.363 334.024 247.139 334.384 246.979 334.856C246.827 335.32 246.751 335.876 246.751 336.524C246.751 337.164 246.827 337.72 246.979 338.192C247.139 338.656 247.363 339.016 247.651 339.272C247.947 339.528 248.299 339.656 248.707 339.656ZM254.071 341L257.107 337.088L257.383 337.376C257.263 337.464 257.147 337.536 257.035 337.592C256.923 337.648 256.803 337.688 256.675 337.712C256.547 337.736 256.411 337.748 256.267 337.748C255.723 337.748 255.239 337.624 254.815 337.376C254.391 337.128 254.055 336.792 253.807 336.368C253.567 335.936 253.447 335.448 253.447 334.904C253.447 334.328 253.579 333.816 253.843 333.368C254.115 332.92 254.483 332.568 254.947 332.312C255.419 332.048 255.955 331.916 256.555 331.916C257.163 331.916 257.699 332.044 258.163 332.3C258.627 332.556 258.991 332.908 259.255 333.356C259.527 333.796 259.663 334.304 259.663 334.88C259.663 335.168 259.631 335.456 259.567 335.744C259.503 336.032 259.387 336.34 259.219 336.668C259.059 336.988 258.827 337.352 258.523 337.76L256.027 341H254.071ZM256.555 336.38C256.835 336.38 257.083 336.32 257.299 336.2C257.523 336.072 257.699 335.896 257.827 335.672C257.955 335.44 258.019 335.18 258.019 334.892C258.019 334.588 257.951 334.324 257.815 334.1C257.687 333.876 257.515 333.7 257.299 333.572C257.083 333.444 256.835 333.38 256.555 333.38C256.283 333.38 256.035 333.444 255.811 333.572C255.587 333.7 255.407 333.876 255.271 334.1C255.143 334.324 255.079 334.588 255.079 334.892C255.079 335.18 255.143 335.44 255.271 335.672C255.407 335.896 255.587 336.072 255.811 336.2C256.035 336.32 256.283 336.38 256.555 336.38ZM260.354 342.44L264.338 332.54H266.054L262.07 342.44H260.354ZM266.784 341V339.764L269.208 337.232C269.688 336.728 270.056 336.328 270.312 336.032C270.576 335.728 270.76 335.468 270.864 335.252C270.968 335.036 271.02 334.816 271.02 334.592C271.02 334.216 270.9 333.92 270.66 333.704C270.428 333.488 270.128 333.38 269.76 333.38C269.376 333.38 269.044 333.492 268.764 333.716C268.484 333.932 268.28 334.252 268.152 334.676L266.724 334.232C266.82 333.76 267.016 333.352 267.312 333.008C267.608 332.656 267.968 332.388 268.392 332.204C268.824 332.012 269.28 331.916 269.76 331.916C270.336 331.916 270.84 332.02 271.272 332.228C271.712 332.436 272.052 332.728 272.292 333.104C272.54 333.48 272.664 333.92 272.664 334.424C272.664 334.744 272.604 335.06 272.484 335.372C272.364 335.684 272.184 336.004 271.944 336.332C271.704 336.652 271.392 337.012 271.008 337.412L268.908 339.62H272.784V341H266.784ZM276.956 341.144C276.484 341.144 276.032 341.056 275.6 340.88C275.176 340.704 274.808 340.456 274.496 340.136C274.192 339.808 273.984 339.42 273.872 338.972L275.288 338.468C275.424 338.876 275.644 339.18 275.948 339.38C276.252 339.572 276.588 339.668 276.956 339.668C277.26 339.668 277.528 339.604 277.76 339.476C278 339.34 278.184 339.156 278.312 338.924C278.44 338.684 278.504 338.408 278.504 338.096C278.504 337.784 278.436 337.512 278.3 337.28C278.172 337.048 277.992 336.868 277.76 336.74C277.528 336.604 277.26 336.536 276.956 336.536C276.644 336.536 276.36 336.604 276.104 336.74C275.856 336.876 275.676 337.072 275.564 337.328L274.232 337.028L274.94 332.06H279.812V333.44H275.588L276.2 332.732L275.696 336.476L275.228 336.092C275.452 335.764 275.724 335.524 276.044 335.372C276.372 335.22 276.768 335.144 277.232 335.144C277.824 335.144 278.336 335.272 278.768 335.528C279.208 335.784 279.548 336.132 279.788 336.572C280.028 337.012 280.148 337.52 280.148 338.096C280.148 338.672 280.008 339.192 279.728 339.656C279.448 340.12 279.068 340.484 278.588 340.748C278.108 341.012 277.564 341.144 276.956 341.144Z" fill="#01060F" fill-opacity="0.6"/>
<rect x="262.111" y="322" width="1" height="1" fill="#01060F" fill-opacity="0.2"/>
<rect x="262.111" y="323" width="1" height="3" fill="#01060F" fill-opacity="0.2"/>
<path d="M313.333 341.144C312.621 341.144 311.997 340.952 311.461 340.568C310.925 340.184 310.505 339.644 310.201 338.948C309.905 338.252 309.757 337.444 309.757 336.524C309.757 335.596 309.905 334.788 310.201 334.1C310.497 333.412 310.913 332.876 311.449 332.492C311.985 332.108 312.609 331.916 313.321 331.916C314.049 331.916 314.677 332.108 315.205 332.492C315.741 332.876 316.161 333.416 316.465 334.112C316.769 334.8 316.921 335.604 316.921 336.524C316.921 337.444 316.769 338.252 316.465 338.948C316.169 339.636 315.753 340.176 315.217 340.568C314.681 340.952 314.053 341.144 313.333 341.144ZM313.345 339.656C313.753 339.656 314.101 339.532 314.389 339.284C314.677 339.028 314.897 338.668 315.049 338.204C315.209 337.732 315.289 337.172 315.289 336.524C315.289 335.876 315.209 335.32 315.049 334.856C314.897 334.384 314.673 334.024 314.377 333.776C314.089 333.528 313.737 333.404 313.321 333.404C312.921 333.404 312.577 333.528 312.289 333.776C312.001 334.024 311.777 334.384 311.617 334.856C311.465 335.32 311.389 335.876 311.389 336.524C311.389 337.164 311.465 337.72 311.617 338.192C311.777 338.656 312.001 339.016 312.289 339.272C312.585 339.528 312.937 339.656 313.345 339.656ZM318.709 341L321.745 337.088L322.021 337.376C321.901 337.464 321.785 337.536 321.673 337.592C321.561 337.648 321.441 337.688 321.313 337.712C321.185 337.736 321.049 337.748 320.905 337.748C320.361 337.748 319.877 337.624 319.453 337.376C319.029 337.128 318.693 336.792 318.445 336.368C318.205 335.936 318.085 335.448 318.085 334.904C318.085 334.328 318.217 333.816 318.481 333.368C318.753 332.92 319.121 332.568 319.585 332.312C320.057 332.048 320.593 331.916 321.193 331.916C321.801 331.916 322.337 332.044 322.801 332.3C323.265 332.556 323.629 332.908 323.893 333.356C324.165 333.796 324.301 334.304 324.301 334.88C324.301 335.168 324.269 335.456 324.205 335.744C324.141 336.032 324.025 336.34 323.857 336.668C323.697 336.988 323.465 337.352 323.161 337.76L320.665 341H318.709ZM321.193 336.38C321.473 336.38 321.721 336.32 321.937 336.2C322.161 336.072 322.337 335.896 322.465 335.672C322.593 335.44 322.657 335.18 322.657 334.892C322.657 334.588 322.589 334.324 322.453 334.1C322.325 333.876 322.153 333.7 321.937 333.572C321.721 333.444 321.473 333.38 321.193 333.38C320.921 333.38 320.673 333.444 320.449 333.572C320.225 333.7 320.045 333.876 319.909 334.1C319.781 334.324 319.717 334.588 319.717 334.892C319.717 335.18 319.781 335.44 319.909 335.672C320.045 335.896 320.225 336.072 320.449 336.2C320.673 336.32 320.921 336.38 321.193 336.38ZM324.991 342.44L328.975 332.54H330.691L326.707 342.44H324.991ZM331.422 341V339.764L333.846 337.232C334.326 336.728 334.694 336.328 334.95 336.032C335.214 335.728 335.398 335.468 335.502 335.252C335.606 335.036 335.658 334.816 335.658 334.592C335.658 334.216 335.538 333.92 335.298 333.704C335.066 333.488 334.766 333.38 334.398 333.38C334.014 333.38 333.682 333.492 333.402 333.716C333.122 333.932 332.918 334.252 332.79 334.676L331.362 334.232C331.458 333.76 331.654 333.352 331.95 333.008C332.246 332.656 332.606 332.388 333.03 332.204C333.462 332.012 333.918 331.916 334.398 331.916C334.974 331.916 335.478 332.02 335.91 332.228C336.35 332.436 336.69 332.728 336.93 333.104C337.178 333.48 337.302 333.92 337.302 334.424C337.302 334.744 337.242 335.06 337.122 335.372C337.002 335.684 336.822 336.004 336.582 336.332C336.342 336.652 336.03 337.012 335.646 337.412L333.546 339.62H337.422V341H331.422ZM341.654 341.144C341.046 341.144 340.506 341.016 340.034 340.76C339.57 340.496 339.206 340.144 338.942 339.704C338.678 339.256 338.546 338.748 338.546 338.18C338.546 337.892 338.574 337.604 338.63 337.316C338.694 337.028 338.806 336.72 338.966 336.392C339.134 336.064 339.374 335.7 339.686 335.3L342.182 332.06H344.126L341.09 335.96L340.826 335.672C340.938 335.584 341.054 335.516 341.174 335.468C341.294 335.412 341.414 335.372 341.534 335.348C341.662 335.324 341.794 335.312 341.93 335.312C342.474 335.312 342.958 335.436 343.382 335.684C343.806 335.932 344.138 336.272 344.378 336.704C344.626 337.128 344.75 337.608 344.75 338.144C344.75 338.72 344.618 339.236 344.354 339.692C344.09 340.14 343.722 340.496 343.25 340.76C342.786 341.016 342.254 341.144 341.654 341.144ZM341.654 339.668C341.926 339.668 342.17 339.608 342.386 339.488C342.61 339.36 342.786 339.18 342.914 338.948C343.05 338.716 343.118 338.456 343.118 338.168C343.118 337.864 343.05 337.604 342.914 337.388C342.786 337.164 342.614 336.988 342.398 336.86C342.182 336.732 341.934 336.668 341.654 336.668C341.382 336.668 341.134 336.732 340.91 336.86C340.686 336.988 340.506 337.164 340.37 337.388C340.242 337.604 340.178 337.864 340.178 338.168C340.178 338.456 340.242 338.716 340.37 338.948C340.506 339.18 340.686 339.36 340.91 339.488C341.134 339.608 341.382 339.668 341.654 339.668Z" fill="#01060F" fill-opacity="0.6"/>
<rect x="326.667" y="322" width="1" height="1" fill="#01060F" fill-opacity="0.2"/>
<rect x="326.667" y="323" width="1" height="3" fill="#01060F" fill-opacity="0.2"/>
<path d="M377.646 341.144C376.934 341.144 376.31 340.952 375.774 340.568C375.238 340.184 374.818 339.644 374.514 338.948C374.218 338.252 374.07 337.444 374.07 336.524C374.07 335.596 374.218 334.788 374.514 334.1C374.81 333.412 375.226 332.876 375.762 332.492C376.298 332.108 376.922 331.916 377.634 331.916C378.362 331.916 378.99 332.108 379.518 332.492C380.054 332.876 380.474 333.416 380.778 334.112C381.082 334.8 381.234 335.604 381.234 336.524C381.234 337.444 381.082 338.252 380.778 338.948C380.482 339.636 380.066 340.176 379.53 340.568C378.994 340.952 378.366 341.144 377.646 341.144ZM377.658 339.656C378.066 339.656 378.414 339.532 378.702 339.284C378.99 339.028 379.21 338.668 379.362 338.204C379.522 337.732 379.602 337.172 379.602 336.524C379.602 335.876 379.522 335.32 379.362 334.856C379.21 334.384 378.986 334.024 378.69 333.776C378.402 333.528 378.05 333.404 377.634 333.404C377.234 333.404 376.89 333.528 376.602 333.776C376.314 334.024 376.09 334.384 375.93 334.856C375.778 335.32 375.702 335.876 375.702 336.524C375.702 337.164 375.778 337.72 375.93 338.192C376.09 338.656 376.314 339.016 376.602 339.272C376.898 339.528 377.25 339.656 377.658 339.656ZM383.022 341L386.058 337.088L386.334 337.376C386.214 337.464 386.098 337.536 385.986 337.592C385.874 337.648 385.754 337.688 385.626 337.712C385.498 337.736 385.362 337.748 385.218 337.748C384.674 337.748 384.19 337.624 383.766 337.376C383.342 337.128 383.006 336.792 382.758 336.368C382.518 335.936 382.398 335.448 382.398 334.904C382.398 334.328 382.53 333.816 382.794 333.368C383.066 332.92 383.434 332.568 383.898 332.312C384.37 332.048 384.906 331.916 385.506 331.916C386.114 331.916 386.65 332.044 387.114 332.3C387.578 332.556 387.942 332.908 388.206 333.356C388.478 333.796 388.614 334.304 388.614 334.88C388.614 335.168 388.582 335.456 388.518 335.744C388.454 336.032 388.338 336.34 388.17 336.668C388.01 336.988 387.778 337.352 387.474 337.76L384.978 341H383.022ZM385.506 336.38C385.786 336.38 386.034 336.32 386.25 336.2C386.474 336.072 386.65 335.896 386.778 335.672C386.906 335.44 386.97 335.18 386.97 334.892C386.97 334.588 386.902 334.324 386.766 334.1C386.638 333.876 386.466 333.7 386.25 333.572C386.034 333.444 385.786 333.38 385.506 333.38C385.234 333.38 384.986 333.444 384.762 333.572C384.538 333.7 384.358 333.876 384.222 334.1C384.094 334.324 384.03 334.588 384.03 334.892C384.03 335.18 384.094 335.44 384.222 335.672C384.358 335.896 384.538 336.072 384.762 336.2C384.986 336.32 385.234 336.38 385.506 336.38ZM389.305 342.44L393.289 332.54H395.005L391.021 342.44H389.305ZM395.735 341V339.764L398.159 337.232C398.639 336.728 399.007 336.328 399.263 336.032C399.527 335.728 399.711 335.468 399.815 335.252C399.919 335.036 399.971 334.816 399.971 334.592C399.971 334.216 399.851 333.92 399.611 333.704C399.379 333.488 399.079 333.38 398.711 333.38C398.327 333.38 397.995 333.492 397.715 333.716C397.435 333.932 397.231 334.252 397.103 334.676L395.675 334.232C395.771 333.76 395.967 333.352 396.263 333.008C396.559 332.656 396.919 332.388 397.343 332.204C397.775 332.012 398.231 331.916 398.711 331.916C399.287 331.916 399.791 332.02 400.223 332.228C400.663 332.436 401.003 332.728 401.243 333.104C401.491 333.48 401.615 333.92 401.615 334.424C401.615 334.744 401.555 335.06 401.435 335.372C401.315 335.684 401.135 336.004 400.895 336.332C400.655 336.652 400.343 337.012 399.959 337.412L397.859 339.62H401.735V341H395.735ZM403.207 341L406.927 333.44H402.715V332.06H408.643V333.44L405.007 341H403.207Z" fill="#01060F" fill-opacity="0.6"/>
<rect x="391.222" y="322" width="1" height="1" fill="#01060F" fill-opacity="0.2"/>
<rect x="391.222" y="323" width="1" height="3" fill="#01060F" fill-opacity="0.2"/>
<path d="M442.262 341.144C441.55 341.144 440.926 340.952 440.39 340.568C439.854 340.184 439.434 339.644 439.13 338.948C438.834 338.252 438.686 337.444 438.686 336.524C438.686 335.596 438.834 334.788 439.13 334.1C439.426 333.412 439.842 332.876 440.378 332.492C440.914 332.108 441.538 331.916 442.25 331.916C442.978 331.916 443.606 332.108 444.134 332.492C444.67 332.876 445.09 333.416 445.394 334.112C445.698 334.8 445.85 335.604 445.85 336.524C445.85 337.444 445.698 338.252 445.394 338.948C445.098 339.636 444.682 340.176 444.146 340.568C443.61 340.952 442.982 341.144 442.262 341.144ZM442.274 339.656C442.682 339.656 443.03 339.532 443.318 339.284C443.606 339.028 443.826 338.668 443.978 338.204C444.138 337.732 444.218 337.172 444.218 336.524C444.218 335.876 444.138 335.32 443.978 334.856C443.826 334.384 443.602 334.024 443.306 333.776C443.018 333.528 442.666 333.404 442.25 333.404C441.85 333.404 441.506 333.528 441.218 333.776C440.93 334.024 440.706 334.384 440.546 334.856C440.394 335.32 440.318 335.876 440.318 336.524C440.318 337.164 440.394 337.72 440.546 338.192C440.706 338.656 440.93 339.016 441.218 339.272C441.514 339.528 441.866 339.656 442.274 339.656ZM447.638 341L450.674 337.088L450.95 337.376C450.83 337.464 450.714 337.536 450.602 337.592C450.49 337.648 450.37 337.688 450.242 337.712C450.114 337.736 449.978 337.748 449.834 337.748C449.29 337.748 448.806 337.624 448.382 337.376C447.958 337.128 447.622 336.792 447.374 336.368C447.134 335.936 447.014 335.448 447.014 334.904C447.014 334.328 447.146 333.816 447.41 333.368C447.682 332.92 448.05 332.568 448.514 332.312C448.986 332.048 449.522 331.916 450.122 331.916C450.73 331.916 451.266 332.044 451.73 332.3C452.194 332.556 452.558 332.908 452.822 333.356C453.094 333.796 453.23 334.304 453.23 334.88C453.23 335.168 453.198 335.456 453.134 335.744C453.07 336.032 452.954 336.34 452.786 336.668C452.626 336.988 452.394 337.352 452.09 337.76L449.594 341H447.638ZM450.122 336.38C450.402 336.38 450.65 336.32 450.866 336.2C451.09 336.072 451.266 335.896 451.394 335.672C451.522 335.44 451.586 335.18 451.586 334.892C451.586 334.588 451.518 334.324 451.382 334.1C451.254 333.876 451.082 333.7 450.866 333.572C450.65 333.444 450.402 333.38 450.122 333.38C449.85 333.38 449.602 333.444 449.378 333.572C449.154 333.7 448.974 333.876 448.838 334.1C448.71 334.324 448.646 334.588 448.646 334.892C448.646 335.18 448.71 335.44 448.838 335.672C448.974 335.896 449.154 336.072 449.378 336.2C449.602 336.32 449.85 336.38 450.122 336.38ZM453.921 342.44L457.905 332.54H459.621L455.637 342.44H453.921ZM460.351 341V339.764L462.775 337.232C463.255 336.728 463.623 336.328 463.879 336.032C464.143 335.728 464.327 335.468 464.431 335.252C464.535 335.036 464.587 334.816 464.587 334.592C464.587 334.216 464.467 333.92 464.227 333.704C463.995 333.488 463.695 333.38 463.327 333.38C462.943 333.38 462.611 333.492 462.331 333.716C462.051 333.932 461.847 334.252 461.719 334.676L460.291 334.232C460.387 333.76 460.583 333.352 460.879 333.008C461.175 332.656 461.535 332.388 461.959 332.204C462.391 332.012 462.847 331.916 463.327 331.916C463.903 331.916 464.407 332.02 464.839 332.228C465.279 332.436 465.619 332.728 465.859 333.104C466.107 333.48 466.231 333.92 466.231 334.424C466.231 334.744 466.171 335.06 466.051 335.372C465.931 335.684 465.751 336.004 465.511 336.332C465.271 336.652 464.959 337.012 464.575 337.412L462.475 339.62H466.351V341H460.351ZM470.751 341.144C470.103 341.144 469.539 341.024 469.059 340.784C468.587 340.536 468.219 340.204 467.955 339.788C467.699 339.372 467.571 338.916 467.571 338.42C467.571 337.836 467.727 337.344 468.039 336.944C468.351 336.536 468.803 336.236 469.395 336.044L469.299 336.44C468.875 336.304 468.539 336.04 468.291 335.648C468.051 335.256 467.931 334.824 467.931 334.352C467.931 333.88 468.051 333.46 468.291 333.092C468.531 332.724 468.863 332.436 469.287 332.228C469.711 332.02 470.199 331.916 470.751 331.916C471.295 331.916 471.775 332.02 472.191 332.228C472.615 332.436 472.947 332.724 473.187 333.092C473.435 333.46 473.559 333.88 473.559 334.352C473.559 334.832 473.435 335.268 473.187 335.66C472.947 336.044 472.615 336.308 472.191 336.452L472.107 336.032C472.699 336.24 473.151 336.548 473.463 336.956C473.775 337.356 473.931 337.848 473.931 338.432C473.931 338.928 473.799 339.384 473.535 339.8C473.279 340.208 472.911 340.536 472.431 340.784C471.959 341.024 471.399 341.144 470.751 341.144ZM470.751 339.764C471.063 339.764 471.335 339.708 471.567 339.596C471.799 339.476 471.979 339.312 472.107 339.104C472.235 338.888 472.299 338.644 472.299 338.372C472.299 338.092 472.235 337.852 472.107 337.652C471.979 337.444 471.799 337.284 471.567 337.172C471.335 337.052 471.063 336.992 470.751 336.992C470.439 336.992 470.167 337.052 469.935 337.172C469.711 337.284 469.535 337.444 469.407 337.652C469.279 337.852 469.215 338.092 469.215 338.372C469.215 338.644 469.279 338.888 469.407 339.104C469.535 339.312 469.711 339.476 469.935 339.596C470.167 339.708 470.439 339.764 470.751 339.764ZM470.751 335.612C470.983 335.612 471.187 335.56 471.363 335.456C471.539 335.352 471.675 335.216 471.771 335.048C471.875 334.872 471.927 334.672 471.927 334.448C471.927 334.224 471.875 334.028 471.771 333.86C471.675 333.684 471.539 333.548 471.363 333.452C471.187 333.348 470.983 333.296 470.751 333.296C470.519 333.296 470.311 333.348 470.127 333.452C469.951 333.548 469.811 333.684 469.707 333.86C469.611 334.028 469.563 334.224 469.563 334.448C469.563 334.672 469.611 334.872 469.707 335.048C469.811 335.216 469.951 335.352 470.127 335.456C470.311 335.56 470.519 335.612 470.751 335.612Z" fill="#01060F" fill-opacity="0.6"/>
<rect x="455.778" y="322" width="1" height="1" fill="#01060F" fill-opacity="0.2"/>
<rect x="455.778" y="323" width="1" height="3" fill="#01060F" fill-opacity="0.2"/>
<path d="M506.999 341.144C506.287 341.144 505.663 340.952 505.127 340.568C504.591 340.184 504.171 339.644 503.867 338.948C503.571 338.252 503.423 337.444 503.423 336.524C503.423 335.596 503.571 334.788 503.867 334.1C504.163 333.412 504.579 332.876 505.115 332.492C505.651 332.108 506.275 331.916 506.987 331.916C507.715 331.916 508.343 332.108 508.871 332.492C509.407 332.876 509.827 333.416 510.131 334.112C510.435 334.8 510.587 335.604 510.587 336.524C510.587 337.444 510.435 338.252 510.131 338.948C509.835 339.636 509.419 340.176 508.883 340.568C508.347 340.952 507.719 341.144 506.999 341.144ZM507.011 339.656C507.419 339.656 507.767 339.532 508.055 339.284C508.343 339.028 508.563 338.668 508.715 338.204C508.875 337.732 508.955 337.172 508.955 336.524C508.955 335.876 508.875 335.32 508.715 334.856C508.563 334.384 508.339 334.024 508.043 333.776C507.755 333.528 507.403 333.404 506.987 333.404C506.587 333.404 506.243 333.528 505.955 333.776C505.667 334.024 505.443 334.384 505.283 334.856C505.131 335.32 505.055 335.876 505.055 336.524C505.055 337.164 505.131 337.72 505.283 338.192C505.443 338.656 505.667 339.016 505.955 339.272C506.251 339.528 506.603 339.656 507.011 339.656ZM512.375 341L515.411 337.088L515.687 337.376C515.567 337.464 515.451 337.536 515.339 337.592C515.227 337.648 515.107 337.688 514.979 337.712C514.851 337.736 514.715 337.748 514.571 337.748C514.027 337.748 513.543 337.624 513.119 337.376C512.695 337.128 512.359 336.792 512.111 336.368C511.871 335.936 511.751 335.448 511.751 334.904C511.751 334.328 511.883 333.816 512.147 333.368C512.419 332.92 512.787 332.568 513.251 332.312C513.723 332.048 514.259 331.916 514.859 331.916C515.467 331.916 516.003 332.044 516.467 332.3C516.931 332.556 517.295 332.908 517.559 333.356C517.831 333.796 517.967 334.304 517.967 334.88C517.967 335.168 517.935 335.456 517.871 335.744C517.807 336.032 517.691 336.34 517.523 336.668C517.363 336.988 517.131 337.352 516.827 337.76L514.331 341H512.375ZM514.859 336.38C515.139 336.38 515.387 336.32 515.603 336.2C515.827 336.072 516.003 335.896 516.131 335.672C516.259 335.44 516.323 335.18 516.323 334.892C516.323 334.588 516.255 334.324 516.119 334.1C515.991 333.876 515.819 333.7 515.603 333.572C515.387 333.444 515.139 333.38 514.859 333.38C514.587 333.38 514.339 333.444 514.115 333.572C513.891 333.7 513.711 333.876 513.575 334.1C513.447 334.324 513.383 334.588 513.383 334.892C513.383 335.18 513.447 335.44 513.575 335.672C513.711 335.896 513.891 336.072 514.115 336.2C514.339 336.32 514.587 336.38 514.859 336.38ZM518.658 342.44L522.642 332.54H524.358L520.374 342.44H518.658ZM525.088 341V339.764L527.512 337.232C527.992 336.728 528.36 336.328 528.616 336.032C528.88 335.728 529.064 335.468 529.168 335.252C529.272 335.036 529.324 334.816 529.324 334.592C529.324 334.216 529.204 333.92 528.964 333.704C528.732 333.488 528.432 333.38 528.064 333.38C527.68 333.38 527.348 333.492 527.068 333.716C526.788 333.932 526.584 334.252 526.456 334.676L525.028 334.232C525.124 333.76 525.32 333.352 525.616 333.008C525.912 332.656 526.272 332.388 526.696 332.204C527.128 332.012 527.584 331.916 528.064 331.916C528.64 331.916 529.144 332.02 529.576 332.228C530.016 332.436 530.356 332.728 530.596 333.104C530.844 333.48 530.968 333.92 530.968 334.424C530.968 334.744 530.908 335.06 530.788 335.372C530.668 335.684 530.488 336.004 530.248 336.332C530.008 336.652 529.696 337.012 529.312 337.412L527.212 339.62H531.088V341H525.088ZM532.825 341L535.861 337.088L536.137 337.376C536.017 337.464 535.901 337.536 535.789 337.592C535.677 337.648 535.557 337.688 535.429 337.712C535.301 337.736 535.165 337.748 535.021 337.748C534.477 337.748 533.993 337.624 533.569 337.376C533.145 337.128 532.809 336.792 532.561 336.368C532.321 335.936 532.201 335.448 532.201 334.904C532.201 334.328 532.333 333.816 532.597 333.368C532.869 332.92 533.237 332.568 533.701 332.312C534.173 332.048 534.709 331.916 535.309 331.916C535.917 331.916 536.453 332.044 536.917 332.3C537.381 332.556 537.745 332.908 538.009 333.356C538.281 333.796 538.417 334.304 538.417 334.88C538.417 335.168 538.385 335.456 538.321 335.744C538.257 336.032 538.141 336.34 537.973 336.668C537.813 336.988 537.581 337.352 537.277 337.76L534.781 341H532.825ZM535.309 336.38C535.589 336.38 535.837 336.32 536.053 336.2C536.277 336.072 536.453 335.896 536.581 335.672C536.709 335.44 536.773 335.18 536.773 334.892C536.773 334.588 536.705 334.324 536.569 334.1C536.441 333.876 536.269 333.7 536.053 333.572C535.837 333.444 535.589 333.38 535.309 333.38C535.037 333.38 534.789 333.444 534.565 333.572C534.341 333.7 534.161 333.876 534.025 334.1C533.897 334.324 533.833 334.588 533.833 334.892C533.833 335.18 533.897 335.44 534.025 335.672C534.161 335.896 534.341 336.072 534.565 336.2C534.789 336.32 535.037 336.38 535.309 336.38Z" fill="#01060F" fill-opacity="0.6"/>
<rect x="520.333" y="322" width="1" height="1" fill="#01060F" fill-opacity="0.2"/>
<rect x="520.333" y="323" width="1" height="3" fill="#01060F" fill-opacity="0.2"/>
<path d="M570.328 341.144C569.616 341.144 568.992 340.952 568.456 340.568C567.92 340.184 567.5 339.644 567.196 338.948C566.9 338.252 566.752 337.444 566.752 336.524C566.752 335.596 566.9 334.788 567.196 334.1C567.492 333.412 567.908 332.876 568.444 332.492C568.98 332.108 569.604 331.916 570.316 331.916C571.044 331.916 571.672 332.108 572.2 332.492C572.736 332.876 573.156 333.416 573.46 334.112C573.764 334.8 573.916 335.604 573.916 336.524C573.916 337.444 573.764 338.252 573.46 338.948C573.164 339.636 572.748 340.176 572.212 340.568C571.676 340.952 571.048 341.144 570.328 341.144ZM570.34 339.656C570.748 339.656 571.096 339.532 571.384 339.284C571.672 339.028 571.892 338.668 572.044 338.204C572.204 337.732 572.284 337.172 572.284 336.524C572.284 335.876 572.204 335.32 572.044 334.856C571.892 334.384 571.668 334.024 571.372 333.776C571.084 333.528 570.732 333.404 570.316 333.404C569.916 333.404 569.572 333.528 569.284 333.776C568.996 334.024 568.772 334.384 568.612 334.856C568.46 335.32 568.384 335.876 568.384 336.524C568.384 337.164 568.46 337.72 568.612 338.192C568.772 338.656 568.996 339.016 569.284 339.272C569.58 339.528 569.932 339.656 570.34 339.656ZM575.704 341L578.74 337.088L579.016 337.376C578.896 337.464 578.78 337.536 578.668 337.592C578.556 337.648 578.436 337.688 578.308 337.712C578.18 337.736 578.044 337.748 577.9 337.748C577.356 337.748 576.872 337.624 576.448 337.376C576.024 337.128 575.688 336.792 575.44 336.368C575.2 335.936 575.08 335.448 575.08 334.904C575.08 334.328 575.212 333.816 575.476 333.368C575.748 332.92 576.116 332.568 576.58 332.312C577.052 332.048 577.588 331.916 578.188 331.916C578.796 331.916 579.332 332.044 579.796 332.3C580.26 332.556 580.624 332.908 580.888 333.356C581.16 333.796 581.296 334.304 581.296 334.88C581.296 335.168 581.264 335.456 581.2 335.744C581.136 336.032 581.02 336.34 580.852 336.668C580.692 336.988 580.46 337.352 580.156 337.76L577.66 341H575.704ZM578.188 336.38C578.468 336.38 578.716 336.32 578.932 336.2C579.156 336.072 579.332 335.896 579.46 335.672C579.588 335.44 579.652 335.18 579.652 334.892C579.652 334.588 579.584 334.324 579.448 334.1C579.32 333.876 579.148 333.7 578.932 333.572C578.716 333.444 578.468 333.38 578.188 333.38C577.916 333.38 577.668 333.444 577.444 333.572C577.22 333.7 577.04 333.876 576.904 334.1C576.776 334.324 576.712 334.588 576.712 334.892C576.712 335.18 576.776 335.44 576.904 335.672C577.04 335.896 577.22 336.072 577.444 336.2C577.668 336.32 577.916 336.38 578.188 336.38ZM581.987 342.44L585.971 332.54H587.687L583.703 342.44H581.987ZM591.381 341.144C590.893 341.144 590.429 341.056 589.989 340.88C589.557 340.696 589.185 340.44 588.873 340.112C588.569 339.776 588.361 339.38 588.249 338.924L589.677 338.42C589.821 338.828 590.041 339.14 590.337 339.356C590.633 339.564 590.981 339.668 591.381 339.668C591.701 339.668 591.977 339.608 592.209 339.488C592.449 339.368 592.637 339.196 592.773 338.972C592.909 338.74 592.977 338.468 592.977 338.156C592.977 337.844 592.909 337.58 592.773 337.364C592.645 337.14 592.461 336.968 592.221 336.848C591.981 336.728 591.697 336.668 591.369 336.668C591.217 336.668 591.057 336.684 590.889 336.716C590.729 336.748 590.585 336.796 590.457 336.86L590.085 336.08L592.401 333.44H588.753V332.06H594.237V333.344L591.909 336.068L591.933 335.456C592.469 335.464 592.937 335.58 593.337 335.804C593.737 336.028 594.049 336.336 594.273 336.728C594.497 337.12 594.609 337.58 594.609 338.108C594.609 338.684 594.469 339.204 594.189 339.668C593.909 340.124 593.525 340.484 593.037 340.748C592.549 341.012 591.997 341.144 591.381 341.144ZM599.449 341.144C598.737 341.144 598.113 340.952 597.577 340.568C597.041 340.184 596.621 339.644 596.317 338.948C596.021 338.252 595.873 337.444 595.873 336.524C595.873 335.596 596.021 334.788 596.317 334.1C596.613 333.412 597.029 332.876 597.565 332.492C598.101 332.108 598.725 331.916 599.437 331.916C600.165 331.916 600.793 332.108 601.321 332.492C601.857 332.876 602.277 333.416 602.581 334.112C602.885 334.8 603.037 335.604 603.037 336.524C603.037 337.444 602.885 338.252 602.581 338.948C602.285 339.636 601.869 340.176 601.333 340.568C600.797 340.952 600.169 341.144 599.449 341.144ZM599.461 339.656C599.869 339.656 600.217 339.532 600.505 339.284C600.793 339.028 601.013 338.668 601.165 338.204C601.325 337.732 601.405 337.172 601.405 336.524C601.405 335.876 601.325 335.32 601.165 334.856C601.013 334.384 600.789 334.024 600.493 333.776C600.205 333.528 599.853 333.404 599.437 333.404C599.037 333.404 598.693 333.528 598.405 333.776C598.117 334.024 597.893 334.384 597.733 334.856C597.581 335.32 597.505 335.876 597.505 336.524C597.505 337.164 597.581 337.72 597.733 338.192C597.893 338.656 598.117 339.016 598.405 339.272C598.701 339.528 599.053 339.656 599.461 339.656Z" fill="#01060F" fill-opacity="0.6"/>
<rect x="584.889" y="322" width="1" height="1" fill="#01060F" fill-opacity="0.2"/>
<rect x="584.889" y="323" width="1" height="3" fill="#01060F" fill-opacity="0.2"/>
<path d="M635.649 341V333.452H633.921V332.06H637.281V341H635.649ZM642.661 341.144C641.949 341.144 641.325 340.952 640.789 340.568C640.253 340.184 639.833 339.644 639.529 338.948C639.233 338.252 639.085 337.444 639.085 336.524C639.085 335.596 639.233 334.788 639.529 334.1C639.825 333.412 640.241 332.876 640.777 332.492C641.313 332.108 641.937 331.916 642.649 331.916C643.377 331.916 644.005 332.108 644.533 332.492C645.069 332.876 645.489 333.416 645.793 334.112C646.097 334.8 646.249 335.604 646.249 336.524C646.249 337.444 646.097 338.252 645.793 338.948C645.497 339.636 645.081 340.176 644.545 340.568C644.009 340.952 643.381 341.144 642.661 341.144ZM642.673 339.656C643.081 339.656 643.429 339.532 643.717 339.284C644.005 339.028 644.225 338.668 644.377 338.204C644.537 337.732 644.617 337.172 644.617 336.524C644.617 335.876 644.537 335.32 644.377 334.856C644.225 334.384 644.001 334.024 643.705 333.776C643.417 333.528 643.065 333.404 642.649 333.404C642.249 333.404 641.905 333.528 641.617 333.776C641.329 334.024 641.105 334.384 640.945 334.856C640.793 335.32 640.717 335.876 640.717 336.524C640.717 337.164 640.793 337.72 640.945 338.192C641.105 338.656 641.329 339.016 641.617 339.272C641.913 339.528 642.265 339.656 642.673 339.656ZM647.101 342.44L651.085 332.54H652.801L648.817 342.44H647.101ZM657.227 341.144C656.515 341.144 655.891 340.952 655.355 340.568C654.819 340.184 654.399 339.644 654.095 338.948C653.799 338.252 653.651 337.444 653.651 336.524C653.651 335.596 653.799 334.788 654.095 334.1C654.391 333.412 654.807 332.876 655.343 332.492C655.879 332.108 656.503 331.916 657.215 331.916C657.943 331.916 658.571 332.108 659.099 332.492C659.635 332.876 660.055 333.416 660.359 334.112C660.663 334.8 660.815 335.604 660.815 336.524C660.815 337.444 660.663 338.252 660.359 338.948C660.063 339.636 659.647 340.176 659.111 340.568C658.575 340.952 657.947 341.144 657.227 341.144ZM657.239 339.656C657.647 339.656 657.995 339.532 658.283 339.284C658.571 339.028 658.791 338.668 658.943 338.204C659.103 337.732 659.183 337.172 659.183 336.524C659.183 335.876 659.103 335.32 658.943 334.856C658.791 334.384 658.567 334.024 658.271 333.776C657.983 333.528 657.631 333.404 657.215 333.404C656.815 333.404 656.471 333.528 656.183 333.776C655.895 334.024 655.671 334.384 655.511 334.856C655.359 335.32 655.283 335.876 655.283 336.524C655.283 337.164 655.359 337.72 655.511 338.192C655.671 338.656 655.895 339.016 656.183 339.272C656.479 339.528 656.831 339.656 657.239 339.656ZM663.552 341V333.452H661.824V332.06H665.184V341H663.552Z" fill="#01060F" fill-opacity="0.6"/>
<rect x="649.444" y="322" width="1" height="1" fill="#01060F" fill-opacity="0.2"/>
<rect x="649.444" y="323" width="1" height="3" fill="#01060F" fill-opacity="0.2"/>
<path d="M327 237V265.5H262.5V289.5H198.5V321H647.5V97.5H583.5V122.5H518.5V138.5H456.5V165.5H392V205H327V237Z" fill="url(#paint0_linear_4307_2316)"/>
<path d="M24.144 224.809C24.144 225.377 24.04 225.905 23.832 226.393C23.624 226.873 23.336 227.289 22.968 227.641C22.592 227.985 22.156 228.237 21.66 228.397L21.072 227.041C21.584 226.825 21.988 226.513 22.284 226.105C22.572 225.697 22.716 225.237 22.716 224.725C22.716 224.437 22.672 224.189 22.584 223.981C22.488 223.765 22.36 223.601 22.2 223.489C22.04 223.369 21.848 223.309 21.624 223.309C21.36 223.309 21.144 223.389 20.976 223.549C20.8 223.701 20.664 223.933 20.568 224.245L20.016 225.961C19.8 226.657 19.476 227.181 19.044 227.533C18.612 227.885 18.104 228.061 17.52 228.061C17.008 228.061 16.556 227.937 16.164 227.689C15.772 227.433 15.468 227.081 15.252 226.633C15.028 226.177 14.916 225.657 14.916 225.073C14.916 224.537 15.012 224.045 15.204 223.597C15.388 223.149 15.648 222.765 15.984 222.445C16.312 222.117 16.7 221.873 17.148 221.713L17.748 223.057C17.3 223.233 16.956 223.497 16.716 223.849C16.468 224.201 16.344 224.609 16.344 225.073C16.344 225.345 16.392 225.585 16.488 225.793C16.576 226.001 16.704 226.165 16.872 226.285C17.032 226.397 17.224 226.453 17.448 226.453C17.696 226.453 17.916 226.373 18.108 226.213C18.292 226.053 18.436 225.809 18.54 225.481L19.056 223.837C19.288 223.125 19.608 222.593 20.016 222.241C20.424 221.881 20.928 221.701 21.528 221.701C22.04 221.701 22.492 221.833 22.884 222.097C23.276 222.361 23.584 222.725 23.808 223.189C24.032 223.653 24.144 224.193 24.144 224.809ZM24 218.648L16.5 218.648L16.5 220.964L15.06 220.964L15.06 214.724L16.5 214.724L16.5 217.004L24 217.004L24 218.648ZM24 215.057L15.06 211.973L15.06 209.861L24 206.777L24 208.553L22.08 209.189L22.08 212.645L24 213.293L24 215.057ZM20.64 212.177L20.64 209.657L16.188 211.145L16.188 210.689L20.64 212.177ZM24 204.346L20.04 204.346L15.06 207.358L15.06 205.498L18.948 203.194L18.948 203.854L15.06 201.562L15.06 199.702L20.028 202.702L24 202.702L24 204.346ZM24.144 197.313C24.144 198.009 23.98 198.617 23.652 199.137C23.316 199.649 22.864 200.001 22.296 200.193L21.732 199.017C22.1 198.849 22.388 198.617 22.596 198.321C22.804 198.017 22.908 197.681 22.908 197.313C22.908 197.025 22.844 196.797 22.716 196.629C22.588 196.461 22.42 196.377 22.212 196.377C22.084 196.377 21.98 196.413 21.9 196.485C21.812 196.549 21.74 196.641 21.684 196.761C21.62 196.873 21.568 196.997 21.528 197.133L21.228 198.201C21.068 198.753 20.824 199.173 20.496 199.461C20.168 199.741 19.78 199.881 19.332 199.881C18.932 199.881 18.584 199.781 18.288 199.581C17.984 199.373 17.748 199.089 17.58 198.729C17.412 198.361 17.328 197.941 17.328 197.469C17.328 196.853 17.476 196.309 17.772 195.837C18.068 195.365 18.484 195.029 19.02 194.829L19.584 196.029C19.288 196.141 19.052 196.329 18.876 196.593C18.7 196.857 18.612 197.153 18.612 197.481C18.612 197.745 18.672 197.953 18.792 198.105C18.912 198.257 19.068 198.333 19.26 198.333C19.38 198.333 19.484 198.301 19.572 198.237C19.66 198.173 19.732 198.085 19.788 197.973C19.844 197.853 19.896 197.717 19.944 197.565L20.256 196.521C20.416 195.985 20.656 195.573 20.976 195.285C21.296 194.989 21.688 194.841 22.152 194.841C22.544 194.841 22.892 194.945 23.196 195.153C23.492 195.361 23.724 195.649 23.892 196.017C24.06 196.385 24.144 196.817 24.144 197.313ZM24.144 187.924C24.144 188.612 24 189.224 23.712 189.76C23.424 190.288 23.028 190.704 22.524 191.008C22.02 191.312 21.448 191.464 20.808 191.464L15.06 191.464L15.06 189.832L20.724 189.832C21.092 189.832 21.424 189.752 21.72 189.592C22.016 189.424 22.248 189.196 22.416 188.908C22.576 188.62 22.656 188.292 22.656 187.924C22.656 187.548 22.576 187.22 22.416 186.94C22.248 186.652 22.016 186.428 21.72 186.268C21.424 186.1 21.092 186.016 20.724 186.016L15.06 186.016L15.06 184.384L20.808 184.384C21.448 184.384 22.02 184.536 22.524 184.84C23.028 185.144 23.424 185.564 23.712 186.1C24 186.628 24.144 187.236 24.144 187.924ZM24 182.887L17.472 182.887L17.472 181.411L18.756 181.411L18.528 181.531C18.136 181.379 17.84 181.131 17.64 180.787C17.432 180.435 17.328 180.027 17.328 179.563C17.328 179.083 17.432 178.659 17.64 178.291C17.848 177.915 18.14 177.623 18.516 177.415C18.884 177.207 19.312 177.103 19.8 177.103L24 177.103L24 178.675L20.172 178.675C19.884 178.675 19.636 178.731 19.428 178.843C19.22 178.955 19.06 179.111 18.948 179.311C18.828 179.503 18.768 179.731 18.768 179.995C18.768 180.251 18.828 180.479 18.948 180.679C19.06 180.879 19.22 181.035 19.428 181.147C19.636 181.259 19.884 181.315 20.172 181.315L24 181.315L24 182.887ZM24 175.774L14.916 175.774L14.916 174.202L24 174.202L24 175.774ZM24.144 169.558C24.144 170.198 23.996 170.782 23.7 171.31C23.404 171.83 23 172.246 22.488 172.558C21.976 172.862 21.392 173.014 20.736 173.014C20.08 173.014 19.496 172.862 18.984 172.558C18.472 172.246 18.068 171.83 17.772 171.31C17.476 170.79 17.328 170.206 17.328 169.558C17.328 168.918 17.476 168.338 17.772 167.818C18.068 167.298 18.472 166.886 18.984 166.582C19.488 166.27 20.072 166.114 20.736 166.114C21.392 166.114 21.976 166.27 22.488 166.582C23 166.894 23.404 167.31 23.7 167.83C23.996 168.35 24.144 168.926 24.144 169.558ZM22.704 169.558C22.704 169.206 22.62 168.898 22.452 168.634C22.284 168.362 22.052 168.15 21.756 167.998C21.452 167.838 21.112 167.758 20.736 167.758C20.352 167.758 20.016 167.838 19.728 167.998C19.432 168.15 19.2 168.362 19.032 168.634C18.856 168.898 18.768 169.206 18.768 169.558C18.768 169.918 18.856 170.234 19.032 170.506C19.2 170.778 19.432 170.994 19.728 171.154C20.016 171.306 20.352 171.382 20.736 171.382C21.112 171.382 21.452 171.306 21.756 171.154C22.052 170.994 22.284 170.778 22.452 170.506C22.62 170.234 22.704 169.918 22.704 169.558ZM24.144 161.778C24.144 162.426 23.996 163.01 23.7 163.53C23.396 164.042 22.988 164.446 22.476 164.742C21.956 165.038 21.372 165.186 20.724 165.186C20.076 165.186 19.496 165.038 18.984 164.742C18.472 164.446 18.068 164.042 17.772 163.53C17.476 163.01 17.328 162.426 17.328 161.778C17.328 161.314 17.412 160.882 17.58 160.482C17.74 160.082 17.964 159.738 18.252 159.45C18.532 159.154 18.868 158.942 19.26 158.814L19.86 160.194C19.532 160.314 19.268 160.518 19.068 160.806C18.868 161.086 18.768 161.41 18.768 161.778C18.768 162.122 18.852 162.43 19.02 162.702C19.188 162.966 19.42 163.174 19.716 163.326C20.012 163.478 20.352 163.554 20.736 163.554C21.12 163.554 21.46 163.478 21.756 163.326C22.052 163.174 22.284 162.966 22.452 162.702C22.62 162.43 22.704 162.122 22.704 161.778C22.704 161.402 22.604 161.074 22.404 160.794C22.204 160.514 21.936 160.314 21.6 160.194L22.224 158.814C22.592 158.942 22.924 159.15 23.22 159.438C23.508 159.726 23.736 160.07 23.904 160.47C24.064 160.87 24.144 161.306 24.144 161.778ZM24 157.622L14.916 157.622L14.916 156.05L20.868 156.05L20.688 156.65L17.472 153.578L17.472 151.622L20.1 154.034L24 151.574L24 153.374L20.616 155.51L20.424 154.574L22.536 156.542L21.576 156.05L24 156.05L24 157.622ZM24.144 147.717C24.144 148.389 23.992 148.977 23.688 149.481C23.384 149.985 22.972 150.377 22.452 150.657C21.932 150.937 21.356 151.077 20.724 151.077C20.068 151.077 19.488 150.937 18.984 150.657C18.472 150.369 18.068 149.981 17.772 149.493C17.476 148.997 17.328 148.445 17.328 147.837C17.328 147.325 17.412 146.877 17.58 146.493C17.748 146.101 17.98 145.769 18.276 145.497C18.572 145.225 18.912 145.017 19.296 144.873C19.672 144.729 20.08 144.657 20.52 144.657C20.632 144.657 20.748 144.665 20.868 144.681C20.988 144.689 21.092 144.709 21.18 144.741L21.18 149.781L19.98 149.781L19.98 145.629L20.544 146.373C20.176 146.301 19.848 146.321 19.56 146.433C19.272 146.537 19.044 146.713 18.876 146.961C18.708 147.201 18.624 147.493 18.624 147.837C18.624 148.165 18.708 148.457 18.876 148.713C19.036 148.969 19.276 149.165 19.596 149.301C19.908 149.429 20.288 149.477 20.736 149.445C21.136 149.477 21.492 149.425 21.804 149.289C22.108 149.145 22.344 148.937 22.512 148.665C22.68 148.385 22.764 148.065 22.764 147.705C22.764 147.345 22.688 147.041 22.536 146.793C22.384 146.537 22.18 146.337 21.924 146.193L22.548 144.921C22.86 145.049 23.136 145.249 23.376 145.521C23.616 145.793 23.804 146.117 23.94 146.493C24.076 146.861 24.144 147.269 24.144 147.717ZM24.144 140.429C24.144 141.061 23.996 141.625 23.7 142.121C23.396 142.617 22.984 143.009 22.464 143.297C21.944 143.585 21.368 143.729 20.736 143.729C20.096 143.729 19.52 143.585 19.008 143.297C18.496 143.009 18.088 142.617 17.784 142.121C17.48 141.617 17.328 141.057 17.328 140.441C17.328 139.945 17.428 139.505 17.628 139.121C17.82 138.729 18.092 138.421 18.444 138.197L18.768 138.437L14.916 138.437L14.916 136.865L24 136.865L24 138.353L22.74 138.353L23.052 138.185C23.404 138.409 23.676 138.721 23.868 139.121C24.052 139.521 24.144 139.957 24.144 140.429ZM22.704 140.261C22.704 139.901 22.62 139.585 22.452 139.313C22.284 139.041 22.052 138.829 21.756 138.677C21.46 138.517 21.12 138.437 20.736 138.437C20.36 138.437 20.024 138.517 19.728 138.677C19.424 138.829 19.188 139.041 19.02 139.313C18.852 139.585 18.768 139.901 18.768 140.261C18.768 140.613 18.856 140.929 19.032 141.209C19.2 141.489 19.432 141.709 19.728 141.869C20.016 142.021 20.352 142.097 20.736 142.097C21.12 142.097 21.46 142.021 21.756 141.869C22.052 141.709 22.284 141.489 22.452 141.209C22.62 140.929 22.704 140.613 22.704 140.261Z" fill="white" fill-opacity="0.9"/>
<rect x="0.5" y="0.5" width="679" height="364" rx="14.5" stroke="#01060F" stroke-opacity="0.2"/>
<defs>
<linearGradient id="paint0_linear_4307_2316" x1="421.914" y1="97.815" x2="430.668" y2="320.426" gradientUnits="userSpaceOnUse">
<stop offset="0.00012932" stop-color="#7A37CC" stop-opacity="0.6"/>
<stop offset="1" stop-color="#7A37CC" stop-opacity="0"/>
</linearGradient>
</defs>
</svg>
