<svg width="24" height="25" viewBox="0 0 24 25" fill="none" xmlns="http://www.w3.org/2000/svg">
<path d="M22 13.1196V15.1796C22 15.7396 21.54 16.1996 20.97 16.1996H19.04C17.96 16.1996 16.97 15.4096 16.88 14.3296C16.82 13.6996 17.06 13.1096 17.48 12.6996C17.85 12.3196 18.36 12.0996 18.92 12.0996H20.97C21.54 12.0996 22 12.5596 22 13.1196Z" fill="white"/>
<path d="M15.38 14.4604C15.29 13.4104 15.67 12.3804 16.43 11.6304C17.07 10.9804 17.96 10.6004 18.92 10.6004H19.49C19.77 10.6004 20 10.3704 19.96 10.0904C19.69 8.15039 18.01 6.65039 16 6.65039H6C3.79 6.65039 2 8.44039 2 10.6504V17.6504C2 19.8604 3.79 21.6504 6 21.6504H16C18.02 21.6504 19.69 20.1504 19.96 18.2104C20 17.9304 19.77 17.7004 19.49 17.7004H19.04C17.14 17.7004 15.54 16.2804 15.38 14.4604ZM13 12.4004H7C6.59 12.4004 6.25 12.0704 6.25 11.6504C6.25 11.2304 6.59 10.9004 7 10.9004H13C13.41 10.9004 13.75 11.2404 13.75 11.6504C13.75 12.0604 13.41 12.4004 13 12.4004Z" fill="white"/>
<path d="M14.21 4.47961C14.47 4.74961 14.24 5.14961 13.86 5.14961H6.03003C4.94003 5.14961 3.92003 5.46961 3.07003 6.01961C2.68003 6.26961 2.15003 5.99961 2.34003 5.56961C2.90003 4.25961 4.21003 3.34961 5.72003 3.34961H11.34C12.5 3.34961 13.53 3.75961 14.21 4.47961Z" fill="white"/>
</svg>
