<svg width="149" height="33" viewBox="0 0 149 33" fill="none" xmlns="http://www.w3.org/2000/svg">
<g clip-path="url(#clip0_4350_3939)">
<mask id="mask0_4350_3939" style="mask-type:luminance" maskUnits="userSpaceOnUse" x="0" y="2" width="19" height="29">
<path d="M0 2.15137H19V30.1514H0V2.15137Z" fill="white"/>
</mask>
<g mask="url(#mask0_4350_3939)">
<path d="M18.5783 2.16016C18.4298 2.16016 18.2864 2.21962 18.1823 2.32805L15.1402 5.43761L13.8889 6.76503C13.7575 6.90319 13.6841 7.08858 13.6841 7.28096V29.7037C13.6841 29.9503 13.8804 30.1514 14.1211 30.1514C14.2355 30.1514 14.3447 30.1059 14.4267 30.0255L18.6176 25.8474C18.86 25.606 18.9966 25.2755 19 24.9292V2.58339C18.9966 2.34904 18.8105 2.16016 18.5817 2.16016H18.5783Z" fill="url(#paint0_linear_4350_3939)"/>
<path d="M5.3159 22.381V24.9204C5.3159 25.2685 5.17763 25.6043 4.93351 25.8474L0.742588 30.0237C0.660647 30.1059 0.551393 30.1514 0.437017 30.1514C0.196316 30.1514 0 29.9503 0 29.7037V7.28096C0 7.08858 0.0734052 6.90319 0.203145 6.76503L1.45615 5.43761L4.4965 2.32805C4.60234 2.21962 4.74573 2.16016 4.89425 2.16016H4.89766C5.12812 2.16016 5.3159 2.35079 5.3159 2.58689V22.381Z" fill="#954AFC"/>
<path d="M7.20571 2.16016C6.97526 2.16016 6.78748 2.35079 6.78748 2.58689V22.381V24.9204C6.78748 25.2685 6.92575 25.6043 7.16987 25.8474L11.3608 30.0255C11.4427 30.1059 11.552 30.1514 11.6664 30.1514C11.9071 30.1514 12.1034 29.9503 12.1034 29.7037V7.28096C12.1034 7.08858 12.03 6.90319 11.8985 6.76503L10.6472 5.43761L7.60518 2.32805C7.50104 2.21962 7.35765 2.16016 7.20913 2.16016H7.20571Z" fill="url(#paint1_linear_4350_3939)"/>
</g>
</g>
<g clip-path="url(#clip1_4350_3939)">
<mask id="mask1_4350_3939" style="mask-type:luminance" maskUnits="userSpaceOnUse" x="31" y="6" width="118" height="27">
<path d="M31 6H149V32.3034H31V6Z" fill="white"/>
</mask>
<g mask="url(#mask1_4350_3939)">
<path d="M43.1531 5.97559V17.8243L35.5422 5.97559H31V25.0943H35.5422V13.3064L43.1531 25.0943H47.7075V5.97559H43.1531Z" fill="#01060F"/>
<path d="M51.5312 5.97559V25.0943H56.0856V17.3616H61.7725V13.7327H56.0856V9.71408H63.6844V5.97559H51.5312Z" fill="#01060F"/>
<path d="M65.7546 14.3904C65.7546 19.9677 73.8404 18.202 73.8404 20.6497C73.8404 21.3316 73.2194 21.8796 72.0503 21.8796C70.8082 21.8796 69.8706 21.1733 69.7731 20.1139H65.2675C65.4867 23.0486 68.1413 25.3136 72.1112 25.3136C75.8254 25.3136 78.1147 23.3165 78.1147 20.6862C78.0417 15.0237 70.0045 16.7285 70.0045 14.3052C70.0045 13.5745 70.589 13.1361 71.6606 13.1361C72.9271 13.1361 73.7065 13.8181 73.8404 14.8532H78.0417C77.7494 11.8575 75.6183 9.67773 71.7946 9.67773C67.91 9.67773 65.7546 11.8088 65.7546 14.3904Z" fill="#01060F"/>
<path d="M80.4285 5.97559V9.71408H85.3847V25.0943H89.9269V9.71408H94.871V5.97559H80.4285Z" fill="#01060F"/>
<path fill-rule="evenodd" clip-rule="evenodd" d="M103.334 9.67773C105.538 9.67773 107.109 10.7128 107.913 12.0523V9.89693H112.455V25.0945H107.913V22.939C107.085 24.2786 105.514 25.3136 103.31 25.3136C99.6933 25.3136 96.795 22.2571 96.795 17.4713C96.795 12.6734 99.6933 9.67773 103.334 9.67773ZM104.662 21.2464C106.391 21.2464 107.913 19.919 107.913 17.4957C107.913 15.0724 106.391 13.7328 104.662 13.7328C102.957 13.7328 101.422 15.048 101.422 17.4713C101.422 19.8947 102.957 21.2464 104.662 21.2464Z" fill="#01060F"/>
<path d="M125.985 9.89648L122.575 19.3949L119.141 9.89648H114.063L120.103 24.5704L116.705 32.3031H121.588L130.904 9.89648H125.985Z" fill="#01060F"/>
<path d="M129.236 25.2774C129.236 25.7036 129.565 26.0446 130.064 26.0446C130.551 26.0446 130.892 25.7036 130.892 25.2774C130.892 24.839 130.551 24.498 130.064 24.498C129.565 24.498 129.236 24.839 129.236 25.2774Z" fill="#01060F"/>
<path d="M131.27 23.6573C131.27 25.1308 132.207 26.0441 133.547 26.0441C134.679 26.0441 135.483 25.3621 135.726 24.2905H134.241C134.119 24.6315 133.9 24.8263 133.522 24.8263C133.023 24.8263 132.682 24.4245 132.682 23.6573C132.682 22.8779 133.023 22.4761 133.522 22.4761C133.9 22.4761 134.131 22.6831 134.241 23.0119H135.726C135.483 21.9037 134.679 21.2705 133.547 21.2705C132.207 21.2705 131.27 22.1838 131.27 23.6573Z" fill="#01060F"/>
<path fill-rule="evenodd" clip-rule="evenodd" d="M138.381 21.2705C139.709 21.2705 140.744 22.1838 140.744 23.6573C140.744 25.1308 139.696 26.0441 138.369 26.0441C137.03 26.0441 136.019 25.1308 136.019 23.6573C136.019 22.1838 137.054 21.2705 138.381 21.2705ZM138.369 24.8142C138.856 24.8142 139.319 24.4367 139.319 23.6573C139.319 22.8658 138.868 22.5004 138.381 22.5004C137.882 22.5004 137.444 22.8658 137.444 23.6573C137.444 24.4367 137.858 24.8142 138.369 24.8142Z" fill="#01060F"/>
<path d="M145.578 22.1478C145.262 21.5876 144.714 21.2832 144.032 21.2832C143.435 21.2832 142.972 21.5389 142.704 21.9164V21.3319H141.316V25.9715H142.704V23.4508C142.704 22.8419 143.045 22.5131 143.581 22.5131C144.105 22.5131 144.446 22.8419 144.446 23.4508V25.9715H145.822V23.4508C145.822 22.8419 146.163 22.5131 146.698 22.5131C147.222 22.5131 147.563 22.8419 147.563 23.4508V25.9715H148.951V23.2681C148.951 22.0139 148.221 21.2832 147.1 21.2832C146.443 21.2832 145.87 21.6607 145.578 22.1478Z" fill="#01060F"/>
</g>
</g>
<defs>
<linearGradient id="paint0_linear_4350_3939" x1="13.8097" y1="16.0242" x2="19.1186" y2="16.2853" gradientUnits="userSpaceOnUse">
<stop stop-color="#44B4BB"/>
<stop offset="0.758" stop-color="#16EE96"/>
<stop offset="1" stop-color="#16EE96"/>
</linearGradient>
<linearGradient id="paint1_linear_4350_3939" x1="6.78785" y1="16.1554" x2="14.1088" y2="16.1554" gradientUnits="userSpaceOnUse">
<stop stop-color="#8165EC"/>
<stop offset="0.088" stop-color="#8165EC"/>
<stop offset="1" stop-color="#44B4BB"/>
</linearGradient>
<clipPath id="clip0_4350_3939">
<rect width="19" height="28" fill="white" transform="translate(0 2.15137)"/>
</clipPath>
<clipPath id="clip1_4350_3939">
<rect width="118" height="32.3034" fill="white" transform="translate(31)"/>
</clipPath>
</defs>
</svg>
